<svg enable-background="new 0 0 32 32" viewBox="0 0 32 32" xmlns="http://www.w3.org/2000/svg"><g id="Grid" display="none"/><g id="AI"><path d="m13.294 7.436.803 2.23c.892 2.475 2.841 4.424 5.316 5.316l2.23.803c.201.073.201.358 0 .43l-2.23.803c-2.475.892-4.424 2.841-5.316 5.316l-.803 2.23c-.073.201-.358.201-.43 0l-.803-2.23c-.892-2.475-2.841-4.424-5.316-5.316l-2.23-.803c-.201-.073-.201-.358 0-.43l2.23-.803c2.475-.892 4.424-2.841 5.316-5.316l.803-2.23c.072-.202.357-.202.43 0z"/><path d="m23.332 2.077.407 1.129c.452 1.253 1.439 2.24 2.692 2.692l1.129.407c.102.037.102.181 0 .218l-1.129.407c-1.253.452-2.24 1.439-2.692 2.692l-.407 1.129c-.037.102-.181.102-.218 0l-.407-1.129c-.452-1.253-1.439-2.24-2.692-2.692l-1.129-.407c-.102-.037-.102-.181 0-.218l1.129-.407c1.253-.452 2.24-1.439 2.692-2.692l.407-1.129c.037-.103.182-.103.218 0z"/><path d="m23.332 21.25.407 1.129c.452 1.253 1.439 2.24 2.692 2.692l1.129.407c.102.037.102.181 0 .218l-1.129.407c-1.253.452-2.24 1.439-2.692 2.692l-.407 1.129c-.037.102-.181.102-.218 0l-.407-1.129c-.452-1.253-1.439-2.24-2.692-2.692l-1.129-.407c-.102-.037-.102-.181 0-.218l1.129-.407c1.253-.452 2.24-1.439 2.692-2.692l.407-1.129c.037-.102.182-.102.218 0z"/></g><g id="artificial_intelligence"/><g id="ai_image_generator"/><g id="ai_assistant"/><g id="prompt"/><g id="ai_message"/><g id="ai_cloud"/><g id="data"/><g id="ai_photo_generator"/><g id="innovation"/><g id="ai_voice_generator"/><g id="search"/><g id="migration"/><g id="setting"/><g id="connection"/><g id="protection"/><g id="brain"/><g id="website"/><g id="ai_text_generator"/><g id="regenerate"/><g id="ai_3d_generator"/><g id="ai_document_generator"/><g id="ai_video_generator"/><g id="cloud_data"/><g id="automation"/></svg>