<svg id="Layer_1" enable-background="new 0 0 512 512" viewBox="0 0 512 512" xmlns="http://www.w3.org/2000/svg"><g><g><path clip-rule="evenodd" d="m132.188 323.567c0-37.318 84.902-67.596 189.67-67.596 104.739 0 189.641 30.279 189.641 67.596v62.128c0 37.318-84.902 67.596-189.641 67.596-104.768 0-189.67-30.279-189.67-67.596 0-20.709 0-41.419 0-62.128z" fill="#fe9923" fill-rule="evenodd"/></g><g><path clip-rule="evenodd" d="m321.859 255.971c104.739 0 189.641 30.279 189.641 67.596 0 37.346-84.902 67.596-189.641 67.596-104.768 0-189.67-30.249-189.67-67.596-.001-37.318 84.902-67.596 189.67-67.596z" fill="#fecd3d" fill-rule="evenodd"/></g><g><path clip-rule="evenodd" d="m321.859 287.558c83.332 0 150.87 16.143 150.87 36.009 0 19.895-67.538 36.008-150.87 36.008s-150.899-16.114-150.899-36.008c0-19.866 67.567-36.009 150.899-36.009z" fill="#fea832" fill-rule="evenodd"/></g><path d="m225.846 415.508 16.201.029v31.471c-5.555-.902-10.936-1.92-16.201-3.025zm234.375-16.666v33.071c5.846-2.24 11.256-4.595 16.23-7.068v-26.032zm-175.796 53.111c5.352.407 10.762.698 16.23.902v-30.075l-16.23.029zm-117.188-27.108c4.974 2.473 10.384 4.828 16.23 7.068v-33.1l-16.23.029zm175.796 28.01c5.497-.204 10.878-.524 16.201-.902v-29.144l-16.201-.029zm58.609-5.847c5.555-.902 10.965-1.92 16.201-3.025v-28.446l-16.201-.029z" fill="#c85929"/><g><path d="m56.186 398.667v20.128h20.099v14.368h-20.099v20.128h-14.368v-20.128h-20.128v-14.368h20.128v-20.128z" fill="#fea832"/></g><g><path d="m423.893 178.224v20.127h20.127v14.34h-20.127v20.127h-14.369v-20.127h-20.098v-14.34h20.098v-20.127z" fill="#fea832"/></g><g><path d="m65.843 58.709v20.128h20.099v14.339h-20.099v20.128h-14.369v-20.128h-20.127v-14.339h20.127v-20.128z" fill="#fea832"/></g><g><path clip-rule="evenodd" d="m3.977 288.431c-18.673-32.344 39.732-101.016 130.451-153.371 90.72-52.384 179.374-68.614 198.047-36.3 10.355 17.946 20.709 35.863 31.064 53.78 18.673 32.344-39.732 101.016-130.451 153.371-90.719 52.384-179.374 68.643-198.047 36.299-10.355-17.916-20.709-35.862-31.064-53.779z" fill="#fe9923" fill-rule="evenodd"/></g><g><path clip-rule="evenodd" d="m134.428 135.06c90.72-52.384 179.374-68.614 198.047-36.3 18.673 32.344-39.732 101.016-130.451 153.371-90.69 52.384-179.374 68.614-198.047 36.299-18.673-32.343 39.732-101.015 130.451-153.37z" fill="#fecd3d" fill-rule="evenodd"/></g><g><path clip-rule="evenodd" d="m150.222 162.401c72.163-41.651 138.741-61.459 148.688-44.24s-40.517 64.949-112.679 106.63c-72.163 41.651-138.712 61.459-148.659 44.24s40.487-64.95 112.65-106.63z" fill="#fea832" fill-rule="evenodd"/></g><path d="m199.494 290.118 15.038 26.032c-4.857 2.56-9.686 5.003-14.514 7.329l-14.572-25.246zm-127.514 45.956 13.002 22.512c5.526-.32 11.402-.989 17.568-1.978l-16.521-28.649zm59.074-14.863 14.252 24.665c5.09-1.658 10.267-3.491 15.532-5.468l-15.736-27.283zm105.146-52.297 15.038 26.032c4.625-2.908 9.162-5.875 13.583-8.871l-14.572-25.218zm103.547-87.462-14.049 8.144 16.55 28.621c3.927-4.828 7.446-9.599 10.5-14.224zm-56.427 51.861 15.736 27.283c4.363-3.549 8.522-7.126 12.507-10.704l-14.223-24.636z" fill="#c85929"/></g></svg>