<?xml version="1.0" encoding="iso-8859-1"?>
<!-- Generator: Adobe Illustrator 19.0.0, SVG Export Plug-In . SVG Version: 6.00 Build 0)  -->
<svg version="1.1" id="Capa_1" xmlns="http://www.w3.org/2000/svg" xmlns:xlink="http://www.w3.org/1999/xlink" x="0px" y="0px"
	 viewBox="0 0 512 512" style="enable-background:new 0 0 512 512;" xml:space="preserve">
<path style="fill:#1689FC;" d="M498.802,85.499L426.501,13.2C418.1,4.799,406.399,0,394.703,0H392L257,106.8L240.198,120L120,0H45
	C20.098,0,0,20.099,0,45v422c0,24.899,20.098,45,45,45h45l167-59.101l2.402-0.899L421.7,512H467c24.902,0,45-20.101,45-45V117.299
	C512,105.3,507.203,94.2,498.802,85.499z"/>
<path style="fill:#136EF1;" d="M512,117.299V467c0,24.899-20.098,45-45,45h-45.3l-162.297-60L257,452.899V106.8L392,0h2.703
	C406.4,0,418.1,4.799,426.501,13.2l72.301,72.299C507.203,94.2,512,105.3,512,117.299z"/>
<path style="fill:#E1E4FB;" d="M120,0v135c0,24.899,20.098,45,45,45h182c24.902,0,45-20.101,45-45V0H120z"/>
<path style="fill:#C5C9F7;" d="M347,180h-90V0h135v135C392,159.899,371.902,180,347,180z"/>
<path style="fill:#0059AA;" d="M332,0v105c0,8.399-6.599,15-15,15s-15-6.601-15-15V0H332z"/>
<path style="fill:#E1E4FB;" d="M407,300H105c-8.401,0-15,6.599-15,15v197h332V315C422,306.599,415.401,300,407,300z"/>
<path style="fill:#C5C9F7;" d="M422,315v197H257V300h150C415.401,300,422,306.599,422,315z"/>
<path style="fill:#0D70B2;" d="M377,240H135c-24.902,0-45,20.099-45,45v45h332v-45C422,260.099,401.902,240,377,240z"/>
<path style="fill:#0059AA;" d="M422,285v45H257v-90h120C401.902,240,422,260.099,422,285z"/>
<g>
</g>
<g>
</g>
<g>
</g>
<g>
</g>
<g>
</g>
<g>
</g>
<g>
</g>
<g>
</g>
<g>
</g>
<g>
</g>
<g>
</g>
<g>
</g>
<g>
</g>
<g>
</g>
<g>
</g>
</svg>
