<svg height="512pt" viewBox="0 -39 512.001 512" width="512pt" xmlns="http://www.w3.org/2000/svg"><path d="M457.824 42.016C408.45-8.391 330.398-13.214 274.602 26.313a32.135 32.135 0 0 1-37.2 0c-55.8-39.528-133.851-34.704-183.226 15.703-155.563 158.8 63.656 320.164 160.172 379.695a79.308 79.308 0 0 0 83.304 0c96.516-59.531 315.739-220.895 160.172-379.695zm0 0" fill="#ff737d"/><path d="M318.438 5.387a142.818 142.818 0 0 0-43.836 20.925 32.135 32.135 0 0 1-37.2 0C181.602-13.215 103.551-8.39 54.176 42.017c-139.754 142.664 22.969 287.39 127.465 358.5-20.305-27.336-33.504-55.102-41.75-81.723-23.43-75.652 8.093-157.707 75.656-199.031C286.559 76.328 318.437 5.387 318.437 5.387zm0 0" fill="#f46262"/><path d="M512 305.672c0 53.45-43.332 96.781-96.781 96.781-53.453 0-96.781-43.332-96.781-96.781 0-53.453 43.328-96.785 96.78-96.785 53.45 0 96.782 43.332 96.782 96.785zm0 0" fill="#abebf4"/><path d="M402.652 287.852c0-30.774 14.368-58.192 36.754-75.918a96.994 96.994 0 0 0-24.187-3.047c-53.453 0-96.781 43.332-96.781 96.781 0 53.453 43.328 96.785 96.78 96.785 22.677 0 43.536-7.805 60.036-20.867-41.75-10.738-72.602-48.633-72.602-93.734zm0 0" fill="#8ed7e8"/><path d="M459.715 290.215h-29.043v-29.043c0-8.535-6.918-15.453-15.453-15.453s-15.453 6.918-15.453 15.453v29.043h-29.043c-8.535 0-15.453 6.922-15.453 15.453 0 8.535 6.918 15.453 15.453 15.453h29.043v29.043c0 8.535 6.918 15.453 15.453 15.453s15.453-6.918 15.453-15.453v-29.043h29.043c8.535 0 15.453-6.918 15.453-15.453 0-8.531-6.918-15.453-15.453-15.453zm0 0" fill="#fff"/><path d="M256 193.332c-15.988 0-28.95-12.96-28.95-28.95V143.34a7.901 7.901 0 0 1 7.903-7.903h42.094a7.901 7.901 0 0 1 7.902 7.903v21.043c0 15.988-12.96 28.949-28.949 28.949zm0 0" fill="#57565c"/><path d="M190.047 164.383c0-13.578-13.824-24.59-30.879-24.59s-30.879 11.012-30.879 24.59c0 13.582 13.824 24.59 30.879 24.59s30.879-11.008 30.879-24.59zM383.71 164.383c0-13.578-13.823-24.59-30.878-24.59-17.05 0-30.875 11.012-30.875 24.59 0 13.582 13.824 24.59 30.875 24.59 17.055 0 30.879-11.008 30.879-24.59zm0 0" fill="#ffa6bb"/><g fill="#57565c"><path d="M339.094 150.887a7.726 7.726 0 0 1-7.727-7.727v-12.828a7.725 7.725 0 1 1 15.45 0v12.828a7.725 7.725 0 0 1-7.723 7.727zM172.91 150.887a7.726 7.726 0 0 1-7.726-7.727v-12.828a7.726 7.726 0 1 1 15.453 0v12.828a7.729 7.729 0 0 1-7.727 7.727zm0 0"/></g></svg>