<?xml version="1.0" encoding="UTF-8" standalone="no"?>
<!-- Created with Inkscape (http://www.inkscape.org/) -->

<svg
   version="1.1"
   id="svg4449"
   xml:space="preserve"
   width="64"
   height="64"
   viewBox="0 0 682.66669 682.66669"
   xmlns="http://www.w3.org/2000/svg"
   xmlns:svg="http://www.w3.org/2000/svg"><defs
     id="defs4453"><clipPath
       clipPathUnits="userSpaceOnUse"
       id="clipPath4463"><path
         d="M 0,512 H 512 V 0 H 0 Z"
         id="path4461" /></clipPath></defs><g
     id="g4455"
     transform="matrix(1.3333333,0,0,-1.3333333,0,682.66667)"><g
       id="g4457"><g
         id="g4459"
         clipPath="url(#clipPath4463)"><g
           id="g4465"
           transform="translate(465.9863,109.5601)"><path
             d="m 0,0 c 28.993,41.497 46.014,91.977 46.014,146.44 0,141.385 -114.616,256 -256,256 -141.385,0 -256,-114.615 -256,-256 0,-54.463 17.02,-104.943 46.013,-146.44 z"
             style="fill:#49d88b;fill-opacity:1;fill-rule:nonzero;stroke:none"
             id="path4467" /></g><g
           id="g4469"
           transform="translate(466,452)"><path
             d="M 0,0 V -342.44 C -46.27,-408.67 -123.08,-452 -210,-452 c -86.92,0 -163.73,43.33 -210,109.56 V 0 L -364.83,7.88 -210,30 -55.17,7.88 Z"
             style="fill:#e9efff;fill-opacity:1;fill-rule:nonzero;stroke:none"
             id="path4471" /></g><g
           id="g4473"
           transform="translate(125.6699,463.3804)"><path
             d="m 0,0 -24.5,-3.5 -55.17,-7.88 v -342.44 c 46.27,-66.23 123.08,-109.56 210,-109.56 86.92,0 163.73,43.33 210,109.56 v 0 C 152.371,-353.82 0,-201.45 0,-13.491 Z"
             style="fill:#d3dcfb;fill-opacity:1;fill-rule:nonzero;stroke:none"
             id="path4475" /></g><g
           id="g4477"
           transform="translate(466,452)"><path
             d="m 0,0 h -420 v 40 c 0,11.046 8.954,20 20,20 H -20 C -8.954,60 0,51.046 0,40 Z"
             style="fill:#2a428c;fill-opacity:1;fill-rule:nonzero;stroke:none"
             id="path4479" /></g><g
           id="g4481"
           transform="translate(114.5566,462)"><path
             d="M 0,0 C 0,5.523 4.477,10 10,10 V 30 C 4.477,30 0,34.477 0,40 0,45.523 4.477,50 10,50 h -58.557 c -11.046,0 -20,-8.954 -20,-20 V -10 H 10 C 4.477,-10 0,-5.523 0,0"
             style="fill:#1c2e7a;fill-opacity:1;fill-rule:nonzero;stroke:none"
             id="path4483" /></g><g
           id="g4485"
           transform="translate(413.5,482)"><path
             d="m 0,0 c 0,-5.523 4.477,-10 10,-10 5.523,0 10,4.477 10,10 C 20,5.523 15.523,10 10,10 4.477,10 0,5.523 0,0"
             style="fill:#ff4155;fill-opacity:1;fill-rule:nonzero;stroke:none"
             id="path4487" /></g><g
           id="g4489"
           transform="translate(378.5,482)"><path
             d="m 0,0 c 0,-5.523 4.477,-10 10,-10 5.523,0 10,4.477 10,10 C 20,5.523 15.523,10 10,10 4.477,10 0,5.523 0,0"
             style="fill:#ffdd40;fill-opacity:1;fill-rule:nonzero;stroke:none"
             id="path4491" /></g><g
           id="g4493"
           transform="translate(343.5,482)"><path
             d="m 0,0 c 0,-5.523 4.477,-10 10,-10 5.523,0 10,4.477 10,10 C 20,5.523 15.523,10 10,10 4.477,10 0,5.523 0,0"
             style="fill:#38c674;fill-opacity:1;fill-rule:nonzero;stroke:none"
             id="path4495" /></g><g
           id="g4497"
           transform="translate(88.5,472)"><path
             d="m 0,0 h 215 c 5.523,0 10,4.477 10,10 0,5.523 -4.477,10 -10,10 H 0 C -5.523,20 -10,15.523 -10,10 -10,4.477 -5.523,0 0,0"
             style="fill:#3c58a0;fill-opacity:1;fill-rule:nonzero;stroke:none"
             id="path4499" /></g><g
           id="g4501"
           transform="translate(256,189.5)"><path
             d="m 0,0 c -63.411,0 -115,51.589 -115,115 0,63.411 51.589,115 115,115 63.411,0 115,-51.589 115,-115 C 115,51.589 63.411,0 0,0"
             style="fill:#ffffff;fill-opacity:1;fill-rule:nonzero;stroke:none"
             id="path4503" /></g><g
           id="g4505"
           transform="translate(330.4775,237.7759)"><path
             d="m 0,0 c 15.867,17.699 25.522,41.083 25.522,66.724 0,55.229 -44.771,100 -100,100 -55.228,0 -100,-44.771 -100,-100 0,-25.641 9.656,-49.025 25.523,-66.724 z"
             style="fill:#9bd8f9;fill-opacity:1;fill-rule:nonzero;stroke:none"
             id="path4507" /></g><g
           id="g4509"
           transform="translate(318.8906,262.3125)"><path
             d="M 0,0 C -8.594,7.588 -45.822,13.718 -45.822,13.718 V 57.496 H -79.959 V 13.718 c 0,0 -37.229,-6.13 -45.822,-13.718 -3.534,-3.12 -7.795,-13.453 -11.587,-24.537 18.309,-20.422 44.89,-33.276 74.477,-33.276 29.587,0 56.169,12.854 74.478,33.276 C 7.794,-13.453 3.534,-3.12 0,0"
             style="fill:#1e9ef4;fill-opacity:1;fill-rule:nonzero;stroke:none"
             id="path4511" /></g><g
           id="g4513"
           transform="translate(296.8672,218.1724)"><path
             d="m 0,0 c -37.539,0 -70.241,20.688 -87.342,51.281 -7.077,-2.078 -13.451,-4.523 -16.416,-7.141 -3.534,-3.12 -7.795,-13.453 -11.587,-24.536 18.309,-20.423 44.891,-33.276 74.478,-33.276 18.812,0 36.408,5.198 51.437,14.231 C 7.097,0.193 3.571,0 0,0"
             style="fill:#1886ea;fill-opacity:1;fill-rule:nonzero;stroke:none"
             id="path4515" /></g><g
           id="g4517"
           transform="translate(238.9316,319.8081)"><path
             d="m 0,0 v -43.777 c 18.333,0 28.612,14.07 28.612,14.07 L 34.137,0 Z"
             style="fill:#1886ea;fill-opacity:1;fill-rule:nonzero;stroke:none"
             id="path4519" /></g><g
           id="g4521"
           transform="translate(287.7383,336.8354)"><path
             d="m 0,0 c 0,-23.371 -14.21,-50.781 -31.738,-50.781 -17.529,0 -31.739,27.41 -31.739,50.781 0,23.371 14.21,40.176 31.739,40.176 C -14.21,40.176 0,23.371 0,0"
             style="fill:#4fabf7;fill-opacity:1;fill-rule:nonzero;stroke:none"
             id="path4523" /></g><g
           id="g4525"
           transform="translate(235.1763,336.8354)"><path
             d="m 0,0 c 0,20.89 11.353,36.532 26.281,39.618 -1.773,0.366 -3.596,0.557 -5.457,0.557 -17.529,0 -31.739,-16.804 -31.739,-40.175 0,-23.371 14.21,-50.781 31.739,-50.781 1.861,0 3.684,0.312 5.457,0.892 C 11.353,-45.003 0,-20.89 0,0"
             style="fill:#1e9ef4;fill-opacity:1;fill-rule:nonzero;stroke:none"
             id="path4527" /></g><g
           id="g4529"
           transform="translate(376,117)"><path
             d="m 0,0 h -240 c -11.046,0 -20,8.954 -20,20 0,11.046 8.954,20 20,20 H 0 C 11.046,40 20,31.046 20,20 20,8.954 11.046,0 0,0"
             style="fill:#2a428c;fill-opacity:1;fill-rule:nonzero;stroke:none"
             id="path4531" /></g><g
           id="g4533"
           transform="translate(203.5,137)"><path
             d="M 0,0 C 0,-4.142 3.358,-7.5 7.5,-7.5 11.642,-7.5 15,-4.142 15,0 15,4.142 11.642,7.5 7.5,7.5 3.358,7.5 0,4.142 0,0"
             style="fill:#3c58a0;fill-opacity:1;fill-rule:nonzero;stroke:none"
             id="path4535" /></g><g
           id="g4537"
           transform="translate(233.5,137)"><path
             d="M 0,0 C 0,-4.142 3.358,-7.5 7.5,-7.5 11.642,-7.5 15,-4.142 15,0 15,4.142 11.642,7.5 7.5,7.5 3.358,7.5 0,4.142 0,0"
             style="fill:#3c58a0;fill-opacity:1;fill-rule:nonzero;stroke:none"
             id="path4539" /></g><g
           id="g4541"
           transform="translate(263.5,137)"><path
             d="M 0,0 C 0,-4.142 3.358,-7.5 7.5,-7.5 11.642,-7.5 15,-4.142 15,0 15,4.142 11.642,7.5 7.5,7.5 3.358,7.5 0,4.142 0,0"
             style="fill:#3c58a0;fill-opacity:1;fill-rule:nonzero;stroke:none"
             id="path4543" /></g><g
           id="g4545"
           transform="translate(293.5,137)"><path
             d="M 0,0 C 0,-4.142 3.358,-7.5 7.5,-7.5 11.642,-7.5 15,-4.142 15,0 15,4.142 11.642,7.5 7.5,7.5 3.358,7.5 0,4.142 0,0"
             style="fill:#3c58a0;fill-opacity:1;fill-rule:nonzero;stroke:none"
             id="path4547" /></g><g
           id="g4549"
           transform="translate(323.5,137)"><path
             d="M 0,0 C 0,-4.142 3.358,-7.5 7.5,-7.5 11.642,-7.5 15,-4.142 15,0 15,4.142 11.642,7.5 7.5,7.5 3.358,7.5 0,4.142 0,0"
             style="fill:#3c58a0;fill-opacity:1;fill-rule:nonzero;stroke:none"
             id="path4551" /></g><g
           id="g4553"
           transform="translate(353.5,137)"><path
             d="M 0,0 C 0,-4.142 3.358,-7.5 7.5,-7.5 11.642,-7.5 15,-4.142 15,0 15,4.142 11.642,7.5 7.5,7.5 3.358,7.5 0,4.142 0,0"
             style="fill:#3c58a0;fill-opacity:1;fill-rule:nonzero;stroke:none"
             id="path4555" /></g><g
           id="g4557"
           transform="translate(173.5,137)"><path
             d="M 0,0 C 0,-4.142 3.358,-7.5 7.5,-7.5 11.642,-7.5 15,-4.142 15,0 15,4.142 11.642,7.5 7.5,7.5 3.358,7.5 0,4.142 0,0"
             style="fill:#3c58a0;fill-opacity:1;fill-rule:nonzero;stroke:none"
             id="path4559" /></g><g
           id="g4561"
           transform="translate(143.5,137)"><path
             d="M 0,0 C 0,-4.142 3.358,-7.5 7.5,-7.5 11.642,-7.5 15,-4.142 15,0 15,4.142 11.642,7.5 7.5,7.5 3.358,7.5 0,4.142 0,0"
             style="fill:#3c58a0;fill-opacity:1;fill-rule:nonzero;stroke:none"
             id="path4563" /></g><g
           id="g4565"
           transform="translate(356,62)"><path
             d="m 0,0 h -220 c -11.046,0 -20,8.954 -20,20 0,11.046 8.954,20 20,20 H 0 Z"
             style="fill:#ffffff;fill-opacity:1;fill-rule:nonzero;stroke:none"
             id="path4567" /></g><g
           id="g4569"
           transform="translate(356,62)"><path
             d="M 0,0 H 20 C 31.046,0 40,8.954 40,20 40,31.046 31.046,40 20,40 H 0 C -11.046,40 -20,31.046 -20,20 -20,8.954 -11.046,0 0,0"
             style="fill:#4fabf7;fill-opacity:1;fill-rule:nonzero;stroke:none"
             id="path4571" /></g><g
           id="g4573"
           transform="translate(208.564,82)"><path
             d="M 0,0 C 0,-4.142 3.358,-7.5 7.5,-7.5 11.642,-7.5 15,-4.142 15,0 15,4.142 11.642,7.5 7.5,7.5 3.358,7.5 0,4.142 0,0"
             style="fill:#bec8f7;fill-opacity:1;fill-rule:nonzero;stroke:none"
             id="path4575" /></g><g
           id="g4577"
           transform="translate(238.564,82)"><path
             d="M 0,0 C 0,-4.142 3.358,-7.5 7.5,-7.5 11.642,-7.5 15,-4.142 15,0 15,4.142 11.642,7.5 7.5,7.5 3.358,7.5 0,4.142 0,0"
             style="fill:#bec8f7;fill-opacity:1;fill-rule:nonzero;stroke:none"
             id="path4579" /></g><g
           id="g4581"
           transform="translate(268.564,82)"><path
             d="M 0,0 C 0,-4.142 3.358,-7.5 7.5,-7.5 11.642,-7.5 15,-4.142 15,0 15,4.142 11.642,7.5 7.5,7.5 3.358,7.5 0,4.142 0,0"
             style="fill:#bec8f7;fill-opacity:1;fill-rule:nonzero;stroke:none"
             id="path4583" /></g><g
           id="g4585"
           transform="translate(298.564,82)"><path
             d="M 0,0 C 0,-4.142 3.358,-7.5 7.5,-7.5 11.642,-7.5 15,-4.142 15,0 15,4.142 11.642,7.5 7.5,7.5 3.358,7.5 0,4.142 0,0"
             style="fill:#bec8f7;fill-opacity:1;fill-rule:nonzero;stroke:none"
             id="path4587" /></g><g
           id="g4589"
           transform="translate(178.564,82)"><path
             d="M 0,0 C 0,-4.142 3.358,-7.5 7.5,-7.5 11.642,-7.5 15,-4.142 15,0 15,4.142 11.642,7.5 7.5,7.5 3.358,7.5 0,4.142 0,0"
             style="fill:#bec8f7;fill-opacity:1;fill-rule:nonzero;stroke:none"
             id="path4591" /></g><g
           id="g4593"
           transform="translate(148.564,82)"><path
             d="M 0,0 C 0,-4.142 3.358,-7.5 7.5,-7.5 11.642,-7.5 15,-4.142 15,0 15,4.142 11.642,7.5 7.5,7.5 3.358,7.5 0,4.142 0,0"
             style="fill:#bec8f7;fill-opacity:1;fill-rule:nonzero;stroke:none"
             id="path4595" /></g><g
           id="g4597"
           transform="translate(359.2861,88.2915)"><path
             d="m 0,0 v -12.583 c 0,-1.598 1.781,-2.55 3.11,-1.664 l 9.428,6.292 c 1.186,0.792 1.186,2.536 0,3.327 L 3.11,1.664 C 1.781,2.55 0,1.598 0,0"
             style="fill:#ffffff;fill-opacity:1;fill-rule:nonzero;stroke:none"
             id="path4599" /></g></g></g></g></svg>
