<svg xmlns="http://www.w3.org/2000/svg" viewBox="0 0 512 512" style="enable-background:new 0 0 512 512" xml:space="preserve"><path style="fill:#a8eefc" d="m511.342 501.574-73.78-178.607a7.474 7.474 0 0 0-6.901-4.637H81.339a7.474 7.474 0 0 0-6.901 4.637L.657 501.574a7.574 7.574 0 0 0 .683 7.073A7.46 7.46 0 0 0 7.559 512h496.882a7.464 7.464 0 0 0 6.219-3.353 7.579 7.579 0 0 0 .682-7.073z"/><path style="fill:#7ee5f2" d="M480.641 512h23.8a7.464 7.464 0 0 0 6.219-3.353 7.579 7.579 0 0 0 .683-7.073l-73.78-178.607a7.474 7.474 0 0 0-6.901-4.637h-30.023L480.641 512z"/><path style="fill:#4ce166" d="m123.166 385.691 25.459-67.528H80.866a7.474 7.474 0 0 0-6.901 4.637l-25.98 62.891h75.181zM430.188 318.163H194.912l68.623 59.839h196.358l-22.803-55.201a7.479 7.479 0 0 0-6.902-4.638zM461.655 382.269l1.414 3.422z"/><path style="fill:#ffdb56" d="m482.581 432.928-22.688-54.926H263.534l-68.622-59.839H143.02l-24.84 59.824H51.169l-15.052 36.436-7.644 18.505h67.082l-32.593 78.905h60.979l52.35-128.175 150.966 128.175h89.128l-90.224-78.905z"/><path style="fill:#ff4a4a" d="M255.527 0C166.495 0 94.063 72.977 94.063 162.678c0 30.924 8.352 63.733 24.827 97.515 13.036 26.734 31.175 54.161 53.91 81.52 38.572 46.415 76.553 76.214 78.152 77.461a7.434 7.434 0 0 0 9.15 0c1.598-1.247 39.579-31.046 78.152-77.461 22.736-27.359 40.875-54.786 53.91-81.52 16.475-33.783 24.827-66.591 24.827-97.515C416.991 72.977 344.559 0 255.527 0zm0 100.798c33.92 0 61.418 27.705 61.418 61.88s-27.498 61.88-61.418 61.88-61.418-27.705-61.418-61.88c0-34.175 27.498-61.88 61.418-61.88z"/><path style="fill:#e7343f" d="M255.527 0c-5.313 0-10.566.268-15.749.775 81.668 8.002 145.715 77.555 145.715 161.903 0 30.924-8.352 63.733-24.827 97.515-13.036 26.734-31.175 54.161-53.91 81.52-26.454 31.833-52.626 55.846-66.978 68.197 6.575 5.658 10.672 8.872 11.173 9.263a7.434 7.434 0 0 0 9.15 0c1.598-1.247 39.579-31.046 78.152-77.461 22.736-27.359 40.875-54.786 53.91-81.52 16.475-33.783 24.827-66.591 24.827-97.515C416.991 72.977 344.559 0 255.527 0z"/><path style="fill:#4ce166" d="M123.941 511.833h203.316L176.291 383.658z"/><path style="fill:#ffbb24" d="m424.884 378.002 22.689 54.926h35.008l-22.688-54.926z"/><path style="fill:#44c868" d="M424.884 378.002h35.009l-22.803-55.201a7.474 7.474 0 0 0-6.901-4.637h-30.023l24.718 59.838z"/></svg>