<svg height="512" viewBox="0 0 64 64" width="512" xmlns="http://www.w3.org/2000/svg"><g id="_14-Payment" data-name="14-Payment"><path d="m17 51v6a10.3435 10.3435 0 0 0 1 4h28a10.3435 10.3435 0 0 0 1-4v-6z" fill="#ffccbc"/><path d="m59.92 16.82-5.1 25.49a4.0108 4.0108 0 0 1 -4.71 3.14l-45.11-9.04a3.9907 3.9907 0 0 1 -2-1.05v-9.31l3.97-19.84a4.0108 4.0108 0 0 1 4.71-3.14l45.11 9.04a3.9941 3.9941 0 0 1 3.13 4.71z" fill="#66bb6a"/><path d="m59.92 16.82-5.1 25.49a4.0108 4.0108 0 0 1 -4.71 3.14l-45.11-9.04a3.9907 3.9907 0 0 1 -2-1.05v-.35l42.11 8.44a4.0108 4.0108 0 0 0 4.71-3.14l5.1-25.49a3.9409 3.9409 0 0 0 -.77-3.24l2.64.53a3.9941 3.9941 0 0 1 3.13 4.71z" fill="#4caf50"/><path d="m52.8613 21.5207-2.75 13.7273a3.9989 3.9989 0 0 0 -4.7077 3.1365l-33.3375-6.6779a3.9989 3.9989 0 0 0 -3.1361-4.7077l2.75-13.7273a3.9989 3.9989 0 0 0 4.7078-3.1365l33.337 6.6779a3.9989 3.9989 0 0 0 3.1365 4.7077z" fill="#a5d6a7"/><rect fill="#81c784" height="34" rx="4" width="58" x="3" y="17"/><path d="m61 21v26a3.9989 3.9989 0 0 1 -4 4h-50a3.9989 3.9989 0 0 1 -4-4v-.36a3.9837 3.9837 0 0 0 3 1.36h46a3.9989 3.9989 0 0 0 4-4v-24a3.9837 3.9837 0 0 0 -1.36-3h2.36a3.9989 3.9989 0 0 1 4 4z" fill="#66bb6a"/><path d="m55 27v14a3.9989 3.9989 0 0 0 -4 4h-38a3.9989 3.9989 0 0 0 -4-4v-14a3.9989 3.9989 0 0 0 4-4h38a3.9989 3.9989 0 0 0 4 4z" fill="#a5d6a7"/><circle cx="32" cy="34" fill="#81c784" r="7"/><path d="m39 34a6.9949 6.9949 0 0 1 -7 7 6.6966 6.6966 0 0 1 -2.5-.47 6.9879 6.9879 0 0 0 0-13.06 6.6966 6.6966 0 0 1 2.5-.47 6.9949 6.9949 0 0 1 7 7z" fill="#66bb6a"/><path d="m45 29a6 6 0 0 0 -6 6v10a8 8 0 0 0 -8 8v8h15a10.3435 10.3435 0 0 0 1-4v-26a2 2 0 0 0 -2-2z" fill="#ffccbc"/><path d="m47 31v.09a5.99 5.99 0 0 0 -5 5.91v9a2 2 0 0 1 -2 2h-1a5 5 0 0 0 -5 5v1.5a1.5 1.5 0 0 1 -1.5 1.5 1.5 1.5 0 0 1 -1.5-1.5v-1.5a7.9978 7.9978 0 0 1 8-8v-10a6.0047 6.0047 0 0 1 5.9613-6 2.0112 2.0112 0 0 1 2.0387 2z" fill="#ffab91"/></g></svg>