<svg id="Capa_1" enable-background="new 0 0 512 512" viewBox="0 0 512 512" xmlns="http://www.w3.org/2000/svg"><g><g><path d="m295.545 0h-195.643l-21.147 52.533 21.148 80.671h195.642c9.196 0 16.65-7.455 16.65-16.65v-99.904c0-9.195-7.455-16.65-16.65-16.65z" fill="#eaf6ff"/><path d="m295.545 0h-27.057c9.196 0 16.65 7.455 16.65 16.65v99.902c0 9.196-7.455 16.65-16.65 16.65h27.057c9.196 0 16.65-7.455 16.65-16.65v-99.902c0-9.195-7.454-16.65-16.65-16.65z" fill="#d8ecfe"/><path d="m16.65 133.203h83.252v-133.203h-83.252c-9.195 0-16.65 7.455-16.65 16.65v99.902c0 9.197 7.455 16.651 16.65 16.651z" fill="#00f2a6"/></g><g><path d="m416.728 166.66h-195.642l-19.588 59.101 19.588 74.102h195.642c9.196 0 16.65-7.455 16.65-16.65v-99.903c.001-9.196-7.454-16.65-16.65-16.65z" fill="#eaf6ff"/><path d="m416.728 166.66h-27.057c9.196 0 16.65 7.455 16.65 16.65v99.902c0 9.196-7.455 16.65-16.65 16.65h27.057c9.196 0 16.65-7.455 16.65-16.65v-99.902c.001-9.196-7.454-16.65-16.65-16.65z" fill="#d8ecfe"/><path d="m137.834 299.863h83.252v-133.203h-83.252c-9.196 0-16.65 7.455-16.65 16.65v99.902c0 9.196 7.454 16.651 16.65 16.651z" fill="#fe5694"/></g><path d="m295.545 333.164h-195.643l-22.701 66.342 22.701 66.862h195.642c9.196 0 16.65-7.455 16.65-16.65v-99.902c.001-9.198-7.454-16.652-16.649-16.652z" fill="#eaf6ff"/><path d="m295.545 333.164h-27.057c9.196 0 16.65 7.455 16.65 16.65v99.902c0 9.196-7.455 16.65-16.65 16.65h27.057c9.196 0 16.65-7.455 16.65-16.65l7.839-18.643-7.839-17.084v-64.176c0-9.195-7.454-16.649-16.65-16.649z" fill="#d8ecfe"/><path d="m16.65 466.367h83.252v-133.203h-83.252c-9.196 0-16.65 7.455-16.65 16.65v99.902c0 9.196 7.455 16.651 16.65 16.651z" fill="#ffe177"/><g><g><path d="m53.947 107.142c-4.142 0-7.5-3.358-7.5-7.5v-59.101h-6.735c-4.142 0-7.5-3.358-7.5-7.5s3.358-7.5 7.5-7.5h14.235c4.142 0 7.5 3.358 7.5 7.5v66.602c0 4.141-3.358 7.499-7.5 7.499z" fill="#eaf6ff"/></g></g><g><g><path d="m278.895 74.102h-145.692c-4.142 0-7.5-3.358-7.5-7.5s3.358-7.5 7.5-7.5h145.691c4.142 0 7.5 3.358 7.5 7.5s-3.357 7.5-7.499 7.5z" fill="#62dbfb"/></g><g><path d="m278.895 40.801h-145.692c-4.142 0-7.5-3.358-7.5-7.5s3.358-7.5 7.5-7.5h145.691c4.142 0 7.5 3.358 7.5 7.5s-3.357 7.5-7.499 7.5z" fill="#62dbfb"/></g><g><path d="m247.675 107.402h-114.472c-4.142 0-7.5-3.358-7.5-7.5s3.358-7.5 7.5-7.5h114.472c4.142 0 7.5 3.358 7.5 7.5s-3.358 7.5-7.5 7.5z" fill="#62dbfb"/></g></g><g><g><path d="m189.008 273.858h-33.159c-2.833 0-5.425-1.597-6.699-4.128s-1.013-5.563.675-7.839c.1-.136 2.871-3.914 22.998-32.671 4.39-6.553 5.928-9.148 5.928-12.405 0-5.045-4.105-9.15-9.15-9.15-4.364 0-8.14 3.099-8.979 7.369-.799 4.064-4.742 6.71-8.805 5.914-4.064-.798-6.712-4.741-5.914-8.805 2.217-11.286 12.183-19.477 23.697-19.477 13.316 0 24.15 10.834 24.15 24.15 0 8.12-3.755 13.724-8.509 20.818-.028.042-.057.084-.086.125-6.623 9.463-11.385 16.248-14.8 21.1h18.653c4.142 0 7.5 3.358 7.5 7.5s-3.358 7.499-7.5 7.499z" fill="#eaf6ff"/></g></g><g><g><path d="m372.137 240.761h-117.75c-4.142 0-7.5-3.358-7.5-7.5s3.358-7.5 7.5-7.5h117.75c4.142 0 7.5 3.358 7.5 7.5s-3.358 7.5-7.5 7.5z" fill="#62dbfb"/></g><g><path d="m400.078 207.46h-145.691c-4.142 0-7.5-3.358-7.5-7.5s3.358-7.5 7.5-7.5h145.691c4.142 0 7.5 3.358 7.5 7.5s-3.358 7.5-7.5 7.5z" fill="#62dbfb"/></g><g><path d="m352.156 274.062h-97.769c-4.142 0-7.5-3.358-7.5-7.5s3.358-7.5 7.5-7.5h97.769c4.142 0 7.5 3.358 7.5 7.5s-3.358 7.5-7.5 7.5z" fill="#62dbfb"/></g></g><g><g><path d="m49.951 440.306c-11.981 0-22.264-8.938-23.918-20.792-.154-1.105-.232-2.235-.232-3.359 0-4.142 3.358-7.5 7.5-7.5s7.5 3.358 7.5 7.5c0 .432.03.864.088 1.285.626 4.484 4.521 7.865 9.062 7.865 5.045 0 9.15-4.105 9.15-9.15s-4.105-9.15-9.15-9.15c-4.142 0-7.5-3.358-7.5-7.5s3.358-7.5 7.5-7.5c5.045 0 9.15-4.105 9.15-9.15s-4.105-9.15-9.15-9.15c-4.364 0-8.14 3.099-8.979 7.369-.798 4.064-4.74 6.712-8.805 5.914-4.064-.798-6.712-4.741-5.914-8.805 2.217-11.286 12.183-19.477 23.697-19.477 13.316 0 24.15 10.834 24.15 24.15 0 6.449-2.54 12.314-6.673 16.65 4.133 4.336 6.673 10.202 6.673 16.65.002 13.316-10.832 24.15-24.149 24.15z" fill="#eaf6ff"/></g></g><g><g><path d="m278.895 407.266h-145.692c-4.142 0-7.5-3.358-7.5-7.5s3.358-7.5 7.5-7.5h145.691c4.142 0 7.5 3.358 7.5 7.5s-3.357 7.5-7.499 7.5z" fill="#62dbfb"/></g><g><path d="m278.895 373.965h-145.692c-4.142 0-7.5-3.358-7.5-7.5s3.358-7.5 7.5-7.5h145.691c4.142 0 7.5 3.358 7.5 7.5s-3.357 7.5-7.499 7.5z" fill="#62dbfb"/></g><g><path d="m247.675 440.566h-114.472c-4.142 0-7.5-3.358-7.5-7.5s3.358-7.5 7.5-7.5h114.472c4.142 0 7.5 3.358 7.5 7.5s-3.358 7.5-7.5 7.5z" fill="#62dbfb"/></g></g><g><g><path d="m492.748 350.16c-11.367-.404-20.709 8.691-20.709 19.968v-12.508c0-10.834-8.425-20.061-19.252-20.446-11.367-.404-20.709 8.691-20.709 19.968v-9.511c0-10.834-8.425-20.061-19.252-20.446-11.367-.404-20.709 8.691-20.709 19.968v-34.644l-7.183-9.151v-55.048l-14.5-13.58h-5.797c-7.316 2.967-12.48 10.131-12.48 18.512v120.292l-21.647 10.823c-11.224 5.612-18.314 17.084-18.314 29.633v52.559c0 8.832 3.508 17.302 9.754 23.547l18.389 18.389c2.25 2.25 5.303 3.515 8.485 3.515h151.176c6.627 0 12-5.373 12-12v-129.393c0-10.834-8.425-20.062-19.252-20.447z" fill="#fed2a4"/><path d="m496.186 350.586c-3.662-.779-7.157-.474-10.326.554 2.057 3.232 3.245 7.073 3.245 11.141v137.719c0 6.627-5.373 12-12 12h22.895c6.627 0 12-5.373 12-12v-129.378c0-9.533-6.489-18.054-15.814-20.036z" fill="#ffbd86"/></g><g fill="#ffbd86"><path d="m349.959 422.669c1.407-1.406 2.197-3.314 2.197-5.303v-50.013c0 3.788-2.14 7.25-5.528 8.944l-9.472 4.736v33.226l-6.107 6.107c-2.929 2.929-2.929 7.678 0 10.606 1.464 1.464 3.384 2.197 5.303 2.197s3.839-.732 5.303-2.197z"/><path d="m364.637 234.73c7.316 2.967 12.48 10.131 12.48 18.512v124.433c0 4.142 3.358 7.5 7.5 7.5s7.5-3.358 7.5-7.5v-124.433c0-11.035-8.946-19.98-19.98-19.98-2.655-.001-5.183.528-7.5 1.468z"/><path d="m412.826 327.183c-2.942-.105-5.742.438-8.286 1.479 7.398 3.06 12.538 10.514 12.538 18.968v30.046c0 4.142 3.358 7.5 7.5 7.5s7.5-3.358 7.5-7.5v-30.046c0-10.835-8.424-20.062-19.252-20.447z"/><path d="m452.787 337.173c-2.942-.105-5.742.438-8.286 1.479 7.398 3.06 12.538 10.514 12.538 18.968v20.055c0 4.142 3.358 7.5 7.5 7.5s7.5-3.358 7.5-7.5v-20.055c0-10.835-8.425-20.062-19.252-20.447z"/></g></g></g><g/><g/><g/><g/><g/><g/><g/><g/><g/><g/><g/><g/><g/><g/><g/></svg>