<svg height="512" viewBox="0 0 64 64" width="512" xmlns="http://www.w3.org/2000/svg"><g id="Book_Information" data-name="Book Information"><path d="m0 23v33a4 4 0 0 0 4 4h21.15a3 3 0 0 1 2.68 1.66l.34.68a3 3 0 0 0 2.68 1.66h2.3a3 3 0 0 0 2.68-1.66l.34-.68a3 3 0 0 1 2.68-1.66h21.15a4 4 0 0 0 4-4v-33a4 4 0 0 0 -4-4h-56a4 4 0 0 0 -4 4z" fill="#00bebd"/><path d="m57 13h-15.34a14.54 14.54 0 0 0 -9.66 3.63 14.54 14.54 0 0 0 -9.66-3.63h-15.34a3 3 0 0 0 -3 3v35a3 3 0 0 0 3 3h15.34a12.58 12.58 0 0 1 9 3.71 1 1 0 0 0 1.42 0 12.58 12.58 0 0 1 8.9-3.71h15.34a3 3 0 0 0 3-3v-35a3 3 0 0 0 -3-3z" fill="#f3f3f3"/><path d="m34 28h22v2h-22z" fill="#d9d9d9"/><path d="m34 24h22v2h-22z" fill="#d9d9d9"/><path d="m34 20h22v2h-22z" fill="#d9d9d9"/><path d="m34 16h22v2h-22z" fill="#d9d9d9"/><path d="m8 28h22v2h-22z" fill="#d9d9d9"/><path d="m8 24h22v2h-22z" fill="#d9d9d9"/><path d="m8 20h22v2h-22z" fill="#d9d9d9"/><path d="m8 16h22v2h-22z" fill="#d9d9d9"/><path d="m34 16v2h12.14a14.27 14.27 0 0 1 -.88 2h-11.26v2h10a15.72 15.72 0 0 1 -1.82 2h-8.18v2h5.47a15 15 0 0 1 -14.94 0h5.47v-2h-8.18a15.72 15.72 0 0 1 -1.82-2h10v-2h-11.26a14.27 14.27 0 0 1 -.88-2h12.14v-2h-12.7a14.82 14.82 0 0 1 -.3-3h5.34a14.54 14.54 0 0 1 9.66 3.63 14.54 14.54 0 0 1 9.66-3.63h5.34a14.82 14.82 0 0 1 -.3 3z" fill="#d9d9d9"/><path d="m17.3 16h12.7v2h-12.14a14.77 14.77 0 0 1 -.56-2z" fill="#c8c8c8"/><path d="m18.74 20h11.26v2h-10a15.3 15.3 0 0 1 -1.26-2z" fill="#c8c8c8"/><path d="m21.82 24h8.18v2h-5.47a14.37 14.37 0 0 1 -2.71-2z" fill="#c8c8c8"/><path d="m34 24h8.18a14.37 14.37 0 0 1 -2.71 2h-5.47z" fill="#c8c8c8"/><path d="m34 20h11.26a15.3 15.3 0 0 1 -1.26 2h-10z" fill="#c8c8c8"/><path d="m46.7 16a14.77 14.77 0 0 1 -.56 2h-12.14v-2z" fill="#c8c8c8"/><circle cx="32" cy="13" fill="#fff" r="13"/><circle cx="32" cy="13" fill="#ffac00" r="10"/><g fill="#d9d9d9"><path d="m8 32h22v2h-22z"/><path d="m8 36h22v2h-22z"/><path d="m34 48h22v2h-22z"/><path d="m8 40h22v2h-22z"/><path d="m8 44h22v2h-22z"/><path d="m8 48h22v2h-22z"/><path d="m34 32h9v2h-9z"/><path d="m34 36h9v2h-9z"/><path d="m34 40h9v2h-9z"/><path d="m34 44h9v2h-9z"/></g><rect fill="#50d9d7" height="14" rx="2" width="10" x="46" y="32"/><path d="m29 11v2h1v6h4v-8z" fill="#fff"/><circle cx="32" cy="7" fill="#fff" r="2"/></g></svg>