<svg height="512pt" viewBox="-2 0 512 512" width="512pt" xmlns="http://www.w3.org/2000/svg"><path d="m409.851562 92.894531v359.871094c0 24.730469-15.226562 45.910156-36.820312 54.648437-6.832031 2.777344-14.296875 4.304688-22.121094 4.304688h-291.957031c-32.5625 0-58.953125-26.402344-58.953125-58.953125v-359.871094c0-32.5625 26.390625-58.949219 58.953125-58.949219h291.957031c32.550782 0 58.941406 26.386719 58.941406 58.949219zm0 0" fill="#5b5b68"/><path d="m364.507812 92.894531v359.871094c0 7.5-6.097656 13.597656-13.597656 13.597656h-291.957031c-7.5 0-13.597656-6.097656-13.597656-13.597656v-359.871094c0-7.496093 6.097656-13.597656 13.597656-13.597656h291.957031c7.5 0 13.597656 6.101563 13.597656 13.597656zm0 0" fill="#e2eff2"/><path d="m288.566406 97.21875h-167.277344c-13.960937 0-25.277343-11.316406-25.277343-25.277344v-46.664062c0-13.960938 11.316406-25.277344 25.277343-25.277344h167.277344c13.960938 0 25.277344 11.316406 25.277344 25.277344v46.664062c0 13.960938-11.316406 25.277344-25.277344 25.277344zm0 0" fill="#fed563"/><g fill="#40404c"><path d="m409.851562 220.804688v231.960937c0 24.730469-15.226562 45.910156-36.820312 54.648437-9.085938 2.265626-18.496094 3.730469-28.136719 4.304688-3.121093.1875-6.253906.28125-9.417969.28125-3.164062 0-6.296874-.09375-9.421874-.28125-81.257813-4.867188-145.660157-72.320312-145.660157-154.800781 0-85.652344 69.4375-155.078125 155.082031-155.078125 26.941407 0 52.300782 6.871094 74.375 18.964844zm0 0"/><path d="m180.582031 48.320312c0 12.6875-10.285156 22.972657-22.972656 22.972657-12.691406 0-22.976563-10.285157-22.976563-22.972657 0-12.691406 10.285157-22.976562 22.976563-22.976562 12.6875 0 22.972656 10.285156 22.972656 22.976562zm0 0"/><path d="m275.222656 48.320312c0 12.6875-10.285156 22.972657-22.972656 22.972657s-22.976562-10.285157-22.976562-22.972657c0-12.691406 10.289062-22.976562 22.976562-22.976562s22.972656 10.285156 22.972656 22.976562zm0 0"/></g><path d="m364.507812 204.554688v248.210937c0 7.5-6.097656 13.597656-13.597656 13.597656h-125.304687c-27.9375-28.039062-45.210938-66.722656-45.210938-109.445312 0-85.652344 69.425781-155.078125 155.082031-155.078125 9.921876 0 19.621094.925781 29.03125 2.714844zm0 0" fill="#bbd8dd"/><path d="m507.78125 356.914062c0 85.648438-69.429688 155.082032-155.078125 155.082032s-155.082031-69.433594-155.082031-155.082032c0-85.648437 69.433594-155.082031 155.082031-155.082031s155.078125 69.433594 155.078125 155.082031zm0 0" fill="#55c7f3"/><path d="m465.910156 356.914062c0 62.523438-50.679687 113.214844-113.203125 113.214844-5.492187 0-10.902343-.386718-16.1875-1.160156-54.859375-7.839844-97.027343-55.023438-97.027343-112.054688 0-57.027343 42.167968-104.210937 97.027343-112.054687 5.285157-.773437 10.695313-1.160156 16.1875-1.160156 62.519531 0 113.203125 50.691406 113.203125 113.214843zm0 0" fill="#dafdfd"/><path d="m433.535156 356.914062c0 57.03125-42.15625 104.214844-97.015625 112.054688-54.859375-7.839844-97.027343-55.023438-97.027343-112.054688 0-57.027343 42.167968-104.210937 97.027343-112.054687 54.859375 7.84375 97.015625 55.027344 97.015625 112.054687zm0 0" fill="#56d8d8"/><path d="m352.703125 477.957031c-66.746094 0-121.042969-54.300781-121.042969-121.042969 0-66.742187 54.296875-121.042968 121.042969-121.042968 66.742187 0 121.042969 54.300781 121.042969 121.042968 0 66.742188-54.300782 121.042969-121.042969 121.042969zm0-226.417969c-58.105469 0-105.378906 47.269532-105.378906 105.375 0 58.105469 47.273437 105.378907 105.378906 105.378907s105.375-47.273438 105.375-105.378907c0-58.105468-47.269531-105.375-105.375-105.375zm0 0" fill="#17a3ce"/><path d="m393.957031 372.578125h-41.253906c-8.652344 0-15.664063-7.011719-15.664063-15.664063v-70.488281c0-8.652343 7.011719-15.664062 15.664063-15.664062 8.648437 0 15.664063 7.011719 15.664063 15.664062v54.824219h25.589843c8.648438 0 15.664063 7.015625 15.664063 15.664062 0 8.652344-7.011719 15.664063-15.664063 15.664063zm0 0" fill="#5b5b68"/><path d="m120.871094 244.488281c-3.792969 0-7.382813-1.820312-9.621094-4.929687l-32.40625-45.050782c-3.824219-5.316406-2.613281-12.726562 2.703125-16.546874 5.316406-3.824219 12.722656-2.613282 16.546875 2.699218l20.894531 29.046875 27.617188-55.832031c2.902343-5.867188 10.011719-8.273438 15.882812-5.371094 5.867188 2.902344 8.273438 10.015625 5.371094 15.882813l-36.355469 73.503906c-1.847656 3.730469-5.511718 6.21875-9.65625 6.558594-.324218.027343-.652344.039062-.976562.039062zm0 0" fill="#fc315f"/><path d="m120.871094 390.472656c-3.792969 0-7.382813-1.820312-9.621094-4.933594l-32.40625-45.050781c-3.824219-5.316406-2.613281-12.722656 2.703125-16.546875 5.316406-3.824218 12.722656-2.613281 16.546875 2.703125l20.894531 29.046875 27.617188-55.832031c2.902343-5.871094 10.011719-8.277344 15.882812-5.371094 5.867188 2.902344 8.273438 10.011719 5.371094 15.882813l-36.355469 73.5c-1.847656 3.730468-5.511718 6.21875-9.65625 6.558594-.324218.03125-.652344.042968-.976562.042968zm0 0" fill="#fc315f"/><path d="m286.511719 197.46875h-89.285157c-4.324218 0-7.832031-3.507812-7.832031-7.832031s3.507813-7.832031 7.832031-7.832031h89.285157c4.324219 0 7.832031 3.507812 7.832031 7.832031s-3.507812 7.832031-7.832031 7.832031zm0 0" fill="#5b5b68"/></svg>