<?xml version="1.0" encoding="iso-8859-1"?>
<!-- Generator: Adobe Illustrator 19.0.0, SVG Export Plug-In . SVG Version: 6.00 Build 0)  -->
<svg version="1.1" id="Capa_1" xmlns="http://www.w3.org/2000/svg" xmlns:xlink="http://www.w3.org/1999/xlink" x="0px" y="0px"
	 viewBox="0 0 512.001 512.001" style="enable-background:new 0 0 512.001 512.001;" xml:space="preserve">
<circle style="fill:#3CB58B;" cx="255.769" cy="256" r="255.769"/>
<path style="fill:#F2F2F2;" d="M497.515,339.757C462.835,439.883,367.699,511.77,255.777,511.77
	c-41.007,0-79.758-9.646-114.115-26.798C88.817,383.99,46.568,277.663,15.656,167.703c-5.188-18.436-10.053-36.987-14.595-55.622
	C-3.866,91.87,8.839,71.555,29.165,67.097c24.585-5.387,49.16-10.784,73.745-16.181c68.64-15.054,137.27-30.118,205.91-45.172
	c7.068-1.545,14.125-3.101,21.192-4.646c11.442-2.505,22.8,0.553,31.266,7.423c6.076,4.907,10.659,11.776,12.695,19.94
	c0.063,0.251,0.125,0.512,0.198,0.762c9.792,39.117,21.432,77.691,34.889,115.576C432.957,212.165,462.553,277.381,497.515,339.757z
	"/>
<path style="fill:#D5D4E2;" d="M497.515,339.757C462.835,439.883,367.699,511.77,255.777,511.77
	c-41.007,0-79.758-9.646-114.115-26.798c-11.16-21.318-21.84-42.875-32.039-64.652c10.168,7.099,20.869,13.477,32.039,19.052
	c34.357,17.152,73.108,26.798,114.115,26.798c101.932,0,189.948-59.631,231.038-145.914
	C490.322,326.792,493.893,333.285,497.515,339.757z"/>
<g>
	<path style="fill:#33384A;" d="M80.387,188.43c-6.723,0-12.938-4.364-14.984-11.132c-2.502-8.279,2.179-17.019,10.457-19.521
		l269.341-81.429c8.282-2.502,17.019,2.18,19.521,10.457c2.502,8.279-2.179,17.019-10.457,19.521L84.924,187.755
		C83.413,188.212,81.887,188.43,80.387,188.43z"/>
	<path style="fill:#33384A;" d="M120.066,282.386c-6.324,0-12.28-3.858-14.65-10.124c-3.059-8.09,1.019-17.127,9.109-20.186
		l248.462-93.956c8.088-3.06,17.127,1.019,20.186,9.109c3.059,8.09-1.019,17.127-9.109,20.186L125.602,281.37
		C123.778,282.059,121.906,282.386,120.066,282.386z"/>
</g>
<path style="fill:#CBCBD3;" d="M166.529,383.649c-5.891,0-11.534-3.34-14.195-9.028c-3.664-7.834-0.285-17.155,7.549-20.82
	l153.984-72.033c7.833-3.664,17.154-0.285,20.82,7.549c3.664,7.834,0.285,17.155-7.549,20.82l-153.984,72.033
	C171.009,383.174,168.75,383.649,166.529,383.649z"/>
<path style="fill:#CF3067;" d="M509.66,115.47l-0.085,0.057c3.162,7.1,3.366,15.461-0.178,23.052l-52.995,113.477l-53.048,113.589
	c-6.487,13.89-23.015,19.895-36.904,13.408l-108.677-50.754c-7.08-3.307-12.097-9.243-14.465-16.089l-0.023,0.008l-14.661-40.355
	l38.357-28.872l43.843-93.879l39.602-84.778c6.483-13.901,22.998-19.902,36.892-13.403l83.238,38.863l23.383-17.605L509.66,115.47z"
	/>
<path style="fill:#F14881;" d="M494.096,96.469l-52.991,113.49l-53.052,113.577c-6.483,13.901-23.011,19.906-36.904,13.408
	L242.477,286.2c-13.894-6.499-19.895-23.015-13.408-36.904l53.048-113.589l53.008-113.481c6.483-13.901,22.998-19.902,36.892-13.403
	L480.69,59.566C494.583,66.062,500.583,82.579,494.096,96.469z"/>
<path style="fill:#2176C4;" d="M441.105,209.957l15.295,42.098l-53.048,113.589c-6.487,13.89-23.015,19.895-36.904,13.408
	l-108.677-50.754c-7.08-3.307-12.097-9.243-14.465-16.089l-0.023,0.008l-14.661-40.355l38.357-28.872l43.843-93.879L441.105,209.957
	z"/>
<path style="fill:#55ACE5;" d="M441.105,209.957l-53.052,113.577c-6.483,13.901-23.011,19.906-36.904,13.408l-108.673-50.743
	c-13.894-6.499-19.895-23.015-13.408-36.904l53.048-113.589L441.105,209.957z"/>
<g>
</g>
<g>
</g>
<g>
</g>
<g>
</g>
<g>
</g>
<g>
</g>
<g>
</g>
<g>
</g>
<g>
</g>
<g>
</g>
<g>
</g>
<g>
</g>
<g>
</g>
<g>
</g>
<g>
</g>
</svg>
