<svg id="Capa_1" enable-background="new 0 0 512 512" height="512" viewBox="0 0 512 512" width="512" xmlns="http://www.w3.org/2000/svg"><g><g><path d="m245 11c-135.31 0-245 109.69-245 245 0 15.402 1.436 30.467 4.155 45.082l31.183 30.38-3.786 44.864c42.044 74.423 121.872 124.674 213.448 124.674 135.31 0 245-109.69 245-245s-109.69-245-245-245z" fill="#ffdd40"/></g><g><circle cx="235.337" cy="248.618" fill="#ffc839" r="200"/></g><g><g><path d="m265 451c0-11.046 8.954-20 20-20h167c11.046 0 20 8.954 20 20 0 11.046-8.954 20-20 20h-167c-11.046 0-20-8.954-20-20z" fill="#47477f"/></g><g><path d="m325 451c0-11.046 8.954-20 20-20h-60c-11.046 0-20 8.954-20 20 0 11.046 8.954 20 20 20h60c-11.046 0-20-8.954-20-20z" fill="#3b3868"/></g><g><path d="m225 481c0-11.046 8.954-20 20-20h247c11.046 0 20 8.954 20 20 0 11.046-8.954 20-20 20h-247c-11.046 0-20-8.954-20-20z" fill="#5f5f9b"/></g><g><path d="m285 481c0-11.046 8.954-20 20-20h-60c-11.046 0-20 8.954-20 20 0 11.046 8.954 20 20 20h60c-11.046 0-20-8.954-20-20z" fill="#47477f"/></g></g><g><g><path d="m184.838 131.901h230v180h-230z" fill="#9b6642" transform="matrix(-.383 -.924 .924 -.383 209.572 583.834)"/></g><g><path d="m129.406 214.862h230v60h-230z" fill="#875431" transform="matrix(-.383 -.924 .924 -.383 111.712 564.368)"/></g><g><path d="m173.665 230.868 30.615 73.91 194.015-80.364c20.41-8.454 30.102-31.853 21.648-52.262-8.454-20.41-31.853-30.102-52.262-21.648z" fill="#ac7752"/></g><g><path d="m31.551 376.325 172.729-71.547-30.615-73.91-169.51 70.214c5 26.882 14.388 52.218 27.396 75.243z" fill="#5f5f9b"/></g><g><path d="m31.551 376.325 172.729-71.547-15.307-36.955-174.198 72.155c4.61 12.637 10.242 24.781 16.776 36.347z" fill="#47477f"/></g><g><path d="m235.167 248.689c8.454 20.41 31.853 30.102 52.263 21.648l-83.149 34.442-30.615-73.91 83.149-34.442c-20.41 8.454-30.102 31.852-21.648 52.262z" fill="#9b6642"/></g><g><path d="m210.02 318.637c7.654-3.17 11.288-11.945 8.118-19.598l-30.615-73.91c-3.17-7.654-11.945-11.288-19.598-8.118-7.654 3.17-11.288 11.945-8.118 19.598l30.615 73.91c3.17 7.653 11.945 11.288 19.598 8.118z" fill="#e9efff"/></g><g><path d="m194.713 281.681c7.654-3.17 11.288-11.945 8.118-19.598l15.307 36.955c3.17 7.654-.464 16.428-8.118 19.598s-16.428-.464-19.598-8.118l-15.307-36.955c3.17 7.654 11.944 11.289 19.598 8.118z" fill="#d3dcfb"/></g><g><path d="m323.407 60.604c-4.227-10.205-15.926-15.051-26.131-10.824l-117.333 48.601c-10.205 4.227-15.051 15.926-10.824 26.131 4.227 10.205 15.926 15.051 26.131 10.824l117.333-48.601c10.205-4.227 15.051-15.926 10.824-26.131z" fill="#9b6642"/></g><g><path d="m224.551 101.551c4.227 10.205 15.926 15.051 26.131 10.824l-55.433 22.961c-10.205 4.227-21.904-.619-26.131-10.824s.619-21.904 10.824-26.131l55.433-22.961c-10.204 4.227-15.051 15.926-10.824 26.131z" fill="#875431"/></g><g><path d="m430.558 319.29c-4.227-10.205-15.926-15.051-26.131-10.824l-117.333 48.601c-10.205 4.227-15.051 15.926-10.824 26.131 4.227 10.205 15.926 15.051 26.131 10.824l117.333-48.601c10.205-4.227 15.051-15.926 10.824-26.131z" fill="#9b6642"/></g><g><path d="m331.703 360.237c4.227 10.205 15.926 15.051 26.131 10.824l-55.433 22.961c-10.205 4.227-21.904-.619-26.131-10.824s.619-21.904 10.824-26.131l55.433-22.961c-10.205 4.227-15.051 15.926-10.824 26.131z" fill="#875431"/></g><g><path d="m158.822 155.837c3.17 7.654 11.945 11.288 19.598 8.118l166.298-68.883c7.654-3.17 11.288-11.945 8.118-19.598-3.17-7.654-11.945-11.288-19.598-8.118l-166.298 68.882c-7.653 3.171-11.288 11.945-8.118 19.599z" fill="#ac7752"/></g><g><path d="m214.255 132.876c3.17 7.654 11.945 11.288 19.598 8.118l-55.433 22.961c-7.654 3.17-16.428-.464-19.598-8.118s.464-16.428 8.118-19.598l55.433-22.961c-7.654 3.17-11.288 11.944-8.118 19.598z" fill="#9b6642"/></g><g><path d="m246.84 368.329c3.17 7.654 11.945 11.288 19.598 8.118l166.298-68.883c7.654-3.17 11.288-11.945 8.118-19.598-3.17-7.654-11.945-11.288-19.598-8.118l-166.298 68.883c-7.654 3.17-11.289 11.944-8.118 19.598z" fill="#ac7752"/></g><g><path d="m302.272 345.368c3.17 7.654 11.945 11.288 19.598 8.118l-55.433 22.961c-7.654 3.17-16.428-.464-19.598-8.118s.464-16.428 8.118-19.598l55.433-22.961c-7.653 3.17-11.288 11.944-8.118 19.598z" fill="#9b6642"/></g></g></g></svg>