<svg id="Capa_1" enable-background="new 0 0 512 512" height="512" viewBox="0 0 512 512" width="512" xmlns="http://www.w3.org/2000/svg"><g><path d="m512 256c0 141.385-114.615 256-256 256s-256-114.615-256-256 114.615-256 256-256 256 114.615 256 256z" fill="#bb7bb9"/><path d="m482.5 254v121.415c-9.242 17.493-20.451 33.786-33.332 48.585h-362.338c-5.523 0-10-4.477-10-10v-147.564h-46.83c-16.569 0-30-13.431-30-30v-140c0-16.568 13.431-30 30-30h252c16.569 0 30 13.432 30 30v140c0 2.613-.334 5.147-.962 7.564h161.462c5.523 0 10 4.477 10 10z" fill="#af65ad"/><path d="m406.949 105.127 5.088 10.309c.449.909 1.316 1.539 2.319 1.685l11.376 1.653c2.527.367 3.536 3.472 1.707 5.255l-8.232 8.024c-.726.708-1.057 1.727-.886 2.727l1.943 11.33c.432 2.517-2.21 4.436-4.47 3.247l-10.175-5.349c-.897-.472-1.97-.472-2.867 0l-10.175 5.349c-2.26 1.188-4.901-.731-4.47-3.247l1.943-11.33c.171-.999-.16-2.019-.886-2.727l-8.232-8.024c-1.828-1.782-.819-4.887 1.707-5.255l11.376-1.653c1.003-.146 1.871-.776 2.319-1.685l5.088-10.309c1.132-2.29 4.397-2.29 5.527 0z" fill="#d2a8d1"/><path d="m69.894 230h-39.894c-16.569 0-30-13.431-30-30v-140c0-16.569 13.431-30 30-30h39.894c16.569 0 30 13.431 30 30v140c0 16.569-13.432 30-30 30z" fill="#c2eaf2"/><path d="m282 230h-221.043c-16.569 0-30-13.431-30-30v-140c0-16.569 13.431-30 30-30h221.043c16.569 0 30 13.431 30 30v140c0 16.569-13.431 30-30 30z" fill="#def4f8"/><path d="m46 85c0-4.142 3.358-7.5 7.5-7.5h205c4.142 0 7.5 3.358 7.5 7.5s-3.358 7.5-7.5 7.5h-205c-4.142 0-7.5-3.358-7.5-7.5zm212.5 22.5h-205c-4.142 0-7.5 3.358-7.5 7.5s3.358 7.5 7.5 7.5h205c4.142 0 7.5-3.358 7.5-7.5s-3.358-7.5-7.5-7.5zm0 30h-205c-4.142 0-7.5 3.358-7.5 7.5s3.358 7.5 7.5 7.5h205c4.142 0 7.5-3.358 7.5-7.5s-3.358-7.5-7.5-7.5zm0 30h-205c-4.142 0-7.5 3.358-7.5 7.5s3.358 7.5 7.5 7.5h205c4.142 0 7.5-3.358 7.5-7.5s-3.358-7.5-7.5-7.5z" fill="#a6e0ec"/><path d="m46 85.5c0-4.142 3.358-7.5 7.5-7.5h65c4.142 0 7.5 3.358 7.5 7.5s-3.358 7.5-7.5 7.5h-65c-4.142 0-7.5-3.358-7.5-7.5zm106.5 52.5h-99c-4.142 0-7.5 3.358-7.5 7.5s3.358 7.5 7.5 7.5h99c4.142 0 7.5-3.358 7.5-7.5s-3.358-7.5-7.5-7.5zm-70 30h-29c-4.142 0-7.5 3.358-7.5 7.5 0 4.142 3.358 7.5 7.5 7.5h29c4.142 0 7.5-3.358 7.5-7.5 0-4.142-3.358-7.5-7.5-7.5z" fill="#60c8dd"/><path d="m230 115.5c0 4.142-3.358 7.5-7.5 7.5h-169c-4.142 0-7.5-3.358-7.5-7.5 0-4.142 3.358-7.5 7.5-7.5h169c4.142 0 7.5 3.358 7.5 7.5z" fill="#fb5858"/><path d="m316.041 74.893 7.443 15.081c.656 1.33 1.925 2.252 3.393 2.465l16.642 2.418c3.696.537 5.172 5.08 2.498 7.687l-12.043 11.739c-1.062 1.035-1.547 2.527-1.296 3.989l2.843 16.575c.631 3.681-3.233 6.489-6.539 4.751l-14.885-7.826c-1.313-.69-2.881-.69-4.194 0l-14.885 7.826c-3.306 1.738-7.17-1.069-6.539-4.751l2.843-16.575c.251-1.462-.234-2.954-1.296-3.989l-12.043-11.739c-2.675-2.607-1.199-7.15 2.498-7.687l16.642-2.418c1.468-.213 2.737-1.135 3.393-2.465l7.443-15.081c1.653-3.349 6.429-3.349 8.082 0z" fill="#ffc14f"/><path d="m335.521 134.847c.631 3.682-3.233 6.489-6.539 4.751l-14.885-7.826c-1.313-.69-2.881-.69-4.194 0l-14.885 7.826c-3.306 1.738-7.17-1.069-6.539-4.751l2.843-16.575c.251-1.462-.234-2.953-1.296-3.989l-12.042-11.739c-2.675-2.607-1.199-7.149 2.498-7.687l16.642-2.418c.197-.029.391-.071.58-.124 0 .062-.001.123-.001.185 0 17.244 13.979 31.224 31.223 31.224 1.573 0 3.119-.117 4.629-.342z" fill="#ffa90b"/><path d="m512 219v150c0 8.284-6.716 15-15 15h-254.685c-2.259 0-4.348 1.2-5.486 3.151l-42.99 73.697c-1.139 1.952-3.228 3.152-5.487 3.152-3.508 0-6.352-2.844-6.352-6.352v-67.297c0-3.508-2.844-6.352-6.352-6.352h-34.712c-8.284 0-15-6.716-15-15v-149.999c0-8.284 6.716-15 15-15h356.064c8.284 0 15 6.716 15 15z" fill="#ffc14f"/><path d="m160.406 384h-33.406c-8.284 0-15-6.716-15-15v-150c0-8.284 6.716-15 15-15h33.406c-8.284 0-15 6.716-15 15v150c0 8.284 6.715 15 15 15z" fill="#ffa90b"/><path d="m282.208 332.5c0 4.142-3.358 7.5-7.5 7.5h-97.208c-4.142 0-7.5-3.358-7.5-7.5s3.358-7.5 7.5-7.5h97.208c4.143 0 7.5 3.358 7.5 7.5zm69.117-37.5h-173.825c-4.142 0-7.5 3.358-7.5 7.5s3.358 7.5 7.5 7.5h173.825c4.142 0 7.5-3.358 7.5-7.5s-3.357-7.5-7.5-7.5z" fill="#fff79f"/><path d="m282.208 257.5c0 4.142-3.358 7.5-7.5 7.5h-97.208c-4.142 0-7.5-3.358-7.5-7.5s3.358-7.5 7.5-7.5h97.208c4.143 0 7.5 3.358 7.5 7.5z" fill="#fff"/><path d="m437.716 240.006 13.628 27.613c.583 1.181 1.709 1.999 3.012 2.188l30.473 4.428c3.281.477 4.591 4.509 2.217 6.823l-22.051 21.494c-.943.919-1.373 2.243-1.15 3.541l5.205 30.35c.56 3.268-2.869 5.759-5.804 4.217l-27.256-14.33c-1.165-.613-2.557-.613-3.723 0l-27.256 14.329c-2.935 1.543-6.364-.949-5.804-4.217l5.205-30.35c.223-1.298-.208-2.622-1.15-3.541l-22.051-21.494c-2.374-2.314-1.064-6.346 2.217-6.823l30.473-4.428c1.303-.189 2.429-1.008 3.012-2.188l13.628-27.613c1.468-2.972 5.708-2.972 7.175.001z" fill="#fff79f"/><path d="m487.046 281.059-22.051 21.494c-.943.919-1.373 2.243-1.15 3.541l1.674 9.759c-23.426-7.384-42.716-24.09-53.517-45.769l1.901-.276c1.303-.189 2.429-1.007 3.012-2.188l13.628-27.613c1.467-2.973 5.707-2.973 7.174 0l13.628 27.613c.583 1.181 1.709 1.999 3.012 2.188l30.473 4.428c3.28.476 4.59 4.509 2.216 6.823z" fill="#fffac1"/><path d="m367.966 174.246 6.112 12.385c.539 1.092 1.581 1.849 2.787 2.025l13.667 1.986c3.036.441 4.248 4.172 2.051 6.313l-9.89 9.64c-.872.85-1.27 2.075-1.064 3.276l2.335 13.612c.519 3.023-2.655 5.329-5.37 3.901l-12.224-6.427c-1.078-.567-2.366-.567-3.444 0l-12.224 6.427c-2.715 1.427-5.888-.878-5.37-3.901l2.335-13.612c.206-1.201-.192-2.426-1.064-3.276l-9.89-9.64c-2.197-2.141-.984-5.872 2.051-6.313l13.667-1.986c1.205-.175 2.247-.932 2.787-2.025l6.112-12.385c1.356-2.75 5.278-2.75 6.636 0z" fill="#ffd993"/></g></svg>