<svg id="Capa_1" enable-background="new 0 0 512 512" height="512" viewBox="0 0 512 512" width="512" xmlns="http://www.w3.org/2000/svg"><g><path d="m512 256c0 141.385-114.615 256-256 256s-256-114.615-256-256 114.615-256 256-256 256 114.615 256 256z" fill="#3d4ec6"/><path d="m338.183 262.539-50.167 86c-1.792 3.072-5.081 4.961-8.638 4.961h-224.256c-5.523 0-10-4.477-10-10v-172c0-5.523 4.477-10 10-10h224.256c3.557 0 6.846 1.889 8.638 4.961l50.167 86c1.816 3.114 1.816 6.964 0 10.078z" fill="#2b3894"/><path d="m402.513 166.019-53.083 91c-.896 1.536-2.541 2.481-4.319 2.481h-232.128c-2.761 0-5-2.239-5-5v-182c0-2.761 2.239-5 5-5h232.128c1.778 0 3.423.945 4.319 2.481l53.083 91c.908 1.556.908 3.481 0 5.038z" fill="#40c1fa"/><path d="m142.087 259.5h-29.105c-2.761 0-5-2.239-5-5v-182c0-2.761 2.239-5 5-5h29.105c-2.761 0-5 2.239-5 5v182c0 2.761 2.239 5 5 5z" fill="#07a9f0"/><path d="m404.017 290.684v182c0 2.761-2.239 5-5 5h-232.128c-1.778 0-3.423-.945-4.319-2.481l-53.083-91c-.908-1.557-.908-3.482 0-5.039l53.083-91c.896-1.536 2.541-2.481 4.319-2.481h232.128c2.762.001 5 2.239 5 5.001z" fill="#f5e8b4"/><path d="m200.171 477.684h-33.282c-1.778 0-3.423-.945-4.319-2.481l-53.083-91c-.908-1.557-.908-3.482 0-5.039l53.083-91c.896-1.536 2.541-2.481 4.319-2.481h33.282c-1.778 0-3.423.945-4.319 2.481l-53.083 91c-.908 1.557-.908 3.482 0 5.039l53.083 91c.896 1.536 2.54 2.481 4.319 2.481z" fill="#edd578"/><path d="m201.257 350.434c0-4.142 3.358-7.5 7.5-7.5h112.787c4.142 0 7.5 3.358 7.5 7.5s-3.358 7.5-7.5 7.5h-112.787c-4.142 0-7.5-3.358-7.5-7.5zm120.287 23.75h-112.787c-4.142 0-7.5 3.358-7.5 7.5s3.358 7.5 7.5 7.5h112.787c4.142 0 7.5-3.358 7.5-7.5s-3.358-7.5-7.5-7.5zm0 31.25h-112.787c-4.142 0-7.5 3.358-7.5 7.5s3.358 7.5 7.5 7.5h112.787c4.142 0 7.5-3.358 7.5-7.5s-3.358-7.5-7.5-7.5z" fill="#edd578"/><path d="m182.527 132.25c0-4.142 3.358-7.5 7.5-7.5h112.787c4.142 0 7.5 3.358 7.5 7.5s-3.358 7.5-7.5 7.5h-112.787c-4.142 0-7.5-3.358-7.5-7.5zm120.287 23.75h-112.787c-4.142 0-7.5 3.358-7.5 7.5s3.358 7.5 7.5 7.5h112.787c4.142 0 7.5-3.358 7.5-7.5s-3.358-7.5-7.5-7.5zm0 31.25h-112.787c-4.142 0-7.5 3.358-7.5 7.5s3.358 7.5 7.5 7.5h112.787c4.142 0 7.5-3.358 7.5-7.5s-3.358-7.5-7.5-7.5z" fill="#b4e7fd"/><path d="m196.985 160.417c-18.563 30.971-52.491 51.677-91.248 51.583-58.036-.142-105.595-47.701-105.737-105.736-.094-38.821 20.681-72.797 51.737-91.34 1.797-1.073 3.9.804 3.063 2.723-5.728 13.126-8.874 27.636-8.799 42.889.286 57.838 47.625 105.178 105.463 105.463 15.19.075 29.642-3.045 42.725-8.727 1.972-.857 3.9 1.301 2.796 3.145z" fill="#e5554e"/><path d="m212 106c0 20.303-5.708 39.273-15.608 55.393-16.119 9.899-35.089 15.607-55.392 15.607-58.542 0-106-47.458-106-106 0-20.303 5.708-39.273 15.608-55.393 16.119-9.899 35.089-15.607 55.392-15.607 58.542 0 106 47.458 106 106z" fill="#f76c57"/><path d="m160.801 145.823c-1.464 1.464-3.384 2.196-5.303 2.196s-3.839-.732-5.303-2.196c-11.816-11.816-27.511-18.323-44.195-18.323s-32.379 6.507-44.194 18.323c-2.929 2.928-7.678 2.928-10.606 0-2.929-2.93-2.929-7.678 0-10.607 14.648-14.649 34.11-22.716 54.8-22.716s40.152 8.067 54.801 22.716c2.929 2.93 2.929 7.678 0 10.607zm-100.717-70.663c2.247-.202 4.205.404 5.503 1.703 1.299 1.298 1.904 3.253 1.704 5.503-.366 4.126 2.681 7.769 6.807 8.135.226.02.45.029.672.029 3.842 0 7.115-2.937 7.462-6.836.591-6.654-1.61-13.01-6.039-17.438-4.428-4.429-10.784-6.631-17.438-6.038-4.126.367-7.173 4.009-6.807 8.135.367 4.126 4.016 7.156 8.136 6.807zm77.147 15.37c.223 0 .447-.01.672-.029 4.126-.366 7.173-4.009 6.807-8.135-.2-2.25.405-4.205 1.704-5.503 1.298-1.299 3.255-1.906 5.503-1.703 4.125.353 7.768-2.681 8.135-6.807s-2.681-7.768-6.807-8.135c-6.649-.591-13.009 1.61-17.438 6.038s-6.629 10.783-6.039 17.438c.347 3.9 3.62 6.837 7.463 6.836z" fill="#af3030"/><path d="m496.984 378.601c-18.563 30.971-52.491 51.677-91.248 51.583-58.035-.142-105.594-47.701-105.736-105.736-.094-38.821 20.681-72.797 51.737-91.34 1.797-1.073 3.9.804 3.063 2.722-5.728 13.126-8.874 27.636-8.799 42.889.286 57.838 47.625 105.178 105.463 105.464 15.19.075 29.642-3.045 42.725-8.728 1.972-.856 3.9 1.302 2.795 3.146z" fill="#e9cc5a"/><path d="m512 324.184c0 20.303-5.708 39.273-15.608 55.393-16.12 9.899-35.089 15.607-55.392 15.607-58.542 0-106-47.458-106-106 0-20.303 5.708-39.273 15.608-55.392 16.12-9.899 35.089-15.608 55.392-15.608 58.542 0 106 47.458 106 106z" fill="#fff36c"/><path d="m460.801 342.88c2.929 2.93 2.929 7.678 0 10.607-14.648 14.648-34.11 22.716-54.801 22.716-20.69 0-40.152-8.067-54.801-22.716-2.929-2.93-2.929-7.678 0-10.607 2.929-2.928 7.678-2.928 10.606 0 11.815 11.816 27.511 18.323 44.194 18.323 16.684 0 32.379-6.507 44.194-18.323 2.93-2.928 7.679-2.928 10.608 0zm-109.339-43.57c3.177 2.657 7.907 2.238 10.565-.938 1.45-1.733 3.26-2.688 5.096-2.688s3.646.954 5.097 2.688c1.483 1.772 3.612 2.687 5.755 2.687 1.698 0 3.405-.573 4.81-1.748 3.176-2.658 3.597-7.389.938-10.565-4.287-5.122-10.337-8.061-16.6-8.061-6.262 0-12.313 2.938-16.599 8.061-2.658 3.175-2.238 7.905.938 10.564zm77.753 0c3.177 2.657 7.907 2.238 10.565-.938 1.45-1.733 3.26-2.688 5.097-2.688 1.836 0 3.646.954 5.096 2.688 1.483 1.772 3.612 2.687 5.755 2.687 1.698 0 3.406-.573 4.81-1.748 3.176-2.658 3.597-7.389.938-10.565-4.287-5.122-10.337-8.061-16.599-8.061-6.263 0-12.313 2.938-16.6 8.061-2.659 3.175-2.238 7.905.938 10.564z" fill="#c1924d"/></g></svg>