<svg height="512" viewBox="0 0 64 64" width="512" xmlns="http://www.w3.org/2000/svg"><g id="Cyber_Monday_flat_4" data-name="Cyber Monday flat 4"><g id="_27_Gift" data-name="27_Gift"><path d="m51 34v14h-36v-27h36v7z" fill="#f4b400"/><path d="m18 20h-3v27h36v-3h-9a24 24 0 0 1 -24-24z" fill="#f29500"/><path d="m15 21h36v2h-36z" fill="#f29500"/><path d="m30 21h6v26h-6z" fill="#db4437"/><path d="m30 47h6v-3.756a23.807 23.807 0 0 1 -6-2.463z" fill="#c62e26"/><path d="m30 21h6v2h-6z" fill="#c62e26"/><path d="m32 3a5 5 0 0 1 5 5v5a0 0 0 0 1 0 0h-10a0 0 0 0 1 0 0v-5a5 5 0 0 1 5-5z" fill="#db4437"/><path d="m32 3a5 5 0 0 1 5 5v5a0 0 0 0 1 0 0h-10a0 0 0 0 1 0 0v-5a5 5 0 0 1 5-5z" fill="#f4b400"/><path d="m32 3a5 5 0 0 1 5 5v5a0 0 0 0 1 0 0h-10a0 0 0 0 1 0 0v-5a5 5 0 0 1 5-5z" fill="#a51e1b"/><ellipse cx="42" cy="8" fill="#db4437" rx="8.394" ry="5.246" transform="matrix(.707 -.707 .707 .707 6.644 32.041)"/><path d="m37.31 14.725c2.256.85 5.687-.3 8.4-3.011a11.375 11.375 0 0 0 3.074-5.193c-2.255-.85-5.686.3-8.4 3.011a11.375 11.375 0 0 0 -3.074 5.193z" fill="#a51e1b"/><ellipse cx="23" cy="8" fill="#db4437" rx="5.246" ry="8.394" transform="matrix(.707 -.707 .707 .707 1.08 18.607)"/><path d="m27.69 14.725c-2.256.85-5.687-.3-8.4-3.011a11.375 11.375 0 0 1 -3.074-5.193c2.255-.85 5.686.3 8.4 3.011a11.375 11.375 0 0 1 3.074 5.193z" fill="#a51e1b"/><path d="m41 21h-30v-8h44v8h-7.983" fill="#f4b400"/><path d="m28 13h10v8h-10z" fill="#db4437"/><path d="m24 47h5.929a3.988 3.988 0 0 0 3.988-3.988v-.012a4 4 0 0 0 -4-4h-13.917l-5 5-2 .012v16.988l12.033-.026 26.521-8.6a.982.982 0 0 0 .443-.3l10.793-12.705a.763.763 0 0 0 -.1-1.086 5.71 5.71 0 0 0 -7.8.589l-7.42 8.112-.036.016h-15.434" fill="#f0d0b4"/><path d="m58.256 38-10.256 12.076a.982.982 0 0 1 -.443.3l-26.521 8.6-12.036.024v2l12.033-.026 26.521-8.6a.982.982 0 0 0 .443-.3l10.793-12.705a.763.763 0 0 0 -.1-1.086c-.138-.111-.29-.189-.434-.283z" fill="#ecc19c"/><path d="m1 49v-7h8v21h-8v-6z" fill="#4285f4"/><path d="m4 49v-7h-3v7 8 6h3v-6z" fill="#2b69b2"/><g fill="#db4437"><path d="m58 16h5v2h-5z"/><path d="m57.275 11.25h4.95v2h-4.95z" transform="matrix(.707 -.707 .707 .707 8.838 45.838)"/><path d="m58.75 19.275h2v4.95h-2z" transform="matrix(.707 -.707 .707 .707 2.121 48.62)"/><path d="m3 16h5v2h-5z"/><path d="m3.775 20.75h4.95v2h-4.95z" transform="matrix(.707 -.707 .707 .707 -13.549 10.79)"/><path d="m5.25 9.775h2v4.95h-2z" transform="matrix(.707 -.707 .707 .707 -6.831 8.007)"/></g></g></g></svg>