<svg height="464pt" viewBox="0 0 464 464" width="464pt" xmlns="http://www.w3.org/2000/svg"><path d="m276.984375 80.390625c-8.117187-1.296875-16.417969.640625-23.121094 5.394531-1.855469 1.378906-4.089843 2.152344-6.398437 2.214844h-5.066406c-5.742188 0-10.398438-4.65625-10.398438-10.398438v-77.601562h-184c-26.507812 0-48 21.492188-48 48v184h69.601562c5.742188 0 10.398438-4.65625 10.398438-10.398438v-5.050781c-.0625-2.308593-.835938-4.542969-2.214844-6.398437-4.746094-6.695313-6.683594-14.984375-5.402344-23.089844 3.035157-15.96875 17.164063-27.410156 33.417969-27.0625h12.4375c16.226563-.339844 30.324219 11.078125 33.371094 27.015625 1.296875 8.117187-.640625 16.417969-5.394531 23.121094-1.378906 1.855469-2.152344 4.089843-2.214844 6.398437v5.066406c0 5.742188 4.65625 10.398438 10.398438 10.398438h77.601562v-69.601562c0-5.742188 4.65625-10.398438 10.398438-10.398438h5.050781c2.308593.0625 4.542969.835938 6.398437 2.214844 6.703125 4.753906 15.003906 6.691406 23.121094 5.394531 15.945312-3.039063 27.367188-17.140625 27.03125-33.371094v-12.476562c.339844-16.226563-11.078125-30.324219-27.015625-33.371094zm0 0" fill="#f35244"/><path d="m187.015625 312.390625c8.117187-1.296875 16.417969.640625 23.121094 5.394531 1.855469 1.378906 4.089843 2.152344 6.398437 2.214844h5.066406c5.742188 0 10.398438-4.65625 10.398438-10.398438v-77.601562h-77.601562c-5.742188 0-10.398438-4.65625-10.398438-10.398438v-5.050781c.0625-2.308593.835938-4.542969 2.214844-6.398437 4.753906-6.703125 6.691406-15.003906 5.394531-23.121094-3.039063-15.945312-17.140625-27.367188-33.371094-27.03125h-12.4375c-16.25-.351562-30.375 11.082031-33.417969 27.046875-1.28125 8.105469.65625 16.394531 5.402344 23.089844 1.378906 1.855469 2.152344 4.089843 2.214844 6.398437v5.066406c0 5.742188-4.65625 10.398438-10.398438 10.398438h-69.601562v184c0 26.507812 21.492188 48 48 48h184v-69.601562c0-5.742188-4.65625-10.398438-10.398438-10.398438h-5.050781c-2.308593.0625-4.542969.835938-6.398437 2.214844-6.703125 4.753906-15.003906 6.691406-23.121094 5.394531-15.945312-3.039063-27.367188-17.140625-27.03125-33.371094v-12.476562c-.339844-16.226563 11.078125-30.324219 27.015625-33.371094zm0 0" fill="#348fd9"/><path d="m376 242.398438v5.050781c.0625 2.308593.835938 4.542969 2.214844 6.398437 4.753906 6.703125 6.691406 15.003906 5.394531 23.121094-3.039063 15.945312-17.140625 27.367188-33.371094 27.03125h-12.476562c-16.226563.339844-30.324219-11.078125-33.371094-27.015625-1.296875-8.117187.640625-16.417969 5.394531-23.121094 1.378906-1.855469 2.152344-4.089843 2.214844-6.398437v-5.066406c0-5.742188-4.65625-10.398438-10.398438-10.398438h-69.601562v77.601562c0 5.742188-4.65625 10.398438-10.398438 10.398438h-5.050781c-2.308593-.0625-4.542969-.835938-6.398437-2.214844-6.703125-4.753906-15.003906-6.691406-23.121094-5.394531-15.945312 3.039063-27.367188 17.140625-27.03125 33.371094v12.476562c-.339844 16.226563 11.078125 30.324219 27.015625 33.371094 8.117187 1.296875 16.417969-.640625 23.121094-5.394531 1.855469-1.378906 4.089843-2.152344 6.398437-2.214844h5.066406c5.742188 0 10.398438 4.65625 10.398438 10.398438v69.601562h184c26.507812 0 48-21.492188 48-48v-184h-77.601562c-5.742188 0-10.398438 4.65625-10.398438 10.398438zm0 0" fill="#ffb531"/><path d="m24 40h16v16h-16zm0 0" fill="#fc685b"/><path d="m24 72h16v88h-16zm0 0" fill="#fc685b"/><path d="m221.601562 384h-5.042968c-2.308594.0625-4.542969.835938-6.398438 2.214844-6.703125 4.753906-15.003906 6.691406-23.121094 5.394531-1.953124-.300781-3.871093-.796875-5.726562-1.480469-1.324219-.527344-2.613281-1.148437-3.847656-1.855468-58.277344 13.714843-117.671875 22.15625-177.464844 25.222656v2.503906c0 26.507812 21.492188 48 48 48h184v-69.601562c0-5.742188-4.65625-10.398438-10.398438-10.398438zm0 0" fill="#3086cd"/><path d="m177.441406 388.273438c1.234375.707031 2.519532 1.328124 3.847656 1.855468 1.855469.683594 3.773438 1.179688 5.726563 1.480469 8.117187 1.296875 16.417969-.640625 23.121094-5.394531 1.855469-1.378906 4.089843-2.152344 6.398437-2.214844h5.039063c2.765625-.007812 5.414062 1.085938 7.371093 3.039062 1.957032 1.949219 3.054688 4.597657 3.054688 7.359376v69.601562h184c26.507812 0 48-21.492188 48-48v-184h-12.414062c-67.53125 85.792969-173.089844 131.816406-274.144532 156.273438zm0 0" fill="#ffa912"/></svg>