<svg id="Capa_1" enable-background="new 0 0 512 512" height="512" viewBox="0 0 512 512" width="512" xmlns="http://www.w3.org/2000/svg"><g><path d="m512 256c0 57.359-18.864 110.311-50.726 152.993-46.676 62.525-363.871 62.525-410.547 0-31.863-42.682-50.727-95.634-50.727-152.993 0-141.385 114.615-256 256-256s256 114.615 256 256z" fill="#9dc6fb"/><path d="m444.475 62.44 16.795 27.86v318.69c-11.44 15.32-24.55 29.32-39.07 41.71-5.61 4.8-11.42 9.35-17.43 13.65-12.3 8.8-25.4 16.53-39.19 23.07-6.1 2.9-12.34 5.56-18.69 7.97-28.25 10.74-58.88 16.61-90.89 16.61-84.02 0-158.6-40.49-205.27-103.01v-346.55z" fill="#d9723e"/><path d="m121.58 62.44v411.46c-27.52-17.01-51.57-39.08-70.85-64.91v-346.55z" fill="#bd5423"/><path d="m461.268 106.79h-366.188c-24.493 0-44.349-19.856-44.349-44.349 0-24.493 19.856-44.349 44.349-44.349h366.188v20l-16.343 21.945 16.343 26.753z" fill="#e57e51"/><path d="m95.081 86.79c-13.426 0-24.349-10.923-24.349-24.349s10.923-24.349 24.349-24.349h366.188v48.698z" fill="#efebee"/><path d="m178.205 182.701-33.919-28.931-33.919 28.931v-121.71h67.838z" fill="#d82e3d"/><path d="m110.367 60.991h67.838v45.8h-67.838z" fill="#dd636e"/><g fill="#bd5423"><path d="m400.814 329.318c3.99-5.958 3.227-13.903-1.844-18.974l-5.146-5.146c-.158-.158-.32-.313-.484-.463-5.754-5.267-14.665-4.93-20.286.428-2.435-.949-5.328-2.862-7.282-6.714l3.857-3.857c3.752-3.752 3.752-9.836 0-13.588l-8.486-8.486c-3.464-3.464-8.913-3.727-12.683-.796-12.253-17.766-27.263-32.776-45.03-45.03 2.932-3.769 2.668-9.219-.796-12.683l-8.486-8.486c-3.752-3.752-9.836-3.752-13.588 0l-3.857 3.857c-3.852-1.954-5.765-4.847-6.714-7.282 5.358-5.621 5.695-14.532.428-20.286-.15-.164-.304-.325-.463-.484l-5.146-5.146c-5.07-5.07-13.016-5.834-18.974-1.844-24.033 16.096-44.682 36.745-60.778 60.778-3.99 5.958-3.227 13.903 1.844 18.974l5.146 5.146c.158.158.32.313.484.463 5.61 5.134 14.22 4.944 19.857-.033 2.44.946 5.346 2.858 7.307 6.723l-3.453 3.453c-3.752 3.752-3.752 9.836 0 13.588l8.486 8.486c3.464 3.464 8.913 3.727 12.683.796 2.858 4.143 5.865 8.136 9.023 11.98l-7.429 6.652-5.23 4.68-1.037-1.037c-5.181-5.181-13.582-5.181-18.763 0-5.18 5.18-5.181 13.576-.005 18.758l-4.954 4.433-70.254 62.881c-10.58 9.473-11.033 25.89-.992 35.932 10.041 10.041 26.458 9.588 35.926-.991l62.884-70.257 4.433-4.954c5.181 5.179 13.58 5.179 18.761-.002 5.181-5.181 5.181-13.582 0-18.763l-1.037-1.037 4.68-5.23 6.617-7.39c3.974 3.286 8.11 6.411 12.406 9.374-2.932 3.769-2.668 9.219.796 12.683l8.486 8.486c3.752 3.752 9.836 3.752 13.588 0l3.453-3.453c3.865 1.96 5.778 4.866 6.723 7.307-4.977 5.637-5.167 14.247-.033 19.857.15.164.304.325.463.484l5.146 5.146c5.07 5.07 13.016 5.834 18.974 1.844 24.033-16.095 44.683-36.744 60.779-60.777z"/><g><path d="m361.109 402.619c-1.288-1.288-2.24-2.943-2.672-4.85-1.224-5.386 2.151-10.744 7.536-11.967l56.328-12.791c5.385-1.224 10.743 2.152 11.966 7.536 1.224 5.386-2.151 10.744-7.537 11.966l-56.327 12.791c-3.479.791-6.945-.337-9.294-2.685z"/><path d="m422.2 450.7c-5.61 4.8-11.42 9.35-17.43 13.65l-53.71-25.43c-1.06-.51-2-1.18-2.79-1.97-2.9-2.9-3.82-7.42-1.97-11.35 2.37-4.99 8.33-7.12 13.32-4.76l60.83 28.8c.63.3 1.22.66 1.75 1.06z"/><path d="m365.58 487.42c-6.1 2.9-12.34 5.56-18.69 7.97l-18.85-28.81c-3.02-4.62-1.73-10.82 2.89-13.84 4.62-3.03 10.82-1.73 13.85 2.89z"/></g></g></g></svg>