<svg id="Layer_1" enable-background="new 0 0 510.47 510.47" height="512" viewBox="0 0 510.47 510.47" width="512" xmlns="http://www.w3.org/2000/svg"><g><path d="m225 90.235h-15c-115.794 0-210 94.205-210 210 0 115.794 94.206 210 210 210 5.046 0 10.044-.199 15-.553l10-116.447-10-108z" fill="#ff617d"/><path d="m225 285.235v224.447c10.216-.729 20.235-2.177 30-4.317 94.241-20.657 165-104.779 165-205.13v-15h-165z" fill="#e7374e"/><path d="m509.993 239.772c-2.025-65.607-27.842-126.263-72.693-170.791-44.654-44.332-104.025-68.746-167.18-68.746h-15v255h255.35z" fill="#ffda2d"/><g fill="#e9f1ff"><path d="m105 225.235h45v30h-45z"/><path d="m75 285.235h90v30h-90z"/></g></g></svg>