<svg id="Capa_1" enable-background="new 0 0 512 512" height="512" viewBox="0 0 512 512" width="512" xmlns="http://www.w3.org/2000/svg"><g><path d="m512 256c0 92.49-49.048 173.524-122.553 218.51-.484.296-266.41.296-266.893 0-73.506-44.986-122.554-126.02-122.554-218.51 0-104.314 62.391-194.056 151.892-233.945 69.023 35.584 150.841 37.693 221.38 6.325 82.396 42.538 138.728 128.5 138.728 227.62z" fill="#00aaf2"/><path d="m458.154 267.515c0 111.155-90.109 201.265-201.265 201.265s-201.264-90.11-201.264-201.265 90.109-201.265 201.265-201.265 201.264 90.109 201.264 201.265z" fill="#00c1fb"/><path d="m507.665 201.885c-5.96 10.8-17.458 18.115-30.665 18.115-19.271 0-35.001-15.729-35-35 0-13.207 7.315-24.705 18.115-30.664.464-.256.983.219.771.705-1.866 4.281-2.902 9.007-2.902 13.975 0 19.344 15.656 35 34.999 35 4.968 0 9.695-1.035 13.976-2.902.487-.212.962.307.706.771z" fill="#ff7117"/><path d="m512 185c0 6.123-1.572 11.879-4.335 16.885-5.007 2.763-10.763 4.335-16.885 4.335-19.33 0-35-15.67-35-35 0-6.123 1.572-11.879 4.335-16.885 5.006-2.763 10.762-4.335 16.885-4.335 19.33 0 35 15.67 35 35z" fill="#ff8835"/><path d="m65.665 389.268c-5.959 10.8-17.457 18.115-30.664 18.115-19.271 0-35.001-15.729-35-35 0-13.207 7.315-24.705 18.115-30.664.464-.256.983.219.771.705-1.866 4.281-2.902 9.007-2.902 13.975 0 19.344 15.656 35 34.999 35 4.968 0 9.695-1.035 13.976-2.902.486-.212.961.307.705.771z" fill="#00d1fc"/><path d="m70 372.383c0 6.123-1.572 11.878-4.335 16.885-5.007 2.763-10.763 4.335-16.885 4.335-19.33 0-35-15.67-35-35 0-6.123 1.572-11.879 4.335-16.885 5.007-2.763 10.762-4.335 16.885-4.335 19.33 0 35 15.67 35 35z" fill="#64dcfc"/><path d="m174.462 264.148c-13.11 23.759-38.406 39.852-67.461 39.852-42.396.001-77.001-34.605-77.001-77.001 0-29.055 16.094-54.351 39.852-67.462 1.022-.564 2.163.482 1.697 1.551-4.106 9.417-6.384 19.815-6.384 30.745-.001 42.556 34.442 77 76.998 77.001 10.931 0 21.329-2.277 30.747-6.384 1.071-.465 2.116.676 1.552 1.698zm287.482 66.281c-10.386 18.822-30.426 31.571-53.443 31.571-33.586 0-61.001-27.414-61.001-61.001 0-23.018 12.749-43.058 31.571-53.444.809-.447 1.714.382 1.344 1.229-3.253 7.46-5.057 15.698-5.057 24.356 0 33.713 27.285 61 60.999 61.001 8.659 0 16.897-1.804 24.358-5.057.848-.369 1.676.535 1.229 1.345z" fill="#fa0"/><path d="m184 227c0 13.47-3.459 26.133-9.537 37.148-11.015 6.078-23.677 9.537-37.148 9.537-42.526 0-77-34.474-77-77 0-13.47 3.459-26.133 9.537-37.148 11.015-6.078 23.678-9.537 37.148-9.537 42.526 0 77 34.474 77 77zm224.5 13c-10.671 0-20.703 2.74-29.429 7.556-4.815 8.726-7.555 18.757-7.555 29.429 0 33.689 27.311 61 61 61 10.671 0 20.703-2.74 29.429-7.555 4.815-8.726 7.555-18.757 7.555-29.429 0-33.69-27.311-61.001-61-61.001z" fill="#ffc143"/><path d="m107 287.852c-33.911 0-61.5-27.298-61.5-60.852s27.589-60.852 61.5-60.852 61.5 27.298 61.5 60.852-27.589 60.852-61.5 60.852zm0-106.704c-25.64 0-46.5 20.569-46.5 45.852s20.86 45.852 46.5 45.852 46.5-20.569 46.5-45.852-20.86-45.852-46.5-45.852zm0 81.925c-12.89 0-23.377-10.487-23.377-23.378v-25.391c0-12.891 10.487-23.378 23.377-23.378s23.377 10.487 23.377 23.378v25.391c0 12.891-10.487 23.378-23.377 23.378zm0-57.146c-4.619 0-8.377 3.759-8.377 8.378v25.391c0 4.619 3.758 8.378 8.377 8.378s8.377-3.759 8.377-8.378v-25.391c0-4.619-3.758-8.378-8.377-8.378zm301.5 144.839c-27.724 0-50.279-22.325-50.279-49.766s22.555-49.766 50.279-49.766 50.279 22.326 50.279 49.766-22.555 49.766-50.279 49.766zm0-84.532c-19.453 0-35.279 15.596-35.279 34.766s15.826 34.766 35.279 34.766 35.279-15.596 35.279-34.766-15.826-34.766-35.279-34.766zm7.5 51.577v-33.621c0-4.143-3.358-7.5-7.5-7.5s-7.5 3.357-7.5 7.5v33.621c0 4.143 3.358 7.5 7.5 7.5s7.5-3.358 7.5-7.5z" fill="#ffe7bf"/><path d="m381.947 16.447v459.574c-1.883 1.066-3.782 2.11-5.694 3.129-.6.32-1.202 3.543-1.806 3.859-35.419 18.518-75.71 28.991-118.447 28.991-27.8 0-54.565-4.432-79.628-12.626-.882-.288-1.761-7.939-2.638-8.237-1.753-.594-3.498-1.208-5.234-1.839v-469.085c0-8.284 6.716-15 15-15h157.644c14.218 5.013 27.861 3.906 40.803 11.234z" fill="#fff5f5"/><path d="m191.372 5.213c-8.284 0-15 7.155-15 15.98v478.18c-13.466-4.403-26.44-9.892-38.819-16.364-.842-.44-1.681-7.828-2.518-8.277-1.672-.898-3.333-1.814-4.983-2.748v-448.197c3.543-11.946.558-13.561 14.777-18.573h46.543z" fill="#c9f0ff"/><path d="m329.692 206.727c-14.321 25.953-41.953 43.532-73.691 43.532-46.311 0-84.112-37.8-84.111-84.111 0-31.738 17.58-59.37 43.532-73.691 1.116-.616 2.363.526 1.853 1.695-4.485 10.287-6.973 21.645-6.973 33.584-.001 46.486 37.623 84.11 84.108 84.111 11.94 0 23.299-2.488 33.586-6.973 1.17-.51 2.312.736 1.696 1.853z" fill="#009a8e"/><path d="m340.11 166.148c0 14.714-3.778 28.546-10.418 40.578-12.032 6.639-25.864 10.418-40.578 10.418-46.453 0-84.11-37.658-84.11-84.11 0-14.714 3.779-28.546 10.418-40.578 12.032-6.639 25.864-10.418 40.578-10.418 46.453 0 84.11 37.658 84.11 84.11z" fill="#00b7a0"/><path d="m303.769 149.379-54.393 54.392c-1.465 1.464-3.385 2.196-5.304 2.196-1.92 0-3.839-.732-5.304-2.196l-30.537-30.537c-2.929-2.93-2.929-7.678 0-10.607 2.93-2.928 7.678-2.928 10.607 0l25.233 25.234 49.089-49.089c2.931-2.928 7.679-2.928 10.607 0 2.93 2.929 2.93 7.677.002 10.607z" fill="#fff5f5"/><path d="m278.5 37c0 4.143-3.358 7.5-7.5 7.5h-30c-4.142 0-7.5-3.357-7.5-7.5s3.358-7.5 7.5-7.5h30c4.142 0 7.5 3.357 7.5 7.5zm113 37.5c4.142 0 7.5-3.357 7.5-7.5v-30c0-4.143-3.358-7.5-7.5-7.5-.712 0-1.401.099-2.053.284v-7.284c0-12.406-10.093-22.5-22.5-22.5h-221.894c-12.407 0-22.5 10.094-22.5 22.5v7.284c-.653-.185-1.341-.284-2.053-.284-4.142 0-7.5 3.357-7.5 7.5v30c0 4.143 3.358 7.5 7.5 7.5.712 0 1.401-.099 2.053-.284v400.294c4.894 2.995 9.896 5.83 15 8.499v-460.509c0-4.136 3.365-7.5 7.5-7.5h221.894c4.135 0 7.5 3.364 7.5 7.5v460.509c5.104-2.668 10.106-5.504 15-8.499v-339.294c.653.185 1.341.284 2.053.284 4.142 0 7.5-3.357 7.5-7.5v-30c0-4.143-3.358-7.5-7.5-7.5-.712 0-1.401.099-2.053.284v-16.568c.652.185 1.341.284 2.053.284z" fill="#003278"/><path d="m204.138 37c0 4.142-3.358 7.5-7.5 7.5h-30c-4.142 0-7.5-3.358-7.5-7.5s3.358-7.5 7.5-7.5h30c4.142 0 7.5 3.358 7.5 7.5zm110.756-7.5h-.234c-4.142 0-7.5 3.358-7.5 7.5s3.358 7.5 7.5 7.5h.234c4.142 0 7.5-3.358 7.5-7.5s-3.358-7.5-7.5-7.5zm30.468 0h-.234c-4.142 0-7.5 3.358-7.5 7.5s3.358 7.5 7.5 7.5h.234c4.142 0 7.5-3.358 7.5-7.5s-3.358-7.5-7.5-7.5z" fill="#9ae7fd"/><path d="m346 354.917h-180c-2.761 0-5-2.239-5-5v-71.426c0-2.761 2.239-5 5-5h180c2.761 0 5 2.239 5 5v71.426c0 2.761-2.239 5-5 5zm0 70h-180c-2.761 0-5-2.239-5-5v-40c0-2.761 2.239-5 5-5h180c2.761 0 5 2.239 5 5v40c0 2.761-2.239 5-5 5z" fill="#64dcfc"/><path d="m191.372 379.917v40c0 2.761 2.239 5 5 5h-30.372c-2.761 0-5-2.239-5-5v-40c0-2.761 2.239-5 5-5h30.372c-2.761 0-5 2.238-5 5zm0-30v-71.426c0-2.761 2.239-5 5-5h-30.372c-2.761 0-5 2.239-5 5v71.426c0 2.761 2.239 5 5 5h30.372c-2.761 0-5-2.239-5-5z" fill="#00d1fc"/><path d="m261.192 337.379h-77.149c-4.142 0-7.5-3.358-7.5-7.5s3.358-7.5 7.5-7.5h77.149c4.142 0 7.5 3.358 7.5 7.5s-3.358 7.5-7.5 7.5zm77.042-37.762c0-4.142-3.358-7.5-7.5-7.5h-146.691c-4.142 0-7.5 3.358-7.5 7.5s3.358 7.5 7.5 7.5h146.692c4.141 0 7.499-3.357 7.499-7.5zm-105.702 100.3c0 4.142-3.358 7.5-7.5 7.5h-40.989c-4.142 0-7.5-3.358-7.5-7.5s3.358-7.5 7.5-7.5h40.989c4.142 0 7.5 3.357 7.5 7.5z" fill="#00c1fb"/><path d="m338.234 399.917c0 4.142-3.358 7.5-7.5 7.5h-23.628c-4.142 0-7.5-3.358-7.5-7.5s3.358-7.5 7.5-7.5h23.628c4.142 0 7.5 3.357 7.5 7.5z" fill="#00aaf2"/><path d="m235.941 478.149h-25.319c-8.284 0-15-6.716-15-15 0-8.284 6.716-15 15-15h25.319c8.284 0 15 6.716 15 15 0 8.284-6.715 15-15 15z" fill="#009a8e"/><path d="m301.378 478.149h-71.34c-8.284 0-15-6.716-15-15 0-8.284 6.716-15 15-15h71.34c8.284 0 15 6.716 15 15 0 8.284-6.716 15-15 15z" fill="#00b7a0"/></g></svg>