<svg id="Capa_1" enable-background="new 0 0 501 501" height="512" viewBox="0 0 501 501" width="512" xmlns="http://www.w3.org/2000/svg"><path d="m495.5 256c0 135.31-109.69 245-245 245s-245-109.69-245-245 109.69-245 245-245 245 109.69 245 245z" fill="#08b772"/><path d="m114.744 286.805 132.483 45.258-109.681 166.685c-1.891 2.874-6.051 3.024-8.144.294l-17.99-23.457c-8.108-10.572-20.699-16.738-34.023-16.661l-66.851.386c-3.993.023-6.401-4.413-4.206-7.748zm271.512 0-132.483 45.258 97.066 147.513c42.5-19.103 78.569-49.969 104.061-88.452z" fill="#f52c2c"/><path d="m49.464 459.086-38.926.225c-3.993.023-6.401-4.413-4.206-7.748l108.413-164.757 29 29zm74.104 32.351 5.833 7.606c1.723 2.247 4.847 2.542 6.952.973-3.726-3.635-8.065-6.532-12.785-8.579zm169.805-168.95-39.6 9.577 97.066 147.513c11.768-5.29 23.043-11.482 33.737-18.487z" fill="#d00041"/><path d="m183.345 355.838 21.796 7.446-83.055 126.221-10.675-13.919c-1.215-1.584-2.531-3.069-3.934-4.45zm-75.704-25.862-84.994 129.264 26.792-.155 79.999-121.664zm285.718 0-21.796 7.446 57.067 86.788c5.31-5.621 10.357-11.493 15.12-17.597zm-97.501 33.308 71.23 108.25c6.558-3.555 12.936-7.401 19.116-11.52l-68.55-104.177z" fill="#fc5e93"/><path d="m450.5 200c0 110.457-89.543 200-200 200s-200-89.543-200-200 89.543-200 200-200 200 89.543 200 200z" fill="#fdbf43"/><path d="m450.5 200c0 37.276-10.198 72.169-27.956 102.044-29.875 17.758-64.768 27.956-102.044 27.956-110.457 0-200-89.543-200-200 0-37.276 10.198-72.169 27.956-102.044 29.875-17.758 64.768-27.956 102.044-27.956 110.457 0 200 89.543 200 200z" fill="#fdcb6b"/><path d="m316.366 181.822-23.139 22.555c-4.641 4.524-6.759 11.042-5.663 17.43l5.462 31.847c.46 2.681-2.354 4.726-4.762 3.46l-28.601-15.036c-5.737-3.016-12.59-3.016-18.327 0l-28.601 15.036c-2.408 1.266-5.222-.779-4.762-3.46l5.462-31.847c1.096-6.388-1.022-12.906-5.663-17.43l-23.139-22.555c-1.948-1.899-.873-5.207 1.819-5.598l31.977-4.646c6.414-.932 11.958-4.96 14.827-10.772l14.3-28.976c1.204-2.439 4.682-2.439 5.886 0l14.3 28.976c2.868 5.812 8.413 9.84 14.827 10.772l31.977 4.646c2.693.391 3.768 3.699 1.82 5.598zm84.134 18.178c0 82.843-67.157 150-150 150s-150-67.157-150-150 67.157-150 150-150 150 67.157 150 150zm-50 0c0-55.229-44.771-100-100-100s-100 44.771-100 100 44.771 100 100 100 100-44.771 100-100z" fill="#e27500"/><path d="m182.887 273.678c-1.942-1.783-3.814-3.642-5.61-5.572 1.834 1.893 3.705 3.751 5.61 5.572zm67.613-223.678c-55.526 0-104.005 30.17-129.939 75.012-.041 1.658-.061 3.321-.061 4.988 0 53.561 21.985 102.205 56.777 138.106-16.614-17.855-26.777-41.793-26.777-68.106 0-55.229 44.771-100 100-100s100 44.771 100 100-44.771 100-100 100c-26.072 0-49.813-9.977-67.614-26.322 36.461 34.864 85.48 56.322 137.614 56.322 1.668 0 3.331-.021 4.988-.061 44.842-25.934 75.012-74.413 75.012-129.939 0-82.843-67.157-150-150-150zm-25.999 119.654c-.001.115-.001.23-.001.346 0 27.614 22.386 50 50 50 4.418 0 8.701-.574 12.781-1.649.033-5.218 2.142-10.266 5.946-13.974l23.139-22.555c1.948-1.899.873-5.207-1.819-5.598l-31.977-4.646c-6.414-.932-11.958-4.96-14.827-10.772l-14.3-28.976c-1.204-2.439-4.682-2.439-5.886 0l-14.3 28.976c-1.91 3.869-5.006 6.947-8.756 8.848z" fill="#fc9302"/><path d="m352.843 129.812-17.523 6.916c-4.046 1.597-7.249 4.799-8.845 8.845l-6.916 17.523c-.872 2.209-3.999 2.209-4.871 0l-6.916-17.523c-1.597-4.046-4.799-7.249-8.845-8.845l-17.523-6.916c-2.209-.872-2.209-3.999 0-4.871l17.523-6.916c4.046-1.597 7.249-4.799 8.845-8.845l6.916-17.523c.872-2.209 3.999-2.209 4.871 0l6.916 17.523c1.597 4.046 4.799 7.249 8.845 8.845l17.523 6.916c2.209.873 2.209 4 0 4.871z" fill="#fff5f5"/></svg>