<svg height="512" viewBox="0 0 30 30" width="512" xmlns="http://www.w3.org/2000/svg"><g id="Layer_2" data-name="Layer 2"><g id="China"><circle cx="15" cy="15" fill="#ee1c25" r="15"/><g fill="#ff0"><path d="m23.011 17.368-1.473-.024-.479-1.392-.478 1.392-1.473.025 1.177.884-.431 1.407 1.206-.845 1.206.845-.432-1.407z"/><path d="m17.609 10.727.024-1.473 1.392-.479-1.392-.479-.025-1.473-.884 1.177-1.408-.43.846 1.206-.846 1.206 1.408-.433z"/><path d="m17.609 23.177.024-1.473 1.392-.479-1.392-.479-.025-1.473-.884 1.177-1.408-.43.846 1.206-.846 1.206 1.408-.433z"/><path d="m21.653 12.537.646-1.323-1.323.646-1.059-1.024.207 1.457-1.3.691 1.451.255.255 1.451.689-1.301 1.458.206z"/><path d="m13.511 13.214-3.971-.066-1.291-3.752-1.29 3.753-3.97.067 3.173 2.385-1.162 3.795 3.251-2.279 3.252 2.277-1.164-3.794z"/></g></g></g></svg>