<svg id="Layer_1" enable-background="new 0 0 30 30" height="30" viewBox="0 0 1000 1000" width="1000" xmlns="http://www.w3.org/2000/svg" xmlns:xlink="http://www.w3.org/1999/xlink"><clipPath id="SVGID_2_"><circle id="SVGID_1_" cx="500" cy="500" r="500"/></clipPath><g><g><path clip-path="url(#SVGID_2_)" d="m-251.5 0h1503v1002h-1503z" fill="#f89939"/><path clip-path="url(#SVGID_2_)" d="m-251.5 334h1503v334h-1503z" fill="#fff"/><path clip-path="url(#SVGID_2_)" d="m-251.5 668h1503v334h-1503z" fill="#1e8943"/><circle clip-path="url(#SVGID_2_)" cx="500" cy="501" fill="#2a2c7a" r="133.6"/><g clip-path="url(#SVGID_2_)" fill="#fff"><path d="m589.059 425.318c-2.045-2.405-4.167-4.746-6.398-6.978l-46.76 52.429-18.562 14.585c.83.919 1.595 1.897 2.271 2.941l18.885-14.145 62.73-31.594c-1.583-2.738-3.267-5.409-5.061-8-2.553 1.852-6.126 1.356-8.06-1.161-1.925-2.512-1.482-6.085.955-8.077z"/><path d="m485.507 390.896c-3.146.412-6.022-1.762-6.524-4.875-6.281 1.141-12.392 2.767-18.281 4.87 1.142 2.954-.261 6.291-3.202 7.506-2.937 1.217-6.291-.146-7.573-3.043-2.859 1.357-5.644 2.844-8.369 4.421l38.534 58.726 9.277 21.694c1.099-.562 2.243-1.048 3.433-1.434l-8.774-21.892-14.286-68.785 22.027 66.714 3.346 23.341c1.197-.255 2.433-.396 3.69-.459l-2.812-23.442 4.007-70.138c-3.188 0-6.336.164-9.459.414.319 3.127-1.896 5.965-5.034 6.382z"/><path d="m567.604 412.895c-2.517-1.935-3.013-5.506-1.162-8.059-2.59-1.794-5.262-3.478-7.999-5.061l-31.594 62.731-14.146 18.884c1.044.678 2.022 1.442 2.942 2.272l14.585-18.562 52.43-46.76c-2.231-2.231-4.572-4.353-6.978-6.398-1.992 2.437-5.565 2.881-8.078.953z"/><path d="m530.23 536.9-14.584-18.562c-.92.83-1.898 1.595-2.942 2.271l14.146 18.885 31.594 62.73c2.737-1.583 5.407-3.267 7.999-5.061-1.851-2.553-1.354-6.126 1.162-8.06 2.513-1.926 6.086-1.482 8.078.954 2.404-2.047 4.746-4.167 6.978-6.398z"/><path d="m546.762 505.007-23.44-2.812c-.063 1.258-.205 2.493-.459 3.69l23.34 3.346 66.713 22.027-68.784-14.286-21.892-8.774c-.385 1.192-.871 2.335-1.434 3.434l21.694 9.276 58.727 38.534c1.576-2.726 3.062-5.509 4.421-8.368-2.897-1.283-4.261-4.638-3.045-7.573 1.217-2.94 4.555-4.345 7.508-3.203 2.101-5.889 3.728-11.999 4.868-18.28-3.112-.502-5.285-3.378-4.874-6.523.416-3.137 3.254-5.354 6.381-5.034.252-3.123.415-6.271.415-9.459z"/><path d="m610.104 486.507c-.411-3.146 1.762-6.022 4.874-6.523-1.141-6.282-2.768-12.393-4.868-18.282-2.953 1.142-6.291-.261-7.508-3.202-1.216-2.937.147-6.291 3.045-7.573-1.358-2.859-2.845-5.644-4.421-8.369l-58.726 38.534-21.694 9.277c.562 1.099 1.049 2.243 1.434 3.433l21.892-8.774 68.784-14.286-66.713 22.027-23.34 3.346c.254 1.197.396 2.433.459 3.69l23.44-2.812 70.138 4.007c0-3.188-.163-6.336-.415-9.459-3.127.319-5.964-1.896-6.381-5.034z"/><path d="m538.494 527.85-18.885-14.146c-.677 1.044-1.441 2.022-2.271 2.942l18.562 14.584 46.76 52.43c2.231-2.231 4.352-4.573 6.398-6.978-2.437-1.992-2.88-5.565-.954-8.078 1.934-2.517 5.507-3.013 8.06-1.162 1.794-2.592 3.478-5.262 5.061-7.999z"/><path d="m501.194 477.679c1.258.064 2.493.205 3.69.459l3.346-23.341 22.027-66.714-14.286 68.785-8.772 21.892c1.19.385 2.333.871 3.432 1.434l9.276-21.694 38.534-58.726c-2.726-1.577-5.509-3.062-8.368-4.42-1.283 2.897-4.638 4.26-7.573 3.043-2.94-1.215-4.345-4.552-3.203-7.506-5.889-2.103-11.999-3.729-18.28-4.87-.5 3.113-3.378 5.286-6.523 4.875-3.137-.416-5.354-3.254-5.034-6.382-3.123-.25-6.271-.414-9.459-.414l4.007 70.137z"/><path d="m469.769 465.1 14.585 18.563c.919-.831 1.897-1.595 2.941-2.273l-14.145-18.884-31.594-62.732c-2.738 1.584-5.409 3.268-8 5.062 1.852 2.553 1.356 6.125-1.161 8.059-2.513 1.928-6.086 1.484-8.078-.954-2.405 2.046-4.747 4.166-6.978 6.398z"/><path d="m461.506 474.15 18.884 14.145c.678-1.044 1.442-2.021 2.273-2.941l-18.563-14.585-46.76-52.429c-2.232 2.231-4.353 4.573-6.398 6.978 2.438 1.992 2.881 5.565.954 8.078-1.934 2.517-5.506 3.013-8.059 1.161-1.794 2.591-3.478 5.262-5.062 8z"/><path d="m498.806 524.321c-1.257-.063-2.493-.205-3.69-.459l-3.346 23.34-22.027 66.713 14.286-68.784 8.774-21.892c-1.19-.385-2.334-.871-3.433-1.434l-9.277 21.694-38.534 58.727c2.726 1.576 5.51 3.062 8.369 4.421 1.282-2.897 4.636-4.261 7.573-3.045 2.941 1.217 4.344 4.555 3.202 7.508 5.889 2.101 12 3.728 18.281 4.868.502-3.112 3.377-5.285 6.523-4.874 3.138.416 5.354 3.254 5.034 6.381 3.123.252 6.271.415 9.459.415l-4.006-70.139z"/><path d="m441.557 602.225 31.594-62.73 14.145-18.885c-1.044-.677-2.021-1.441-2.941-2.271l-14.586 18.561-52.429 46.76c2.232 2.231 4.573 4.354 6.978 6.398 1.992-2.437 5.565-2.88 8.078-.954 2.517 1.934 3.013 5.507 1.161 8.06 2.591 1.794 5.262 3.478 8 5.061z"/><path d="m514.493 611.104c3.146-.411 6.021 1.762 6.523 4.874 6.281-1.141 12.392-2.768 18.28-4.868-1.142-2.953.263-6.291 3.203-7.508 2.936-1.216 6.29.147 7.573 3.045 2.859-1.358 5.643-2.845 8.368-4.421l-38.533-58.726-9.276-21.694c-1.099.562-2.241 1.049-3.434 1.434l8.774 21.892 14.286 68.784-22.027-66.713-3.346-23.34c-1.197.254-2.433.396-3.69.459l2.812 23.44-4.006 70.138c3.188 0 6.336-.163 9.459-.415-.319-3.127 1.897-5.964 5.034-6.381z"/><path d="m394.354 551.073c1.358 2.859 2.843 5.643 4.42 8.368l58.726-38.534 21.694-9.276c-.562-1.099-1.048-2.241-1.434-3.432l-21.892 8.772-68.785 14.286 66.714-22.027 23.341-3.346c-.255-1.197-.396-2.433-.459-3.69l-23.442 2.812-70.137-4.006c0 3.188.164 6.336.414 9.459 3.127-.319 5.966 1.897 6.382 5.034.412 3.146-1.762 6.023-4.875 6.523 1.141 6.281 2.767 12.392 4.87 18.28 2.954-1.142 6.291.263 7.506 3.203 1.217 2.937-.147 6.291-3.043 7.574z"/><path d="m482.663 516.646c-.831-.92-1.595-1.898-2.272-2.942l-18.884 14.146-62.731 31.594c1.583 2.737 3.267 5.409 5.061 7.999 2.553-1.851 6.125-1.354 8.059 1.162 1.928 2.513 1.484 6.086-.954 8.078 2.046 2.405 4.167 4.746 6.398 6.978l46.76-52.43z"/><path d="m476.679 499.806c.064-1.257.205-2.493.459-3.69l-23.341-3.346-66.714-22.027 68.785 14.286 21.892 8.774c.385-1.19.871-2.334 1.434-3.433l-21.694-9.277-58.726-38.534c-1.577 2.726-3.063 5.51-4.421 8.369 2.897 1.282 4.261 4.636 3.043 7.573-1.215 2.941-4.552 4.344-7.506 3.202-2.103 5.889-3.729 12-4.87 18.281 3.113.501 5.286 3.377 4.875 6.524-.416 3.137-3.254 5.353-6.382 5.034-.25 3.123-.414 6.271-.414 9.459l70.137-4.006z"/></g></g></g></svg>