<svg id="Layer_1" enable-background="new 0 0 30 30" height="30" viewBox="0 0 1000 1000" width="1000" xmlns="http://www.w3.org/2000/svg" xmlns:xlink="http://www.w3.org/1999/xlink"><clipPath id="SVGID_2_"><circle id="SVGID_1_" cx="500" cy="500" r="500"/></clipPath><g><g><path clip-path="url(#SVGID_2_)" d="m-90 0h1500v1000h-1500z" fill="#e30a17"/><g fill="#fff"><path clip-path="url(#SVGID_2_)" d="m503.75 700c-110.455 0-200-89.545-200-200s89.545-200 200-200c59.124 0 112.249 25.665 148.865 66.451-44.31-69.982-122.406-116.451-211.365-116.451-138.074 0-250 111.926-250 250s111.926 250 250 250c88.959 0 167.054-46.469 211.364-116.45-36.616 40.786-89.74 66.45-148.864 66.45z"/><path clip-path="url(#SVGID_2_)" d="m811.912 500 53.38-73.474-86.371 28.065-53.382-73.475v90.82l-86.37 28.064 86.37 28.064v90.821l53.382-73.475 86.371 28.065z"/></g></g></g></svg>