<svg width="40" height="40" viewBox="0 0 40 40" fill="none" xmlns="http://www.w3.org/2000/svg">
<g clip-path="url(#clip0_1137_646)">
<path d="M19.1406 0.859375C8.56953 0.859375 0 9.42891 0 20C0 21.2033 0.112188 22.3802 0.324609 23.522L2.76078 25.8955L2.465 29.4005C5.74969 35.2148 11.9863 39.1406 19.1406 39.1406C29.7117 39.1406 38.2812 30.5711 38.2812 20C38.2812 9.42891 29.7117 0.859375 19.1406 0.859375Z" fill="#FFDD40"/>
<path d="M18.3848 35.0483C27.0142 35.0483 34.0098 28.0528 34.0098 19.4233C34.0098 10.7939 27.0142 3.79834 18.3848 3.79834C9.75532 3.79834 2.75977 10.7939 2.75977 19.4233C2.75977 28.0528 9.75532 35.0483 18.3848 35.0483Z" fill="#FFC839"/>
<path d="M20.7031 35.2344C20.7031 34.3714 21.4027 33.6719 22.2656 33.6719H35.3125C36.1755 33.6719 36.875 34.3714 36.875 35.2344C36.875 36.0973 36.1755 36.7969 35.3125 36.7969H22.2656C21.4027 36.7969 20.7031 36.0973 20.7031 35.2344Z" fill="#47477F"/>
<path d="M25.3906 35.2344C25.3906 34.3714 26.0902 33.6719 26.9531 33.6719H22.2656C21.4027 33.6719 20.7031 34.3714 20.7031 35.2344C20.7031 36.0973 21.4027 36.7969 22.2656 36.7969H26.9531C26.0902 36.7969 25.3906 36.0973 25.3906 35.2344Z" fill="#3B3868"/>
<path d="M17.5781 37.5781C17.5781 36.7152 18.2777 36.0156 19.1406 36.0156H38.4375C39.3005 36.0156 40 36.7152 40 37.5781C40 38.4411 39.3005 39.1406 38.4375 39.1406H19.1406C18.2777 39.1406 17.5781 38.4411 17.5781 37.5781Z" fill="#5F5F9B"/>
<path d="M22.2656 37.5781C22.2656 36.7152 22.9652 36.0156 23.8281 36.0156H19.1406C18.2777 36.0156 17.5781 36.7152 17.5781 37.5781C17.5781 38.4411 18.2777 39.1406 19.1406 39.1406H23.8281C22.9652 39.1406 22.2656 38.4411 22.2656 37.5781Z" fill="#47477F"/>
<path d="M20.3633 28.3223L13.4812 11.7191L26.475 6.3332L33.357 22.9363L20.3633 28.3223Z" fill="#9B6642"/>
<path d="M20.3652 28.3208L13.4832 11.7177L17.8145 9.92237L24.6965 26.5255L20.3652 28.3208Z" fill="#875431"/>
<path d="M13.5664 18.0367L15.9582 23.8109L31.1156 17.5324C32.7102 16.872 33.4673 15.0439 32.8069 13.4495C32.1464 11.8549 30.3184 11.0978 28.7239 11.7582L13.5664 18.0367Z" fill="#AC7752"/>
<path d="M2.46453 29.4004L15.959 23.8108L13.5672 18.0366L0.324219 23.5221C0.714844 25.6222 1.44828 27.6016 2.46453 29.4004Z" fill="#5F5F9B"/>
<path d="M2.46492 29.4005L15.9594 23.8109L14.7635 20.9238L1.1543 26.5609C1.51445 27.5482 1.95445 28.497 2.46492 29.4005Z" fill="#47477F"/>
<path d="M18.3712 19.4289C19.0316 21.0234 20.8597 21.7806 22.4542 21.1202L15.9582 23.8109L13.5664 18.0367L20.0624 15.3459C18.4679 16.0064 17.7107 17.8344 18.3712 19.4289Z" fill="#9B6642"/>
<path d="M16.4069 24.8935C17.0049 24.6459 17.2888 23.9603 17.0411 23.3624L14.6493 17.5882C14.4017 16.9903 13.7161 16.7064 13.1183 16.954C12.5203 17.2017 12.2364 17.8872 12.484 18.4851L14.8758 24.2593C15.1235 24.8572 15.809 25.1412 16.4069 24.8935Z" fill="#E9EFFF"/>
<path d="M15.2108 22.0064C15.8087 21.7588 16.0927 21.0732 15.845 20.4753L17.0409 23.3625C17.2885 23.9604 17.0046 24.6459 16.4066 24.8935C15.8087 25.1412 15.1232 24.8573 14.8755 24.2593L13.6797 21.3722C13.9273 21.9702 14.6128 22.2542 15.2108 22.0064Z" fill="#D3DCFB"/>
<path d="M25.2649 4.73475C24.9347 3.93748 24.0207 3.55889 23.2234 3.88912L14.0568 7.68608C13.2595 8.01631 12.8809 8.93029 13.2111 9.72756C13.5414 10.5248 14.4554 10.9034 15.2526 10.5732L24.4193 6.77623C25.2165 6.446 25.5951 5.53201 25.2649 4.73475Z" fill="#9B6642"/>
<path d="M17.5418 7.93382C17.8721 8.73108 18.7861 9.10968 19.5833 8.77944L15.2526 10.5733C14.4554 10.9035 13.5414 10.5249 13.2111 9.72765C12.8809 8.93038 13.2595 8.0164 14.0568 7.68616L18.3875 5.89233C17.5903 6.22257 17.2116 7.13655 17.5418 7.93382Z" fill="#875431"/>
<path d="M33.636 24.9447C33.3058 24.1474 32.3918 23.7688 31.5945 24.0991L22.4279 27.896C21.6306 28.2263 21.252 29.1403 21.5822 29.9375C21.9125 30.7348 22.8265 31.1134 23.6237 30.7831L32.7904 26.9862C33.5876 26.656 33.9662 25.742 33.636 24.9447Z" fill="#9B6642"/>
<path d="M25.9129 28.1435C26.2432 28.9408 27.1572 29.3194 27.9544 28.9892L23.6237 30.783C22.8265 31.1132 21.9125 30.7346 21.5822 29.9374C21.252 29.1401 21.6306 28.2261 22.4279 27.8959L26.7586 26.1021C25.9613 26.4323 25.5827 27.3463 25.9129 28.1435Z" fill="#875431"/>
<path d="M12.4079 12.1749C12.6555 12.7729 13.3411 13.0568 13.9389 12.8092L26.931 7.42767C27.5289 7.18001 27.8129 6.49447 27.5652 5.89657C27.3175 5.29861 26.632 5.0147 26.0341 5.26236L13.0421 10.6438C12.4442 10.8915 12.1602 11.577 12.4079 12.1749Z" fill="#AC7752"/>
<path d="M16.7386 10.3809C16.9862 10.9789 17.6718 11.2628 18.2697 11.0152L13.939 12.809C13.341 13.0567 12.6555 12.7727 12.4079 12.1748C12.1602 11.5768 12.4441 10.8913 13.0421 10.6437L17.3728 8.84985C16.7748 9.09751 16.4909 9.78298 16.7386 10.3809Z" fill="#9B6642"/>
<path d="M19.2849 28.7758C19.5325 29.3737 20.2181 29.6576 20.8159 29.41L33.808 24.0285C34.4059 23.7808 34.6899 23.0953 34.4422 22.4974C34.1945 21.8994 33.509 21.6155 32.9111 21.8632L19.9191 27.2447C19.3211 27.4923 19.0371 28.1778 19.2849 28.7758Z" fill="#AC7752"/>
<path d="M23.6155 26.982C23.8632 27.58 24.5487 27.8639 25.1466 27.6162L20.8159 29.4101C20.2179 29.6577 19.5325 29.3738 19.2848 28.7759C19.0372 28.1779 19.3211 27.4924 19.919 27.2448L24.2497 25.4509C23.6518 25.6986 23.3679 26.3841 23.6155 26.982Z" fill="#9B6642"/>
</g>
<defs>
<clipPath id="clip0_1137_646">
<rect width="40" height="40" fill="white"/>
</clipPath>
</defs>
</svg>
