<svg width="40" height="40" viewBox="0 0 40 40" fill="none" xmlns="http://www.w3.org/2000/svg">
<g clip-path="url(#clip0_1195_964)">
<path d="M40 20C40 31.0457 31.0457 40 20 40C8.9543 40 0 31.0457 0 20C0 8.9543 8.9543 0 20 0C31.0457 0 40 8.9543 40 20Z" fill="#BB7BB9"/>
<path d="M37.6953 19.8429V29.3284C36.9733 30.6951 36.0976 31.968 35.0912 33.1241H6.78359C6.35211 33.1241 6.00234 32.7744 6.00234 32.3429V20.8145H2.34375C1.0493 20.8145 0 19.7652 0 18.4707V7.5332C0 6.23883 1.0493 5.18945 2.34375 5.18945H22.0312C23.3257 5.18945 24.375 6.23883 24.375 7.5332V18.4707C24.375 18.6748 24.3489 18.8728 24.2998 19.0616H36.9141C37.3455 19.0616 37.6953 19.4114 37.6953 19.8429Z" fill="#AF65AD"/>
<path d="M31.793 8.2123L32.1905 9.0177C32.2256 9.08871 32.2933 9.13793 32.3717 9.14934L33.2604 9.27848C33.4578 9.30715 33.5367 9.54973 33.3938 9.68902L32.7507 10.3159C32.6939 10.3712 32.6681 10.4508 32.6814 10.5289L32.8332 11.4141C32.867 11.6107 32.6606 11.7607 32.484 11.6678L31.6891 11.2499C31.619 11.213 31.5352 11.213 31.4651 11.2499L30.6702 11.6678C30.4936 11.7606 30.2873 11.6107 30.321 11.4141L30.4728 10.5289C30.4861 10.4509 30.4603 10.3712 30.4035 10.3159L29.7604 9.68902C29.6176 9.5498 29.6964 9.30723 29.8938 9.27848L30.7825 9.14934C30.8609 9.13793 30.9287 9.08871 30.9637 9.0177L31.3612 8.2123C31.4496 8.0334 31.7047 8.0334 31.793 8.2123Z" fill="#D2A8D1"/>
<path d="M5.46047 17.9688H2.34375C1.0493 17.9688 0 16.9195 0 15.625V4.6875C0 3.39305 1.0493 2.34375 2.34375 2.34375H5.46047C6.75492 2.34375 7.80422 3.39305 7.80422 4.6875V15.625C7.80422 16.9195 6.75484 17.9688 5.46047 17.9688Z" fill="#C2EAF2"/>
<path d="M22.0307 17.9688H4.76172C3.46727 17.9688 2.41797 16.9195 2.41797 15.625V4.6875C2.41797 3.39305 3.46727 2.34375 4.76172 2.34375H22.0307C23.3252 2.34375 24.3745 3.39305 24.3745 4.6875V15.625C24.3745 16.9195 23.3252 17.9688 22.0307 17.9688Z" fill="#DEF4F8"/>
<path d="M3.59375 6.64062C3.59375 6.31703 3.85609 6.05469 4.17969 6.05469H20.1953C20.5189 6.05469 20.7812 6.31703 20.7812 6.64062C20.7812 6.96422 20.5189 7.22656 20.1953 7.22656H4.17969C3.85609 7.22656 3.59375 6.96422 3.59375 6.64062ZM20.1953 8.39844H4.17969C3.85609 8.39844 3.59375 8.66078 3.59375 8.98438C3.59375 9.30797 3.85609 9.57031 4.17969 9.57031H20.1953C20.5189 9.57031 20.7812 9.30797 20.7812 8.98438C20.7812 8.66078 20.5189 8.39844 20.1953 8.39844ZM20.1953 10.7422H4.17969C3.85609 10.7422 3.59375 11.0045 3.59375 11.3281C3.59375 11.6517 3.85609 11.9141 4.17969 11.9141H20.1953C20.5189 11.9141 20.7812 11.6517 20.7812 11.3281C20.7812 11.0045 20.5189 10.7422 20.1953 10.7422ZM20.1953 13.0859H4.17969C3.85609 13.0859 3.59375 13.3483 3.59375 13.6719C3.59375 13.9955 3.85609 14.2578 4.17969 14.2578H20.1953C20.5189 14.2578 20.7812 13.9955 20.7812 13.6719C20.7812 13.3483 20.5189 13.0859 20.1953 13.0859Z" fill="#A6E0EC"/>
<path d="M3.59375 6.67969C3.59375 6.35609 3.85609 6.09375 4.17969 6.09375H9.25781C9.58141 6.09375 9.84375 6.35609 9.84375 6.67969C9.84375 7.00328 9.58141 7.26562 9.25781 7.26562H4.17969C3.85609 7.26562 3.59375 7.00328 3.59375 6.67969ZM11.9141 10.7812H4.17969C3.85609 10.7812 3.59375 11.0436 3.59375 11.3672C3.59375 11.6908 3.85609 11.9531 4.17969 11.9531H11.9141C12.2377 11.9531 12.5 11.6908 12.5 11.3672C12.5 11.0436 12.2377 10.7812 11.9141 10.7812ZM6.44531 13.125H4.17969C3.85609 13.125 3.59375 13.3873 3.59375 13.7109C3.59375 14.0345 3.85609 14.2969 4.17969 14.2969H6.44531C6.76891 14.2969 7.03125 14.0345 7.03125 13.7109C7.03125 13.3873 6.76891 13.125 6.44531 13.125Z" fill="#60C8DD"/>
<path d="M17.9688 9.02344C17.9688 9.34703 17.7064 9.60938 17.3828 9.60938H4.17969C3.85609 9.60938 3.59375 9.34703 3.59375 9.02344C3.59375 8.69984 3.85609 8.4375 4.17969 8.4375H17.3828C17.7064 8.4375 17.9688 8.69984 17.9688 9.02344Z" fill="#FB5858"/>
<path d="M24.6894 5.85053L25.2709 7.02873C25.3221 7.13264 25.4213 7.20467 25.5359 7.22131L26.8361 7.41022C27.1248 7.45217 27.2402 7.80709 27.0313 8.01076L26.0904 8.92787C26.0074 9.00873 25.9695 9.12529 25.9891 9.23951L26.2113 10.5344C26.2605 10.822 25.9587 11.0414 25.7004 10.9056L24.5375 10.2942C24.4349 10.2403 24.3124 10.2403 24.2098 10.2942L23.047 10.9056C22.7887 11.0414 22.4868 10.8221 22.5361 10.5344L22.7582 9.23951C22.7778 9.12529 22.7399 9.00873 22.657 8.92787L21.7161 8.01076C21.5071 7.80709 21.6224 7.45217 21.9113 7.41022L23.2114 7.22131C23.3261 7.20467 23.4252 7.13264 23.4765 7.02873L24.058 5.85053C24.1871 5.58889 24.5602 5.58889 24.6894 5.85053Z" fill="#FFC14F"/>
<path d="M26.2112 10.5357C26.2605 10.8234 25.9586 11.0427 25.7003 10.9069L24.5374 10.2955C24.4348 10.2416 24.3123 10.2416 24.2098 10.2955L23.0469 10.9069C22.7886 11.0427 22.4867 10.8234 22.536 10.5357L22.7581 9.24078C22.7777 9.12656 22.7398 9.01008 22.6569 8.92914L21.7161 8.01203C21.5071 7.80836 21.6224 7.45352 21.9113 7.41148L23.2114 7.22258C23.2268 7.22031 23.242 7.21703 23.2567 7.21289C23.2567 7.21773 23.2566 7.2225 23.2566 7.22734C23.2566 8.57453 24.3488 9.66672 25.6959 9.66672C25.8188 9.66672 25.9396 9.65758 26.0576 9.64L26.2112 10.5357Z" fill="#FFA90B"/>
<path d="M40.0011 17.1094V28.8281C40.0011 29.4753 39.4764 30 38.8292 30H18.932C18.7555 30 18.5923 30.0938 18.5034 30.2462L15.1448 36.0037C15.0558 36.1562 14.8926 36.25 14.7161 36.25C14.442 36.25 14.2198 36.0278 14.2198 35.7538V30.4962C14.2198 30.2221 13.9977 29.9999 13.7236 29.9999H11.0117C10.3645 29.9999 9.83984 29.4752 9.83984 28.828V17.1094C9.83984 16.4622 10.3645 15.9375 11.0117 15.9375H38.8292C39.4764 15.9375 40.0011 16.4622 40.0011 17.1094Z" fill="#FFC14F"/>
<path d="M12.5317 30H9.92188C9.27469 30 8.75 29.4753 8.75 28.8281V17.1094C8.75 16.4622 9.27469 15.9375 9.92188 15.9375H12.5317C11.8845 15.9375 11.3598 16.4622 11.3598 17.1094V28.8281C11.3598 29.4753 11.8845 30 12.5317 30Z" fill="#FFA90B"/>
<path d="M22.0475 25.9766C22.0475 26.3002 21.7852 26.5625 21.4616 26.5625H13.8672C13.5436 26.5625 13.2812 26.3002 13.2812 25.9766C13.2812 25.653 13.5436 25.3906 13.8672 25.3906H21.4616C21.7852 25.3906 22.0475 25.653 22.0475 25.9766ZM27.4473 23.0469H13.8672C13.5436 23.0469 13.2812 23.3092 13.2812 23.6328C13.2812 23.9564 13.5436 24.2188 13.8672 24.2188H27.4473C27.7709 24.2188 28.0332 23.9564 28.0332 23.6328C28.0332 23.3092 27.7709 23.0469 27.4473 23.0469Z" fill="#FFF79F"/>
<path d="M22.0475 20.1172C22.0475 20.4408 21.7852 20.7031 21.4616 20.7031H13.8672C13.5436 20.7031 13.2812 20.4408 13.2812 20.1172C13.2812 19.7936 13.5436 19.5312 13.8672 19.5312H21.4616C21.7852 19.5312 22.0475 19.7936 22.0475 20.1172Z" fill="white"/>
<path d="M34.1967 18.7504L35.2613 20.9076C35.3069 20.9999 35.3949 21.0638 35.4967 21.0786L37.8774 21.4245C38.1337 21.4618 38.236 21.7768 38.0506 21.9576L36.3278 23.6368C36.2542 23.7086 36.2206 23.812 36.238 23.9134L36.6446 26.2845C36.6884 26.5398 36.4205 26.7344 36.1912 26.614L34.0618 25.4944C33.9708 25.4466 33.8621 25.4466 33.771 25.4944L31.6416 26.6139C31.4123 26.7344 31.1444 26.5398 31.1881 26.2844L31.5948 23.9134C31.6122 23.8119 31.5785 23.7085 31.5049 23.6367L29.7822 21.9575C29.5967 21.7767 29.6991 21.4617 29.9554 21.4244L32.3361 21.0785C32.4379 21.0637 32.5259 20.9998 32.5714 20.9076L33.6361 18.7503C33.7508 18.5181 34.0821 18.5181 34.1967 18.7504Z" fill="#FFF79F"/>
<path d="M38.0503 21.9576L36.3276 23.6368C36.2539 23.7086 36.2203 23.812 36.2377 23.9134L36.3685 24.6758C34.5384 24.099 33.0313 22.7938 32.1875 21.1001L32.336 21.0786C32.4378 21.0638 32.5258 20.9999 32.5713 20.9076L33.636 18.7504C33.7506 18.5181 34.0819 18.5181 34.1965 18.7504L35.2612 20.9076C35.3067 20.9999 35.3947 21.0638 35.4965 21.0786L37.8772 21.4245C38.1334 21.4617 38.2358 21.7768 38.0503 21.9576Z" fill="#FFFAC1"/>
<path d="M28.748 13.6123L29.2255 14.5799C29.2676 14.6652 29.349 14.7243 29.4433 14.7381L30.511 14.8932C30.7482 14.9277 30.8429 15.2192 30.6712 15.3864L29.8986 16.1396C29.8304 16.206 29.7994 16.3017 29.8154 16.3955L29.9979 17.4589C30.0384 17.6951 29.7904 17.8753 29.5783 17.7637L28.6233 17.2616C28.5391 17.2173 28.4385 17.2173 28.3543 17.2616L27.3993 17.7637C27.1872 17.8752 26.9393 17.6951 26.9797 17.4589L27.1622 16.3955C27.1783 16.3017 27.1472 16.206 27.079 16.1396L26.3064 15.3864C26.1347 15.2192 26.2295 14.9277 26.4666 14.8932L27.5344 14.7381C27.6285 14.7244 27.7099 14.6653 27.7521 14.5799L28.2296 13.6123C28.3355 13.3975 28.6419 13.3975 28.748 13.6123Z" fill="#FFD993"/>
</g>
<defs>
<clipPath id="clip0_1195_964">
<rect width="40" height="40" fill="white"/>
</clipPath>
</defs>
</svg>
