<svg width="40" height="40" viewBox="0 0 40 40" fill="none" xmlns="http://www.w3.org/2000/svg">
<g clip-path="url(#clip0_1124_654)">
<path d="M40 20C40 31.0457 31.0457 40 20 40C8.9543 40 0 31.0457 0 20C0 8.9543 8.9543 0 20 0C31.0457 0 40 8.9543 40 20Z" fill="#3D4EC6"/>
<path d="M26.4208 20.5109L22.5015 27.2296C22.3615 27.4696 22.1045 27.6172 21.8266 27.6172H4.30664C3.87516 27.6172 3.52539 27.2674 3.52539 26.8359V13.3984C3.52539 12.967 3.87516 12.6172 4.30664 12.6172H21.8266C22.1045 12.6172 22.3615 12.7648 22.5015 13.0048L26.4208 19.7235C26.5627 19.9668 26.5627 20.2676 26.4208 20.5109Z" fill="#2B3894"/>
<path d="M31.4457 12.9702L27.2986 20.0796C27.2286 20.1996 27.1001 20.2734 26.9612 20.2734H8.82617C8.61047 20.2734 8.43555 20.0985 8.43555 19.8828V5.66406C8.43555 5.44836 8.61047 5.27344 8.82617 5.27344H26.9612C27.1001 5.27344 27.2286 5.34727 27.2986 5.46727L31.4457 12.5766C31.5166 12.6982 31.5166 12.8486 31.4457 12.9702Z" fill="#40C1FA"/>
<path d="M11.1 20.2734H8.82617C8.61047 20.2734 8.43555 20.0985 8.43555 19.8828V5.66406C8.43555 5.44836 8.61047 5.27344 8.82617 5.27344H11.1C10.8843 5.27344 10.7094 5.44836 10.7094 5.66406V19.8828C10.7094 20.0985 10.8843 20.2734 11.1 20.2734Z" fill="#07A9F0"/>
<path d="M31.5634 22.7098V36.9285C31.5634 37.1442 31.3884 37.3192 31.1727 37.3192H13.0377C12.8988 37.3192 12.7703 37.2453 12.7003 37.1253L8.5532 30.016C8.48227 29.8943 8.48227 29.7439 8.5532 29.6223L12.7003 22.5129C12.7703 22.3929 12.8988 22.3191 13.0377 22.3191H31.1727C31.3885 22.3192 31.5634 22.494 31.5634 22.7098Z" fill="#F5E8B4"/>
<path d="M15.6379 37.3192H13.0377C12.8988 37.3192 12.7703 37.2453 12.7003 37.1253L8.5532 30.016C8.48227 29.8943 8.48227 29.7439 8.5532 29.6223L12.7003 22.5129C12.7703 22.3929 12.8988 22.3191 13.0377 22.3191H15.6379C15.499 22.3191 15.3705 22.3929 15.3005 22.5129L11.1534 29.6223C11.0824 29.7439 11.0824 29.8943 11.1534 30.016L15.3005 37.1253C15.3705 37.2453 15.4989 37.3192 15.6379 37.3192Z" fill="#EDD578"/>
<path d="M15.7227 27.3777C15.7227 27.0541 15.985 26.7917 16.3086 26.7917H25.1201C25.4437 26.7917 25.706 27.0541 25.706 27.3777C25.706 27.7013 25.4437 27.9636 25.1201 27.9636H16.3086C15.985 27.9636 15.7227 27.7013 15.7227 27.3777ZM25.1201 29.2332H16.3086C15.985 29.2332 15.7227 29.4955 15.7227 29.8191C15.7227 30.1427 15.985 30.405 16.3086 30.405H25.1201C25.4437 30.405 25.706 30.1427 25.706 29.8191C25.706 29.4955 25.4437 29.2332 25.1201 29.2332ZM25.1201 31.6746H16.3086C15.985 31.6746 15.7227 31.9369 15.7227 32.2605C15.7227 32.5841 15.985 32.8464 16.3086 32.8464H25.1201C25.4437 32.8464 25.706 32.5841 25.706 32.2605C25.706 31.9369 25.4437 31.6746 25.1201 31.6746Z" fill="#EDD578"/>
<path d="M14.2598 10.332C14.2598 10.0084 14.5221 9.74609 14.8457 9.74609H23.6572C23.9808 9.74609 24.2431 10.0084 24.2431 10.332C24.2431 10.6556 23.9808 10.918 23.6572 10.918H14.8457C14.5221 10.918 14.2598 10.6556 14.2598 10.332ZM23.6572 12.1875H14.8457C14.5221 12.1875 14.2598 12.4498 14.2598 12.7734C14.2598 13.097 14.5221 13.3594 14.8457 13.3594H23.6572C23.9808 13.3594 24.2431 13.097 24.2431 12.7734C24.2431 12.4498 23.9808 12.1875 23.6572 12.1875ZM23.6572 14.6289H14.8457C14.5221 14.6289 14.2598 14.8912 14.2598 15.2148C14.2598 15.5384 14.5221 15.8008 14.8457 15.8008H23.6572C23.9808 15.8008 24.2431 15.5384 24.2431 15.2148C24.2431 14.8912 23.9808 14.6289 23.6572 14.6289Z" fill="#B4E7FD"/>
<path d="M15.3895 12.5325C13.9392 14.9521 11.2886 16.5697 8.26073 16.5624C3.72667 16.5513 0.0111186 12.8357 2.48182e-05 8.30176C-0.00731893 5.26886 1.61573 2.61449 4.04198 1.16582C4.18237 1.08199 4.34667 1.22863 4.28127 1.37855C3.83377 2.40402 3.58799 3.53761 3.59385 4.72926C3.6162 9.24785 7.31456 12.9463 11.8332 12.9686C13.0199 12.9744 14.1489 12.7307 15.171 12.2868C15.3251 12.2198 15.4757 12.3884 15.3895 12.5325Z" fill="#E5554E"/>
<path d="M16.5625 8.28125C16.5625 9.86742 16.1166 11.3495 15.3431 12.6088C14.0838 13.3822 12.6018 13.8281 11.0156 13.8281C6.44203 13.8281 2.73438 10.1205 2.73438 5.54688C2.73438 3.9607 3.18031 2.47867 3.95375 1.2193C5.21305 0.445938 6.69508 0 8.28125 0C12.8548 0 16.5625 3.70766 16.5625 8.28125Z" fill="#F76C57"/>
<path d="M12.5623 11.3923C12.4479 11.5067 12.2979 11.5639 12.148 11.5639C11.9981 11.5639 11.8481 11.5067 11.7337 11.3923C10.8106 10.4692 9.58443 9.96085 8.281 9.96085C6.97756 9.96085 5.75139 10.4692 4.82834 11.3923C4.59951 11.6211 4.2285 11.6211 3.99975 11.3923C3.77092 11.1634 3.77092 10.7925 3.99975 10.5637C5.14412 9.41921 6.66459 8.78898 8.281 8.78898C9.8974 8.78898 11.4179 9.41921 12.5623 10.5637C12.7912 10.7926 12.7912 11.1635 12.5623 11.3923ZM4.69381 5.87179C4.86936 5.85601 5.02232 5.90335 5.12373 6.00484C5.22521 6.10624 5.27248 6.25898 5.25686 6.43476C5.22826 6.7571 5.46631 7.04171 5.78865 7.07031C5.80631 7.07187 5.82381 7.07257 5.84115 7.07257C6.14131 7.07257 6.39701 6.84312 6.42412 6.53851C6.47029 6.01867 6.29834 5.5221 5.95232 5.17617C5.60639 4.83015 5.10982 4.65812 4.58998 4.70445C4.26764 4.73312 4.02959 5.01765 4.05818 5.33999C4.08686 5.66234 4.37193 5.89906 4.69381 5.87179ZM10.7209 7.07257C10.7383 7.07257 10.7558 7.07179 10.7734 7.07031C11.0958 7.04171 11.3338 6.7571 11.3052 6.43476C11.2896 6.25898 11.3369 6.10624 11.4383 6.00484C11.5397 5.90335 11.6926 5.85593 11.8683 5.87179C12.1905 5.89937 12.4751 5.66234 12.5038 5.33999C12.5325 5.01765 12.2944 4.73312 11.972 4.70445C11.4526 4.65828 10.9557 4.83023 10.6097 5.17617C10.2637 5.5221 10.0918 6.01859 10.1379 6.53851C10.165 6.8432 10.4207 7.07265 10.7209 7.07257Z" fill="#AF3030"/>
<path d="M38.8269 29.5781C37.3767 31.9977 34.726 33.6154 31.6981 33.608C27.1642 33.5969 23.4486 29.8814 23.4375 25.3474C23.4302 22.3145 25.0532 19.6601 27.4795 18.2115C27.6199 18.1276 27.7842 18.2743 27.7188 18.4241C27.2713 19.4496 27.0255 20.5832 27.0314 21.7748C27.0537 26.2934 30.7521 29.9919 35.2706 30.0142C36.4574 30.0201 37.5864 29.7763 38.6085 29.3323C38.7626 29.2655 38.9132 29.4341 38.8269 29.5781Z" fill="#E9CC5A"/>
<path d="M40 25.3269C40 26.9131 39.5541 28.3951 38.7806 29.6545C37.5212 30.4278 36.0393 30.8738 34.4531 30.8738C29.8795 30.8738 26.1719 27.1661 26.1719 22.5925C26.1719 21.0064 26.6178 19.5243 27.3913 18.265C28.6506 17.4917 30.1326 17.0457 31.7188 17.0457C36.2923 17.0457 40 20.7533 40 25.3269Z" fill="#FFF36C"/>
<path d="M36 26.7875C36.2289 27.0164 36.2289 27.3873 36 27.6161C34.8557 28.7605 33.3352 29.3908 31.7187 29.3908C30.1023 29.3908 28.5818 28.7606 27.4374 27.6161C27.2085 27.3872 27.2085 27.0163 27.4374 26.7875C27.6662 26.5587 28.0372 26.5587 28.266 26.7875C29.189 27.7106 30.4153 28.2189 31.7186 28.2189C33.0221 28.2189 34.2482 27.7106 35.1713 26.7875C35.4002 26.5587 35.7712 26.5587 36 26.7875ZM27.4579 23.3835C27.7061 23.5911 28.0757 23.5584 28.2833 23.3103C28.3966 23.1749 28.538 23.1003 28.6814 23.1003C28.8249 23.1003 28.9663 23.1748 29.0796 23.3103C29.1955 23.4487 29.3618 23.5202 29.5292 23.5202C29.6619 23.5202 29.7953 23.4754 29.905 23.3836C30.1532 23.176 30.186 22.8064 29.9783 22.5582C29.6434 22.1581 29.1707 21.9285 28.6814 21.9285C28.1922 21.9285 27.7195 22.158 27.3846 22.5582C27.177 22.8063 27.2098 23.1758 27.4579 23.3835ZM33.5324 23.3835C33.7806 23.5911 34.1501 23.5584 34.3578 23.3103C34.471 23.1749 34.6124 23.1003 34.756 23.1003C34.8994 23.1003 35.0408 23.1748 35.1541 23.3103C35.2699 23.4487 35.4363 23.5202 35.6037 23.5202C35.7364 23.5202 35.8698 23.4754 35.9795 23.3836C36.2276 23.176 36.2605 22.8064 36.0528 22.5582C35.7178 22.1581 35.2452 21.9285 34.756 21.9285C34.2667 21.9285 33.794 22.158 33.4591 22.5582C33.2514 22.8063 33.2842 23.1758 33.5324 23.3835Z" fill="#C1924D"/>
</g>
<defs>
<clipPath id="clip0_1124_654">
<rect width="40" height="40" fill="white"/>
</clipPath>
</defs>
</svg>
