<svg id="Layer_1" enable-background="new 0 0 512 512" height="512" viewBox="0 0 512 512" width="512" xmlns="http://www.w3.org/2000/svg"><g id="Layer_2_00000092449134283020192470000005737970324488127164_"><g id="_01.favourite"><path d="m452.7 46.4h-393.4c-32.8 0-59.3 26.6-59.3 59.3v244.6c0 32.7 26.5 59.2 59.3 59.2h127.9l47 47c12.1 12.1 31.7 12.1 43.8 0l47-47h127.8c32.7 0 59.3-26.5 59.3-59.2v-244.6c-.1-32.7-26.6-59.3-59.4-59.3z" fill="#ff2147"/><path d="m369.3 204.5c-3.1 17.7-10.3 33.7-20 48.6-12.9 19.9-29.4 36.4-47.8 51.1-10.9 8.6-22.2 16.5-34 23.7-7.4 4.6-15 5-22.4.5-20.6-12.6-40-26.9-57.1-44.1-12.7-12.5-23.5-26.7-32.1-42.3-9.4-17.3-15.1-35.6-15-55.4.1-20.5 8.4-37.2 24.7-49.7 11.7-9.2 26.4-13.7 41.3-12.7 12.9.7 24.1 5.9 34.3 13.4 4.9 3.6 14.4 12.1 14.5 12.3 4.1-3.5 8-7.1 12.2-10.3 9.5-7.4 19.8-13 31.9-14.7 16.8-2.4 32.2 1.6 45.8 11.7 12.3 8.9 20.9 22.2 23.9 37.1 2.3 10.2 1.6 20.6-.2 30.8z" fill="#fff"/></g></g></svg>