<svg height="512pt" viewBox="0 0 512 512" width="512pt" xmlns="http://www.w3.org/2000/svg"><path d="m512 256c0 141.386719-114.613281 256-256 256s-256-114.613281-256-256 114.613281-256 256-256 256 114.613281 256 256zm0 0" fill="#50309e"/><path d="m451.136719 27.308594h-366.535157c-33.613281 0-60.863281 27.25-60.863281 60.863281v207.855469c0 33.613281 27.25 60.863281 60.863281 60.863281 20.652344 0 37.390626 16.738281 37.390626 37.390625v45.5625c0 13.453125 17.597656 18.539062 24.769531 7.152344l28.265625-44.855469c17.75-28.164063 48.710937-45.25 82.003906-45.25h194.105469c33.613281 0 60.863281-27.25 60.863281-60.863281v-207.855469c0-33.613281-27.25-60.863281-60.863281-60.863281zm0 0" fill="#fdd33a"/><path d="m151.226562 356.890625c-33.613281 0-60.863281-27.25-60.863281-60.863281v-207.855469c0-33.613281 27.25-60.863281 60.863281-60.863281h-66.625c-33.613281 0-60.863281 27.25-60.863281 60.863281v207.855469c0 33.613281 27.25 60.863281 60.863281 60.863281 20.652344 0 37.390626 16.738281 37.390626 37.390625v45.5625c0 13.453125 17.597656 18.539062 24.773437 7.152344l28.261719-44.855469c3.679687-5.839844 7.957031-11.167969 12.671875-16-3.71875-16.734375-18.625-29.25-36.472657-29.25zm0 0" fill="#e0af24"/><g fill="#6843af"><path d="m192.898438 202.132812c0 16.332032-13.242188 29.570313-29.570313 29.570313-16.332031 0-29.570313-13.238281-29.570313-29.570313 0-16.328124 13.238282-29.566406 29.570313-29.566406 16.328125 0 29.570313 13.238282 29.570313 29.566406zm0 0"/><path d="m301.316406 202.132812c0 16.332032-13.238281 29.570313-29.566406 29.570313-16.332031 0-29.570312-13.238281-29.570312-29.570313 0-16.328124 13.238281-29.566406 29.570312-29.566406 16.328125 0 29.566406 13.238282 29.566406 29.566406zm0 0"/><path d="m409.738281 202.132812c0 16.332032-13.238281 29.570313-29.566406 29.570313-16.332031 0-29.570313-13.238281-29.570313-29.570313 0-16.328124 13.238282-29.566406 29.570313-29.566406 16.328125 0 29.566406 13.238282 29.566406 29.566406zm0 0"/></g></svg>