<svg fill="none" height="512" viewBox="0 0 24 24" width="512" xmlns="http://www.w3.org/2000/svg"><g clip-rule="evenodd" fill="rgb(0,0,0)" fill-rule="evenodd"><path d="m7 8.5c0-.55228.44772-1 1-1h5.5c.8732 0 1.6123.31319 2.1304.85722.5056.5309.7446 1.22273.7446 1.89278 0 .6701-.239 1.3619-.7446 1.8928-.5181.544-1.2572.8572-2.1304.8572h-3c-.55228 0-1-.4477-1-1s.44772-1 1-1h3c.3768 0 .5752-.1243.6821-.2365.1194-.1254.1929-.3086.1929-.5135s-.0735-.38812-.1929-.51347c-.1069-.11222-.3053-.23653-.6821-.23653h-5.5c-.55228 0-1-.44772-1-1z"/><path d="m9.5 12c0-.5523.44772-1 1-1h3c.8732 0 1.6123.3132 2.1304.8572.5056.5309.7446 1.2227.7446 1.8928s-.239 1.3619-.7446 1.8928c-.5181.544-1.2572.8572-2.1304.8572h-5.5c-.55228 0-1-.4477-1-1s.44772-1 1-1h5.5c.3768 0 .5752-.1243.6821-.2365.1194-.1254.1929-.3086.1929-.5135s-.0735-.3881-.1929-.5135c-.1069-.1122-.3053-.2365-.6821-.2365h-3c-.55228 0-1-.4477-1-1z"/><path d="m10 6c.5523 0 1 .44772 1 1v10c0 .5523-.4477 1-1 1-.55228 0-1-.4477-1-1v-10c0-.55228.44772-1 1-1z"/><path d="m13 6c.5523 0 1 .44772 1 1v1.5c0 .55228-.4477 1-1 1s-1-.44772-1-1v-1.5c0-.55228.4477-1 1-1z"/><path d="m13 14.5c.5523 0 1 .4477 1 1v1.5c0 .5523-.4477 1-1 1s-1-.4477-1-1v-1.5c0-.5523.4477-1 1-1z"/><path d="m12 4c-4.41828 0-8 3.58172-8 8 0 4.4183 3.58172 8 8 8 4.4183 0 8-3.5817 8-8 0-4.41828-3.5817-8-8-8zm-10 8c0-5.52285 4.47715-10 10-10 5.5228 0 10 4.47715 10 10 0 5.5228-4.4772 10-10 10-5.52285 0-10-4.4772-10-10z"/></g></svg>