<svg fill="none" height="512" viewBox="0 0 20 24" width="512" xmlns="http://www.w3.org/2000/svg"><g fill="rgb(0,0,0)"><path d="m10.9712 1.07446c.0009-.01761.0014-.03535.0014-.05319 0-.56403-.4477-1.02127-1-1.02127-.55228 0-.99999.45724-.99999 1.02127 0 .01786.00045.0356.00134.05323.23867-.03513.47834-.05323.71778-.05323h.56197c.2394 0 .479.01808.7175.05319z"/><path d="m6.40005 20.6298c-.44182.3384-.53136.9786-.19999 1.4298 1.89997 2.5872 5.69994 2.5872 7.59984 0 .3314-.4512.2419-1.0914-.2-1.4298-.4418-.3384-1.0686-.247-1.3999.2042-1.1 1.4979-3.29998 1.4979-4.39997 0-.33136-.4512-.95816-.5426-1.39998-.2042z"/><path clip-rule="evenodd" d="m20 14.7925c.0002 1.7075-.9998 2.7075-2.468 3.1794 0 0-2.6891 1.0281-7.5319 1.0281-4.84271 0-7.5318-1.0281-7.5318-1.0281-1.46829-.4719-2.46804681-1.4235-2.46804681-3.1794-.01683509-1.2529.80880081-1.9475 1.60491681-2.6173.84251-.7088 1.65196-1.3898 1.39488-2.6752-.53175-4.5 3.12133-8.5 6.71907-8.5h.56198c3.5978 0 7.2509 4 6.7191 8.5-.2572 1.2861.544 1.9609 1.3828 2.6672.7917.6667 1.6168 1.3616 1.617 2.6253zm-15.57229-2.7045c.50662-.801.75072-1.771.5515-2.88522-.17235-1.61818.39209-3.18348 1.37095-4.36315 1.01212-1.21976 2.30014-1.83963 3.36896-1.83963h.56198c1.0689 0 2.3569.61987 3.369 1.83963.9788 1.17965 1.5433 2.74492 1.371 4.36307-.1983 1.1081.0393 2.0752.5436 2.8774.4376.6961 1.0528 1.2147 1.4297 1.5324l.0285.024c.9471.7989.9771.9231.9771 1.1562.0001.4361-.1166.6482-.2225.7757-.1274.1536-.3788.3456-.8575.4995l-.0516.0165-.0432.0165-.0032.0012c-.0088.0032-.0277.0099-.0567.0197-.058.0197-.1562.0516-.2934.092-.2745.0807-.7053.195-1.2843.3114-1.1575.2329-2.9082.4748-5.1875.4748-2.27924 0-4.02991-.2419-5.18747-.4748-.57894-.1164-1.00976-.2307-1.28427-.3114-.13725-.0404-.23539-.0723-.29339-.092-.00362-.0012-.00709-.0024-.0104-.0035-.02318-.0079-.03865-.0134-.04634-.0162l-.00314-.0011-.04321-.0166-.0516-.0166c-.50129-.1611-.74646-.349-.86479-.49-.09255-.1102-.21524-.3141-.21524-.7853v-.0135l-.00018-.0134c-.00267-.1991.0023-.3097.96336-1.1195l.02887-.0243c.37879-.319.99564-.8384 1.43541-1.5338z" fill-rule="evenodd"/></g></svg>