<svg fill="none" height="512" viewBox="0 0 24 24" width="512" xmlns="http://www.w3.org/2000/svg"><g clip-rule="evenodd" fill="rgb(0,0,0)" fill-rule="evenodd"><path d="m8 17c0-.5523.44772-1 1-1h6c.5523 0 1 .4477 1 1s-.4477 1-1 1h-6c-.55228 0-1-.4477-1-1z"/><path d="m8 13c0-.5523.44772-1 1-1h6c.5523 0 1 .4477 1 1s-.4477 1-1 1h-6c-.55228 0-1-.4477-1-1z"/><path d="m8 9c0-.55228.44772-1 1-1h1c.5523 0 1 .44772 1 1s-.4477 1-1 1h-1c-.55228 0-1-.44772-1-1z"/><path d="m8 4c-1.10457 0-2 .89543-2 2v12c0 1.1046.89543 2 2 2h8c1.1046 0 2-.8954 2-2v-9.17157c0-.26522-.1054-.51957-.2929-.70711l-3.8284-3.82843c-.1876-.18753-.4419-.29289-.7071-.29289zm-4 2c0-2.20914 1.79086-4 4-4h5.1716c.7956 0 1.5587.31607 2.1213.87868l3.8284 3.82843c.5626.56261.8787 1.32567.8787 2.12132v9.17157c0 2.2091-1.7909 4-4 4h-8c-2.20914 0-4-1.7909-4-4z"/><path d="m14 3v2c0 1.65685 1.3431 3 3 3h2v2h-2c-2.7614 0-5-2.23858-5-5v-2z"/></g></svg>