<svg height="512pt" viewBox="0 0 512 512" width="512pt" xmlns="http://www.w3.org/2000/svg"><path d="m60 15h30v60h-30zm0 0" fill="#5a5a5a"/><path d="m150 15h30v60h-30zm0 0" fill="#444"/><path d="m85.605469 244.394531-55.605469-55.605469v-35.902343l13.152344-32.886719 13.722656-30-46.03125 30-9.773438 24.433594c-.703124 1.773437-1.070312 3.664062-1.070312 5.566406v45c0 3.984375 1.582031 7.792969 4.394531 10.605469l60 60c5.859375 5.859375 15.351563 5.859375 21.210938 0s5.859375-15.351563 0-21.210938zm0 0" fill="#5a5a5a"/><path d="m238.929688 144.433594-9.773438-24.433594-44.15625-30 25 62.886719v35.902343l-55.605469 55.605469c-5.859375 5.859375-5.859375 15.351563 0 21.210938 2.929688 2.929687 6.769531 4.394531 10.605469 4.394531s7.675781-1.464844 10.605469-4.394531l60-60c2.8125-2.8125 4.394531-6.621094 4.394531-10.605469v-45c0-1.902344-.367188-3.792969-1.070312-5.566406zm0 0" fill="#444"/><path d="m467 270h-90c-8.402344 0-15 6.597656-15 15v92c0 8.398438 6.597656 15 15 15h90c8.402344 0 15-6.601562 15-15v-92c0-8.402344-6.597656-15-15-15zm0 0" fill="#fdbf00"/><path d="m482 285v92c0 8.398438-6.597656 15-15 15h-45v-122h45c8.402344 0 15 6.597656 15 15zm0 0" fill="#ff9f00"/><path d="m315 270h-90c-8.402344 0-15 6.597656-15 15v92c0 8.398438 6.597656 15 15 15h90c8.402344 0 15-6.601562 15-15v-92c0-8.402344-6.597656-15-15-15zm0 0" fill="#fdbf00"/><path d="m330 285v92c0 8.398438-6.597656 15-15 15h-60v-122h60c8.402344 0 15 6.597656 15 15zm0 0" fill="#ff9f00"/><path d="m512 15c0 8.398438-6.597656 15-15 15h-482c-8.402344 0-15-6.601562-15-15 0-8.402344 6.597656-15 15-15h482c8.402344 0 15 6.597656 15 15zm0 0" fill="#6e6e6e"/><path d="m75 362h362v150h-362zm0 0" fill="#5a5a5a"/><path d="m255 362h182v150h-182zm0 0" fill="#444"/><path d="m90 392h332v90h-332zm0 0" fill="#d3d3d8"/><path d="m255 392h167v90h-167zm0 0" fill="#babac0"/><path d="m255 362c-41.398438 0-75 33.601562-75 75s33.601562 75 75 75 75-33.601562 75-75-33.601562-75-75-75zm0 0" fill="#5a5a5a"/><path d="m330 437c0 41.398438-33.601562 75-75 75v-150c41.398438 0 75 33.601562 75 75zm0 0" fill="#444"/><path d="m255 392c-24.902344 0-45 20.097656-45 45 0 24.898438 20.097656 45 45 45s45-20.101562 45-45c0-24.902344-20.097656-45-45-45zm0 0" fill="#ececf1"/><path d="m300 437c0 24.898438-20.097656 45-45 45v-90c24.902344 0 45 20.097656 45 45zm0 0" fill="#e2e2e7"/><path d="m75 512c-41.351562 0-75-33.648438-75-75s33.648438-75 75-75 75 33.648438 75 75-33.648438 75-75 75zm0 0" fill="#5a5a5a"/><path d="m75 392c-24.8125 0-45 20.1875-45 45s20.1875 45 45 45 45-20.1875 45-45-20.1875-45-45-45zm0 0" fill="#ececf1"/><path d="m437 512c-41.351562 0-75-33.648438-75-75s33.648438-75 75-75 75 33.648438 75 75-33.648438 75-75 75zm0 0" fill="#444"/><path d="m437 392c-24.8125 0-45 20.1875-45 45s20.1875 45 45 45 45-20.1875 45-45-20.1875-45-45-45zm0 0" fill="#e2e2e7"/><path d="m452 437c0 8.285156-6.714844 15-15 15s-15-6.714844-15-15 6.714844-15 15-15 15 6.714844 15 15zm0 0" fill="#444"/><path d="m90 437c0 8.285156-6.714844 15-15 15s-15-6.714844-15-15 6.714844-15 15-15 15 6.714844 15 15zm0 0" fill="#5a5a5a"/><path d="m270 437c0 8.398438-6.597656 15-15 15s-15-6.601562-15-15c0-8.402344 6.597656-15 15-15s15 6.597656 15 15zm0 0" fill="#5a5a5a"/><path d="m270 437c0 8.398438-6.597656 15-15 15v-30c8.402344 0 15 6.597656 15 15zm0 0" fill="#444"/><path d="m165 180h-90c-8.402344 0-15 6.597656-15 15v90c0 8.398438 6.597656 15 15 15h90c8.402344 0 15-6.601562 15-15v-90c0-8.402344-6.597656-15-15-15zm0 0" fill="#fdbf00"/><path d="m180 195v90c0 8.398438-6.597656 15-15 15h-45v-120h45c8.402344 0 15 6.597656 15 15zm0 0" fill="#ff9f00"/><path d="m512 15c0 8.398438-6.597656 15-15 15h-377v-30h377c8.402344 0 15 6.597656 15 15zm0 0" fill="#5a5a5a"/><path d="m229.199219 120h-218.398438l20.398438-50.699219c2.101562-5.699219 7.800781-9.300781 13.800781-9.300781h150c6 0 11.699219 3.601562 13.800781 9.300781zm0 0" fill="#ff7816"/><path d="m229.199219 120h-109.199219v-60h75c6 0 11.699219 3.601562 13.800781 9.300781zm0 0" fill="#dd3400"/></svg>