<svg id="Capa_1" enable-background="new 0 0 512 512" height="512" viewBox="0 0 512 512" width="512" xmlns="http://www.w3.org/2000/svg"><g><g><path d="m376 512c-74.439 0-135-60.561-135-135 0-8.284 6.716-15 15-15s15 6.716 15 15c0 57.897 47.103 105 105 105 8.284 0 15 6.716 15 15s-6.716 15-15 15z" fill="#6e6e6e"/></g><g><path d="m166 122c-8.284 0-15-6.716-15-15v-92c0-8.284 6.716-15 15-15s15 6.716 15 15v92c0 8.284-6.716 15-15 15z" fill="#d2dce7"/></g><g><path d="m346 122c-8.284 0-15-6.716-15-15v-92c0-8.284 6.716-15 15-15s15 6.716 15 15v92c0 8.284-6.716 15-15 15z" fill="#a1aebc"/></g><g><path d="m406 92h-300c-8.28 0-15 6.72-15 15v60c0 8.28 6.72 15 15 15h15v75c0 74.44 60.56 135 135 135s135-60.56 135-135v-75h15c8.28 0 15-6.72 15-15v-60c0-8.28-6.72-15-15-15z" fill="#fed843"/></g><path d="m421 107v60c0 8.28-6.72 15-15 15h-15v75c0 74.44-60.56 135-135 135v-300h150c8.28 0 15 6.72 15 15z" fill="#ffb64c"/><g><path d="m296.61 267.61-30 30c-3.31 3.31-7.04 4.64-10.61 4.55-11.46-.27-21.32-15.05-10.61-25.77l10.61-10.6 4.68-4.68-4.68-2.34-36.71-18.35c-9.14-4.58-11.13-16.79-3.9-24.03l30-30c3.32-3.32 7.04-4.67 10.61-4.59 11.49.2 21.33 15.09 10.61 25.81l-10.61 10.6-4.68 4.68 4.68 2.34 36.71 18.35c9.14 4.58 11.13 16.79 3.9 24.03z" fill="#6e6e6e"/></g><g fill="#444"><path d="m266.61 207.61-10.61 10.6v-36.41c11.49.2 21.33 15.09 10.61 25.81z"/><path d="m296.61 267.61-30 30c-3.31 3.31-7.04 4.64-10.61 4.55v-36.37l4.68-4.68-4.68-2.34v-33.54l36.71 18.35c9.14 4.58 11.13 16.79 3.9 24.03z"/></g></g></svg>