<svg id="Capa_1" enable-background="new 0 0 512 512" height="512" viewBox="0 0 512 512" width="512" xmlns="http://www.w3.org/2000/svg"><g><path d="m124.69 315.11 8.954 141.891-8.954 28.809h-67.34c-8.29 0-15-6.72-15-15s6.71-15 15-15h52.34v-125.7c0-8.28 6.72-15 15-15z" fill="#80406a"/><path d="m207.04 470.81c0 8.28-6.72 15-15 15h-67.35v-170.7c8.28 0 15 6.72 15 15v125.7h52.35c8.28 0 15 6.72 15 15z" fill="#591f46"/><path d="m124.69 65.01 15.265 54.432-15.265 87.378c-63.2-25.87-55.77-96.75-55.77-96.75 6.2-1.71 10.77-7.39 10.77-14.12v-15.94c0-8.28 6.72-15 15-15z" fill="#80406a"/><path d="m124.69 206.82v-141.81h30c4.14 0 7.89 1.68 10.61 4.39 2.71 2.72 4.39 6.47 4.39 10.61v15.94c0 6.73 4.57 12.41 10.77 14.12 0 0 9.91 63.54-55.77 96.75z" fill="#591f46"/><path d="m124.69 172.78 26.284 47.745-26.284 124.585h-49.69c-8.28 0-15-6.72-15-15v-13.42l-13.69-14.21-16.31 14.21h-15c-8.28 0-15-6.72-15-15v-131.05c0-33.11 26.94-60.05 60.05-60.05 1.34 0 7.64-.18 8.87-.52 10.77 20.88 28.07 43.09 55.77 62.71z" fill="#b3d9ff"/><g><g><path d="m330.128 112.143c-8.284 0-15-6.716-15-15v-55.953c0-8.284 6.716-15 15-15s15 6.716 15 15v55.953c0 8.284-6.716 15-15 15z" fill="#e30959"/></g><g><path d="m463.987 112.143c-8.284 0-15-6.716-15-15v-55.953c0-8.284 6.716-15 15-15s15 6.716 15 15v55.953c0 8.284-6.716 15-15 15z" fill="#a2033c"/></g><path d="m397.059 132.71 57.47 142.87-57.47 100.89c0 21.55-2.68 39.22-6.67 53.57-9.18 33.02-39.36 55.77-73.62 55.77h-19.63c-11.38 0-18.62-12.18-13.17-22.17l20.22-37.15c9.2-16.9 12.03-36.55 7.95-55.37-4.18-19.3-8.78-38.99-6.94-58.86 1.71-18.45 8.2-36.01 16.37-52.5 4.45-9.01 6.91-17.44 7.67-27.6 1.69-22.34-6.43-40.64-17.71-59.2-12.25-20.16-15.02-44.68-7.55-67.06 0 0 12.9-37.69 57.04-24.87 34.09 9.9 36.04 51.68 36.04 51.68z" fill="#fe425d"/><path d="m496.979 485.81h-19.62c-34.27 0-64.46-22.75-73.63-55.77-3.99-14.35-6.67-32.02-6.67-53.57v-243.76s1.95-41.78 36.04-51.68c44.14-12.82 57.04 24.87 57.04 24.87 7.46 22.38 4.7 46.9-7.56 67.06-11.28 18.56-19.4 36.86-17.71 59.2.76 10.16 3.22 18.59 7.68 27.6 8.17 16.49 14.65 34.05 16.36 52.5 1.85 19.87-2.75 39.56-6.94 58.86-4.08 18.82-1.25 38.47 7.96 55.37l20.22 37.15c5.45 9.99-1.79 22.17-13.17 22.17z" fill="#e30959"/></g><path d="m30 316.69h30v-115c0-8.284-6.716-15-15-15-8.284 0-15 6.716-15 15z" fill="#80bfff"/><path d="m249.38 170.64v131.05c0 8.28-6.72 15-15 15h-15l-15-14.49-15 14.49v13.42c0 8.28-6.72 15-15 15h-49.69v-172.33c27.7-19.62 45-41.83 55.77-62.71 1.23.34 7.53.52 8.87.52 33.11 0 60.05 26.94 60.05 60.05z" fill="#80bfff"/><path d="m219.38 316.69h-30v-115c0-8.284 6.716-15 15-15 8.284 0 15 6.716 15 15z" fill="#69f"/></g></svg>