<svg height="512" viewBox="0 0 64 64" width="512" xmlns="http://www.w3.org/2000/svg"><g id="_04-Paper_bag" data-name="04-Paper bag"><path d="m63 18s-2 9-10 9h-.33a5.869 5.869 0 0 0 .33-2c.44-.84 1.18-2.12 1.83-3.42a13.99 13.99 0 0 0 1.03-2.62l.14.04a12.375 12.375 0 0 1 3.86-.85 30.862 30.862 0 0 1 3.14-.15z" fill="#598019"/><path d="m59.86 18.15a12.375 12.375 0 0 0 -3.86.85l-.14-.04.14-.96v-2.2a5.941 5.941 0 0 1 .21-1.57l.55-2.03a7.086 7.086 0 0 0 .2-1.33h.05c.07-.57.61-2.87 4.99-2.87 0 0 0 7.29-2.16 10z" fill="#346c2f"/><path d="m43.71 4.12a3.1 3.1 0 0 1 -1.68 1.45 3.037 3.037 0 0 0 -2.03 2.81v5.62a3.1 3.1 0 0 1 -2.98-3 1.055 1.055 0 0 1 -.02-.25v-5.19a2.162 2.162 0 0 1 1.48-2.05l.67-.23a2.183 2.183 0 0 0 1.25-1.08 2.165 2.165 0 0 1 1.94-1.2h3.6a1.823 1.823 0 0 0 -1.88 1.76 2.782 2.782 0 0 1 -.35 1.36z" fill="#b9d671"/><path d="m53 3a2.265 2.265 0 0 1 2 2 2.221 2.221 0 0 0 1 2 2.211 2.211 0 0 1 1 2v1c0 .23-.01.54-.04.87a7.086 7.086 0 0 1 -.2 1.33l-.55 2.03a5.941 5.941 0 0 0 -.21 1.57v2.2l-.14.96a13.99 13.99 0 0 1 -1.03 2.62c-.65 1.3-1.39 2.58-1.83 3.42v-17a4.69 4.69 0 0 0 -1.07-2.92 4.354 4.354 0 0 0 -.5-.55 9.948 9.948 0 0 0 -.89-.74 1.481 1.481 0 0 1 -.48-.79z" fill="#b9d671"/><path d="m53 12.43v10.57a17.924 17.924 0 0 0 -1.22-6.12 30.752 30.752 0 0 0 -1.78-3.91c-.03-.45-.25-5.66 1.93-7.89a4.69 4.69 0 0 1 1.07 2.92z" fill="#89b029"/><path d="m53 23v1c-2.36-3.05-9-5-9-5v-1.06a4.08 4.08 0 0 0 -1.93-2.46s5.78-.74 9.71 1.4a17.924 17.924 0 0 1 1.22 6.12z" fill="#88ab00"/><path d="m40 10.14v-1.76a3.037 3.037 0 0 1 2.03-2.81 3.1 3.1 0 0 0 1.68-1.45 48.207 48.207 0 0 1 6.29 8.85v.03c-3.93-3.05-9.5-2.86-9.5-2.86z" fill="#88ab00"/><path d="m50.06 3a1.481 1.481 0 0 0 .48.79 9.948 9.948 0 0 1 .89.74 4.354 4.354 0 0 1 .5.55c-2.18 2.23-1.96 7.44-1.93 7.89a48.207 48.207 0 0 0 -6.29-8.85 2.782 2.782 0 0 0 .35-1.36 1.823 1.823 0 0 1 1.88-1.76h2.47a1.588 1.588 0 0 1 1.59 1.59 1.4 1.4 0 0 0 .06.41z" fill="#93bd2c"/><path d="m40.5 10.14s5.57-.19 9.5 2.86v-.03a30.752 30.752 0 0 1 1.78 3.91c-3.93-2.14-9.71-1.4-9.71-1.4a7.978 7.978 0 0 1 -1.39-.92c-.4-.31-.68-.56-.68-.56v-3.86z" fill="#80a100"/><path d="m44 19s6.64 1.95 9 5v1a5.869 5.869 0 0 1 -.33 2h-5.11a10.456 10.456 0 0 0 -2-5.01 5.581 5.581 0 0 1 -1.56-2.99z" fill="#80a100"/><path d="m43 22c0-3.07-3.35-5.59-7.68-5.95l.01-.05a1.432 1.432 0 0 1 -.33-1v-2a2.006 2.006 0 0 1 2-2h.02a3.1 3.1 0 0 0 2.98 3s.28.25.68.56a7.978 7.978 0 0 0 1.39.92 4.08 4.08 0 0 1 1.93 2.46v1.06a5.581 5.581 0 0 0 1.56 2.99 10.456 10.456 0 0 1 2 5.01h-5.26a17.663 17.663 0 0 0 .7-5z" fill="#628c1b"/><path d="m59.914 12.824a1 1 0 0 1 -1.914-.406v-3.16a2.793 2.793 0 0 0 -.99 1.742h-.05a7.086 7.086 0 0 1 -.2 1.33l-.55 2.03a5.941 5.941 0 0 0 -.21 1.57v2.2l-.14.96.14.04a12.375 12.375 0 0 1 3.86-.85l-.02-.15c2.16-2.71 2.16-10 2.16-10z" fill="#335e33"/><path d="m55.817 21.142.665-2.329a4.363 4.363 0 0 0 -.482.187l-.14-.04a13.99 13.99 0 0 1 -1.03 2.62c-.65 1.3-1.39 2.58-1.83 3.42a5.869 5.869 0 0 1 -.33 2h.33c8 0 10-9 10-9l-5.622 4.216a1 1 0 0 1 -1.561-1.074z" fill="#346c2f"/><path d="m55.253 18.848a1.036 1.036 0 0 1 -.851-.469 1.977 1.977 0 0 1 -.3-.935 4.2 4.2 0 0 1 .3-2.068c.333-.793.923-1.585.722-2.418a7.227 7.227 0 0 0 -.517-1.1c-.479-1.111 0-2.367.056-3.57a2.263 2.263 0 0 0 -.287-1.353c-.157-.239-.381-.432-.536-.672-.315-.488-.318-1.134-.693-1.579a7.971 7.971 0 0 0 -.655-.571.79.79 0 0 1 -.29-.762.738.738 0 0 1 .282-.351h-2.424a1.481 1.481 0 0 0 .48.79 9.948 9.948 0 0 1 .89.74 4.354 4.354 0 0 1 .5.55 4.69 4.69 0 0 1 1.07 2.92v17c.44-.84 1.18-2.12 1.83-3.42a13.99 13.99 0 0 0 1.03-2.62l.048-.331c-.02.01-.039.023-.059.033a1.432 1.432 0 0 1 -.596.186z" fill="#9fc73d"/><path d="m42.41 2.771a2.591 2.591 0 0 1 -1.639 1.639 2.59 2.59 0 0 0 -1.771 2.457v2.133a1 1 0 0 1 -2 0v1.75a1.055 1.055 0 0 0 .02.25 3.1 3.1 0 0 0 2.98 3v-5.62a3.037 3.037 0 0 1 2.03-2.81 3.1 3.1 0 0 0 1.68-1.45 2.782 2.782 0 0 0 .35-1.36 1.823 1.823 0 0 1 1.88-1.76h-1.073a2.589 2.589 0 0 0 -2.457 1.771z" fill="#9fc73d"/><path d="m45.56 21.99a5.581 5.581 0 0 1 -1.56-2.99v-1.06a4.08 4.08 0 0 0 -1.93-2.46 7.978 7.978 0 0 1 -1.39-.92c-.4-.31-.68-.56-.68-.56a3.1 3.1 0 0 1 -2.98-3h-.02a1.975 1.975 0 0 0 -1 .279v.429a3 3 0 0 0 2.073 2.852c1.5.49 3.359 1.3 3.927 2.44a22.334 22.334 0 0 0 2.083 4.458.994.994 0 0 1 -.835 1.542h-.283a17.361 17.361 0 0 1 -.665 4h5.26a10.456 10.456 0 0 0 -2-5.01z" fill="#4d6e15"/><path d="m53 25v-4.583a20.964 20.964 0 0 0 -.985-3.626 31.178 31.178 0 0 0 -1.768-3.891c-.022-.468-.2-5.414 1.824-7.617-.049-.067-.088-.141-.141-.206s-.115-.124-.171-.188l-.008.011c-1.744 1.785-2 5.326-2.019 7.071a49.067 49.067 0 0 0 -5.832-8.021c-.009-.01-.044-.042-.054-.051s-.024-.011-.034-.021a2.543 2.543 0 0 1 -.1.242c-.04.076-.094.143-.14.216a48.5 48.5 0 0 1 5.713 7.864 17.238 17.238 0 0 0 -8.794-2.312.25.25 0 0 0 .018.5c.047-.007 5.5-.152 9.318 2.794a30.6 30.6 0 0 1 1.473 3.185c-3.905-1.788-9.033-1.165-9.261-1.135a.238.238 0 0 0 -.174.126c.069.039.138.088.206.122a2.934 2.934 0 0 1 .33.217c1.2-.11 5.863-.395 9.177 1.362a17.622 17.622 0 0 1 1.172 5.941v.333c-2.653-2.778-8.421-4.5-8.68-4.575-.024-.007-.046.008-.07.008v.234a2.011 2.011 0 0 0 .026.267c.8.248 6.552 2.1 8.724 4.824v.909a5.686 5.686 0 0 1 -.315 1.917c-.011.028 0 .054 0 .083h.231a5.869 5.869 0 0 0 .334-2z" fill="#b9d671"/><path d="m24 11c5.83 0 10 5 10 5h-1.17c-7.48-.15-8.83-5-8.83-5z" fill="#80a100"/><path d="m34 14v2s-4.17-5-10-5a11.536 11.536 0 0 1 2.4-.81 6.914 6.914 0 0 1 1.63-.19h.14c3.33 0 5.45 1.63 5.83 4z" fill="#a1c203"/><path d="m32.83 16h1.41c.37 0 .72.02 1.08.05 4.33.36 7.68 2.88 7.68 5.95a17.663 17.663 0 0 1 -.7 5h-18.6a17.663 17.663 0 0 1 -.7-5 4.582 4.582 0 0 1 1.1-2.91c1.49-1.85 4.36-3.09 7.66-3.09z" fill="#db3744"/><path d="m38.5 25h-7a4.491 4.491 0 0 1 -.225-8.977 9.7 9.7 0 0 0 -7.175 3.067 4.582 4.582 0 0 0 -1.1 2.91 17.663 17.663 0 0 0 .7 5h18.6a17.663 17.663 0 0 0 .7-5 4.154 4.154 0 0 0 -.076-.749 4.491 4.491 0 0 1 -4.424 3.749z" fill="#ad313b"/><path d="m36.269 17.724c-.41.079-.866.308-.921.721-.06.449.376.789.754 1.037a28.205 28.205 0 0 1 2.383 1.741c.44.358.993.754 1.523.552a.991.991 0 0 0 .448-.367 1.539 1.539 0 0 0 .15-1.335 3.027 3.027 0 0 0 -.622-1.116 4.449 4.449 0 0 0 -3.715-1.233z" fill="#f66"/><path d="m32 6-.01.12a16 16 0 0 0 -1.99-.12s-5-1-5-4h3c3 0 4 4 4 4z" fill="#a1c203"/><path d="m37 8.6v2.15a1.055 1.055 0 0 0 .02.25h-.02a2.006 2.006 0 0 0 -2 2v2a1.432 1.432 0 0 0 .33 1l-.01.05c-.36-.03-.71-.05-1.08-.05h-.24v-2c-.38-2.37-2.5-4-5.83-4h-.14a6.914 6.914 0 0 0 -1.63.19 11.536 11.536 0 0 0 -2.4.81v-2a2.061 2.061 0 0 0 -.34-1.13c1.47-1.34 3.76-1.87 6.34-1.87a16 16 0 0 1 1.99.12 7.08 7.08 0 0 1 5.01 2.48z" fill="#ff9b00"/><path d="m24 19v-8s1.35 4.85 8.83 5h-1.07c-3.3 0-6.17 1.24-7.66 3.09z" fill="#f1671c"/><path d="m37 10.75v-.75c-5.077 0-10.1-1.511-10.882-3.47a6.5 6.5 0 0 0 -2.458 1.34 2.061 2.061 0 0 1 .34 1.13v2a11.536 11.536 0 0 1 2.4-.81 6.914 6.914 0 0 1 1.63-.19h.14c3.33 0 5.45 1.63 5.83 4v2h.24c.37 0 .72.02 1.08.05l.01-.05a1.432 1.432 0 0 1 -.33-1v-2a2.006 2.006 0 0 1 2-2h.02a1.055 1.055 0 0 1 -.02-.25z" fill="#f1671c"/><path d="m30 6a16 16 0 0 1 1.99.12l.01-.12-7-4c0 3 5 4 5 4z" fill="#88ab00"/><path d="m21.24 24.27 2.16 2.73h-9.95l-2.55-2.03a4.4 4.4 0 0 1 -1.15-5.41c.05-.07.1-.16.15-.24a4.512 4.512 0 0 1 1.42-1.42c.08-.05.17-.1.24-.15a4.428 4.428 0 0 1 5.09.78 3.867 3.867 0 0 1 .32.37z" fill="#ff9b00"/><g fill="#88ab00"><path d="m9.27 19.14.48.42a4.258 4.258 0 0 0 -.47 2.25l-6.31-.48a1.852 1.852 0 0 1 -1.15-.54l-.28-.28a1.833 1.833 0 0 1 1.79-3.06z"/><path d="m11.56 17.75c-.07.05-.16.1-.24.15a4.512 4.512 0 0 0 -1.42 1.42c-.05.08-.1.17-.15.24l-.48-.42-5.6-4.73a1.956 1.956 0 0 1 0-2.74 1.931 1.931 0 0 1 2.74 0l4.73 5.6z"/><path d="m9.92 9.54a1.823 1.823 0 0 1 2.59 0l.28.28a1.852 1.852 0 0 1 .54 1.15l.46 6.05.02.26a4.258 4.258 0 0 0 -2.25.47l-.42-.48-1.69-5.94a1.819 1.819 0 0 1 .47-1.79z"/></g><path d="m16.12 25a2.7 2.7 0 0 1 -1.912-.792l-2.382-2.382a2.7 2.7 0 0 1 1.189-4.517 4.418 4.418 0 0 0 -1.455.441c-.07.05-.16.1-.24.15a4.512 4.512 0 0 0 -1.42 1.42c-.05.08-.1.17-.15.24a4.4 4.4 0 0 0 1.15 5.41l2.55 2.03h9.95l-1.582-2z" fill="#f37924"/><path d="m9.75 19.56-.48-.42-.735-.209-.213.424a1 1 0 0 1 -1.036.543l-5.186-.741a.993.993 0 0 1 -.841-.863 1.819 1.819 0 0 0 .281 2.216l.28.28a1.852 1.852 0 0 0 1.15.54l6.31.48a4.258 4.258 0 0 1 .47-2.25z" fill="#628c1b"/><path d="m11.14 17.27-.376-.446-.4.267a2 2 0 0 1 -2.523-.25l-3.116-3.116a1.992 1.992 0 0 1 -.225-2.538 1.94 1.94 0 0 0 -.83 3.223l5.6 4.73.48.42c.05-.07.1-.16.15-.24a4.512 4.512 0 0 1 1.42-1.42c.08-.05.17-.1.24-.15z" fill="#628c1b"/><path d="m13.68 15.58-.6.151a1 1 0 0 1 -1.233-.829l-.647-4.475a1.977 1.977 0 0 1 .344-1.395 1.835 1.835 0 0 0 -2.1 2.3l1.69 5.94.42.48a4.258 4.258 0 0 1 2.25-.47l-.02-.26z" fill="#628c1b"/><path d="m14.559 22.221a.5.5 0 1 0 .705.708l2.736-2.729-.613-.772a.537.537 0 0 0 -.081.053z" fill="#f37924"/><path d="m19.429 25 1.33-1.335-.626-.788-2.116 2.123z" fill="#f37924"/><path d="m17.676 25.342a.5.5 0 0 0 0 .707.492.492 0 0 0 .352.146.5.5 0 0 0 .355-.147l1.046-1.048h-1.412z" fill="#e95410"/><path d="m12.866 18.574a.718.718 0 0 0 -.455.517.558.558 0 0 0 .249.476 1.57 1.57 0 0 0 .515.218c.594.168 1.195.313 1.8.422a.874.874 0 0 0 .838-.15.617.617 0 0 0 .127-.345 1.02 1.02 0 0 0 -.214-.71 2.592 2.592 0 0 0 -2.86-.428z" fill="#fbcb00"/><path d="m17 3h4v4h-4z" fill="#30cfff"/><path d="m24 9v2h-10v-2a2.006 2.006 0 0 1 2-2h6a1.98 1.98 0 0 1 2 2z" fill="#e7f5f5"/><path d="m24.1 19.09-.1-.09v-8h-10v6.305a4.269 4.269 0 0 1 2.65 1.225 3.867 3.867 0 0 1 .32.37l4.27 5.37 2.16 2.73h.3a17.663 17.663 0 0 1 -.7-5 4.582 4.582 0 0 1 1.1-2.91z" fill="#30cfff"/><path d="m17 9a2 2 0 0 1 2-2h-3a2.006 2.006 0 0 0 -2 2v2h3z" fill="#cedada"/><path d="m24.1 19.09-.1-.09v-3.5a3.5 3.5 0 0 1 -7 0v-4.5h-3v6.305a4.269 4.269 0 0 1 2.65 1.225 3.867 3.867 0 0 1 .32.37l4.27 5.37 2.16 2.73h.3a17.663 17.663 0 0 1 -.7-5 4.582 4.582 0 0 1 1.1-2.91z" fill="#01a3ec"/><path d="m17 3v4h4v-1h-2a1 1 0 0 1 -1-1v-2z" fill="#01a3ec"/><path d="m19 3h1v3h-1z" fill="#01a3ec"/><path d="m23 10a1 1 0 0 0 -2 0v1h2z" fill="#fff"/><path d="m21 11v4a1 1 0 0 0 2 0v-4z" fill="#99efff"/><ellipse cx="28" cy="38" fill="#88ab00" rx="7" ry="3"/><path d="m49 27v30l-4 6v-36h2.56z" fill="#e5aa5c"/><path d="m45 27v36h-32l-2-2v-34zm-10 11c0-1.66-3.13-3-7-3s-7 1.34-7 3 3.13 3 7 3 7-1.34 7-3z" fill="#fad27a"/><path d="m52.67 27h-3.67v30l4 4v-34z" fill="#d28e43"/><path d="m45 63 8-2-4-4z" fill="#a15c27"/><path d="m28 34.5c-4.276 0-7.5 1.505-7.5 3.5s3.224 3.5 7.5 3.5 7.5-1.505 7.5-3.5-3.224-3.5-7.5-3.5zm0 6.5c-3.866 0-7-1.343-7-3s3.134-3 7-3 7 1.343 7 3-3.134 3-7 3z" fill="#faab1b"/><path d="m30 59a14 14 0 0 1 -14-14v-18h-5v34l2 2h32v-4z" fill="#f5b662"/></g></svg>