<svg id="Layer_1" enable-background="new 0 0 512 512" height="512" viewBox="0 0 512 512" width="512" xmlns="http://www.w3.org/2000/svg"><g><path d="m374.66 397.855h-359.341v-46.699c0-55.773 45.213-100.986 100.986-100.986h83.078l21.724 73.414c1.985 6.709 8.148 11.312 15.144 11.312h60.594c8.722 0 15.793-7.071 15.793-15.793v-85.359c0-38.198 30.966-69.163 69.163-69.163l23.343 110.662h26.801c35.333 0 49.225 26.11 49.225 61.443l-6.822.533h-30.467z" fill="#ff3f5c"/><path d="m431.945 275.241h-26.801l-23.342-110.661c-38.198 0-69.163 30.966-69.163 69.163v85.359c0 8.722-7.071 15.793-15.793 15.793h-41.226v62.96h119.04l69.22-60.637h38.703c7.65 0 13.42-7.118 11.648-14.56-6.631-27.843-32.001-47.417-62.286-47.417z" fill="#cd2f44"/><g><path d="m486.43 337.217c5.384 0 9.545-4.809 8.686-10.124-4.875-30.177-31.302-51.852-63.171-51.852h-26.801v95.909l38.736-33.933z" fill="#ae0551"/></g><g><path d="m164.147 397.855c0 33.783-27.387 61.17-61.17 61.17s-61.17-27.387-61.17-61.17" fill="#e3dff6"/><path d="m102.977 474.024c-42 0-76.17-34.17-76.17-76.17 0-8.284 6.716-15 15-15s15 6.716 15 15c0 25.458 20.712 46.17 46.17 46.17s46.17-20.712 46.17-46.17c0-8.284 6.716-15 15-15s15 6.716 15 15c0 42-34.169 76.17-76.17 76.17z" fill="#00485b"/></g><path d="m211.203 250.17h-165.709c-17.189 0-31.124-13.934-31.124-31.124 0-17.189 13.934-31.124 31.124-31.124h135.152c25.627 0 46.402 20.775 46.402 46.402 0 8.752-7.094 15.846-15.845 15.846z" fill="#00485b"/><path d="m14.534 405.701c-5.985 0-10.629-5.168-10.064-11.126 4.885-51.529 43.561-90.804 96.69-90.804 53.1 0 94.927 39.231 100.269 90.718.621 5.987-4.037 11.212-10.056 11.212z" fill="#ff7d43"/><g><path d="m149.533 129.443h-134.533c-8.284 0-15-6.716-15-15s6.716-15 15-15h134.533c8.284 0 15 6.716 15 15s-6.716 15-15 15z" fill="#f6efea"/></g><g><path d="m200.526 67.976h-135.693c-8.284 0-15-6.716-15-15s6.716-15 15-15h135.693c8.284 0 15 6.716 15 15s-6.716 15-15 15z" fill="#e3dff6"/></g><g><path d="m321.846 151.955h-51.873c-8.284 0-15-6.716-15-15s6.716-15 15-15h51.873c8.284 0 15 6.716 15 15s-6.716 15-15 15z" fill="#cd2f44"/></g><path d="m389.587 94.465h-75.396c-7.231 0-13.093 5.862-13.093 13.093v58.794c0 7.231 5.862 13.093 13.093 13.093h75.396c23.429 0 42.49-19.06 42.49-42.489s-19.06-42.491-42.49-42.491z" fill="#ff3f5c"/><circle cx="435.83" cy="397.855" fill="#b7b3e2" r="61.17"/><g fill="#00303d"><path d="m435.83 474.024c-42 0-76.17-34.17-76.17-76.17s34.17-76.169 76.17-76.169 76.17 34.169 76.17 76.169-34.17 76.17-76.17 76.17zm0-122.339c-25.458 0-46.17 20.711-46.17 46.169s20.712 46.17 46.17 46.17 46.17-20.711 46.17-46.17-20.712-46.169-46.17-46.169z"/><circle cx="435.83" cy="397.855" r="15.099"/></g></g></svg>