<svg id="Layer_1" enable-background="new 0 0 512 512" viewBox="0 0 512 512" xmlns="http://www.w3.org/2000/svg"><g><g><path d="m15 110.296h60.349v291.408h-60.349z" fill="#9df"/><path d="m75.349 416.704h-60.349c-8.284 0-15-6.716-15-15v-291.408c0-8.284 6.716-15 15-15h60.349c8.284 0 15 6.716 15 15s-6.716 15-15 15h-45.349v261.408h45.349c8.284 0 15 6.716 15 15s-6.716 15-15 15z" fill="#ea9c62"/></g><g><path d="m434.943 110.296h62.057v291.408h-62.057z" fill="#acc63e"/><path d="m497 416.704h-62.057c-8.284 0-15-6.716-15-15s6.716-15 15-15h47.057v-261.408h-47.057c-8.284 0-15-6.716-15-15s6.716-15 15-15h62.057c8.284 0 15 6.716 15 15v291.408c0 8.284-6.716 15-15 15z" fill="#635550"/></g><path d="m429.849 446.639h-349.406c-8.801 0-15.936-7.135-15.936-15.936v-349.406c0-8.801 7.135-15.936 15.936-15.936h349.406c8.801 0 15.936 7.135 15.936 15.936v349.406c0 8.801-7.135 15.936-15.936 15.936z" fill="#c9885b"/><path d="m429.849 65.361h-174.703v381.277h174.703c8.801 0 15.936-7.135 15.936-15.936v-349.405c0-8.801-7.135-15.936-15.936-15.936z" fill="#b56d3c"/><path d="m255.146 231.511c-87.044-12.88-123.094-57.701-136.36-94.951v255.8h272.72v-16.92c-13.266-37.251-49.316-131.049-136.36-143.929z" fill="#fff2e6"/><path d="m255.146 231.511v160.849h136.36v-16.92c-13.267-37.251-49.316-131.049-136.36-143.929z" fill="#eae4e4"/><path d="m391.506 375.44v-255.8h-136.36l-21.89 68.18 21.89 68.18c87.044 12.88 123.094 82.189 136.36 119.44z" fill="#ff4a4a"/><path d="m255.146 256v-136.36h-136.36v16.921c13.266 37.25 49.316 106.559 136.36 119.439z" fill="#ffcf83"/></g><g/><g/><g/><g/><g/><g/><g/><g/><g/><g/><g/><g/><g/><g/><g/></svg>