<svg id="Layer_1" enable-background="new 0 0 511.23 511.23" height="512" viewBox="0 0 511.23 511.23" width="512" xmlns="http://www.w3.org/2000/svg"><g><path d="m455.934 428.71c-6.854 4.578-16.193 2.759-20.8-4.16l-36.2-54.31 7.36 34.89c1.971 9.387-5.21 18.1-14.68 18.1h-176c-9.477 0-16.649-8.721-14.68-18.1l18.09-85.72c-120.336 42.469-111.714 39.82-115.41 39.82-6.18 0-11.97-3.85-14.15-10.01-2.75-7.81 1.35-16.38 9.16-19.14l133.75-47.2c3.78-1.33 7.72-1.05 11.11.47h122.19c5.84-1.24 12.1 1.07 15.61 6.34l78.81 118.22c4.6 6.89 2.73 16.21-4.16 20.8z" fill="#00e872"/><path d="m455.934 428.71c-6.854 4.578-16.193 2.759-20.8-4.16l-36.2-54.31 7.36 34.89c1.971 9.387-5.21 18.1-14.68 18.1h-88v-139.88h62.06c5.84-1.24 12.1 1.07 15.61 6.34l78.81 118.22c4.6 6.89 2.73 16.21-4.16 20.8z" fill="#00b484"/><path d="m430.614 496.23c0 8.28-6.72 15-15 15h-224c-8.28 0-15-6.72-15-15s6.72-15 15-15h40.71l-30.37-66.79c-2.736-5.978-.807-10.746 1.66-21.21h200c2.308 9.758 2.982 11.36 3 15.26.019 4.117.911.999-31.71 72.74h40.71c8.28 0 15 6.72 15 15z" fill="#fe7c4a"/><path d="m430.614 496.23c0 8.28-6.72 15-15 15h-112v-118h100c2.308 9.758 2.982 11.36 3 15.26.019 4.117.911.999-31.71 72.74h40.71c8.28 0 15 6.72 15 15z" fill="#ff3c5a"/><path d="m288.614 393.23h30v118h-30z" fill="#ff3c5a"/><path d="m303.614 393.23h15v118h-15z" fill="#f6004d"/><path d="m406.614 255.73c0 21.295-12.194 39.306-28.18 53.79-27.91 25.28-67.96 40.17-69.65 40.79-3.237 1.182-6.862 1.27-10.34 0-1.69-.62-41.74-15.51-69.65-40.79-15.981-14.48-28.18-32.491-28.18-53.79 0-21.58 5.2-37.61 17.87-54.83 2.56-4.61 7.48-7.73 13.13-7.73h144c5.29 0 9.94 2.73 12.61 6.87 13.05 17.49 18.39 33.7 18.39 55.69z" fill="#ffe3c0"/><path d="m406.614 255.73c0 21.295-12.194 39.306-28.18 53.79-27.91 25.28-67.96 40.17-69.65 40.79-1.67.61-3.42.92-5.17.92v-158.06h72c5.29 0 9.94 2.73 12.61 6.87 13.05 17.49 18.39 33.7 18.39 55.69z" fill="#fcd0a2"/><path d="m401.264 223.23h-195.25c14.825-28.834-.149 7.755 83.54-213.47 4.844-12.984 23.277-12.979 28.12 0 84.495 222.436 69.584 185.764 83.59 213.47z" fill="#fe7c4a"/><path d="m401.264 223.23h-97.65v-223.23c6.26 0 11.87 3.89 14.06 9.76 84.495 222.436 69.584 185.764 83.59 213.47z" fill="#ff3c5a"/><path d="m158.614 416.23v40c0 30.33-24.67 55-55 55s-55-24.67-55-55v-40c0-8.28 6.72-15 15-15h25v-169c0-8.28 6.72-15 15-15s15 6.72 15 15v169h25c8.28 0 15 6.72 15 15z" fill="#0a789b"/><path d="m158.614 416.23v40c0 30.33-24.67 55-55 55v-294c8.28 0 15 6.72 15 15v169h25c8.28 0 15 6.72 15 15z" fill="#0a617d"/></g></svg>