<svg fill="none" height="512" viewBox="0 0 24 24" width="512" xmlns="http://www.w3.org/2000/svg"><g fill="rgb(0,0,0)"><path d="m21.598 11.0641c-.1204-.0908-.2596-.1534-.4075-.1832-.1478-.0298-.3004-.026-.4465.0112-.2424.0677-.4924.104-.744.108-1.654 0-3-1.34599-3.003-2.93699.005-.034.016-.136.017-.17.0065-.15633-.0238-.31201-.0886-.45447-.0647-.14245-.162-.26769-.2841-.36561-.122-.09791-.2654-.16575-.4185-.19805s-.3116-.02814-.4628.01213c-.2474.0705-.5029.10848-.76.113-1.654 0-3-1.346-3-3 0-.217.031-.444.099-.716.0384-.15525.0391-.31748.002-.47306-.0372-.15558-.1112-.29997-.2157-.42105-.1045-.12109-.2366-.21533-.3851-.27482-.1484-.05948-.309-.08248-.4682-.06707-2.47658.23082-4.77702 1.38027-6.44859 3.22211-1.67157 1.84183-2.59319 4.24264-2.58346 6.72988 0 5.514 4.486 10 10.00005 10 5.514 0 10-4.486 10-10 0-.049-.003-.097-.007-.16-.0034-.1507-.0407-.2987-.109-.433-.0684-.1344-.1662-.2516-.286-.343zm-9.598 8.936c-4.41105 0-8.00005-3.589-8.00005-8-.00713-1.7767.58021-3.50476 1.66856-4.90914s2.61516-2.40438 4.33749-2.84085c.0655 1.28074.6201 2.48747 1.5493 3.37129.9293.88381 2.1622 1.37732 3.4447 1.37871l.101-.001c.2294 1.11829.8342 2.12449 1.7139 2.85199s1.9816 1.1326 3.1231 1.148c-.494 3.942-3.865 7.001-7.938 7.001z"/><path d="m10.5 18c.8284 0 1.5-.6716 1.5-1.5s-.6716-1.5-1.5-1.5c-.82843 0-1.5.6716-1.5 1.5s.67157 1.5 1.5 1.5z"/><path d="m15.5 17c.8284 0 1.5-.6716 1.5-1.5s-.6716-1.5-1.5-1.5-1.5.6716-1.5 1.5.6716 1.5 1.5 1.5z"/><path d="m7.5 14c.82843 0 1.5-.6716 1.5-1.5s-.67157-1.5-1.5-1.5-1.5.6716-1.5 1.5.67157 1.5 1.5 1.5z"/><path d="m12.5 13c.8284 0 1.5-.6716 1.5-1.5s-.6716-1.5-1.5-1.5-1.5.6716-1.5 1.5.6716 1.5 1.5 1.5z"/><path d="m8.5 10c.82843 0 1.5-.67157 1.5-1.5s-.67157-1.5-1.5-1.5-1.5.67157-1.5 1.5.67157 1.5 1.5 1.5z"/></g></svg>