<svg height="512pt" viewBox="0 0 512 512" width="512pt" xmlns="http://www.w3.org/2000/svg"><path d="m512 256c0 141.386719-114.613281 256-256 256s-256-114.613281-256-256 114.613281-256 256-256 256 114.613281 256 256zm0 0" fill="#ffd400"/><path d="m509.035156 295.066406-68.390625-68.394531-43.550781 47.695313-120.664062-120.667969-12.757813 41.601562-45.121094-45.121093-135.25 194.070312 167.6875 167.6875c1.667969.03125 3.335938.0625 5.011719.0625 128.101562 0 234.226562-94.09375 253.035156-216.933594zm0 0" fill="#fdba12"/><path d="m76.652344 220.851562 73.78125-73.695312c8.667968-8.660156 20.421875-13.523438 32.675781-13.523438 25.539063 0 46.242187 20.703126 46.242187 46.238282v107.96875zm0 0" fill="#2f4056"/><path d="m435.347656 220.851562-73.78125-73.695312c-8.667968-8.660156-20.421875-13.523438-32.675781-13.523438-25.539063 0-46.242187 20.703126-46.242187 46.238282v107.96875zm0 0" fill="#23272b"/><path d="m256 145.179688c15.882812 0 28.757812 12.875 28.757812 28.757812v105.019531h-57.515624v-105.019531c0-15.882812 12.875-28.757812 28.757812-28.757812zm0 0" fill="#555a66"/><path d="m284.757812 173.9375c0-15.882812-12.875-28.757812-28.757812-28.757812-.261719 0-.523438.011718-.785156.019531v133.757812h29.542968zm0 0" fill="#4a5f7c"/><path d="m289.351562 278.960938c0 18.417968-14.933593 33.347656-33.351562 33.347656s-33.351562-14.929688-33.351562-33.347656c0-18.421876 14.933593-33.351563 33.351562-33.351563s33.351562 14.929687 33.351562 33.351563zm0 0" fill="#2f4056"/><path d="m256 245.605469c-.261719 0-.523438.015625-.785156.023437v66.660156c.261718.007813.519531.019532.785156.019532 18.417969 0 33.351562-14.929688 33.351562-33.351563 0-18.417969-14.933593-33.351562-33.351562-33.351562zm0 0" fill="#23272b"/><path d="m228.816406 278.960938c0 48.273437-39.132812 87.40625-87.40625 87.40625-48.277344 0-87.410156-39.132813-87.410156-87.40625 0-48.277344 39.132812-87.410157 87.410156-87.410157 48.273438 0 87.40625 39.132813 87.40625 87.410157zm0 0" fill="#4a5f7c"/><path d="m206.699219 278.960938c0 36.058593-29.230469 65.289062-65.289063 65.289062s-65.292968-29.230469-65.292968-65.289062c0-36.0625 29.234374-65.292969 65.292968-65.292969s65.289063 29.230469 65.289063 65.292969zm0 0" fill="#277bd6"/><path d="m458 278.960938c0 48.273437-39.132812 87.40625-87.410156 87.40625-48.273438 0-87.40625-39.132813-87.40625-87.40625 0-48.277344 39.132812-87.410157 87.40625-87.410157 48.277344 0 87.410156 39.132813 87.410156 87.410157zm0 0" fill="#2f4056"/><path d="m435.882812 278.960938c0 36.058593-29.234374 65.289062-65.292968 65.289062s-65.289063-29.230469-65.289063-65.289062c0-36.0625 29.230469-65.292969 65.289063-65.292969s65.292968 29.230469 65.292968 65.292969zm0 0" fill="#1471c6"/><path d="m96.84375 258.417969 19.175781-19.175781 12.726563 12.726562-19.175782 19.175781zm0 0" fill="#fff"/><path d="m104.375 294.265625 47.492188-47.496094 12.726562 12.730469-47.492188 47.492188zm0 0" fill="#fff"/><g fill="#e9edf5"><path d="m325.117188 258.417969 19.175781-19.171875 12.726562 12.726562-19.175781 19.171875zm0 0"/><path d="m332.648438 294.269531 47.492187-47.496093 12.730469 12.726562-47.496094 47.496094zm0 0"/></g></svg>