<svg width="40" height="40" viewBox="0 0 40 40" fill="none" xmlns="http://www.w3.org/2000/svg">
<g clip-path="url(#clip0_1123_646)">
<path d="M35.3672 3.625H4.63281C2.07031 3.625 0 5.70312 0 8.25781V27.3672C0 29.9219 2.07031 31.9922 4.63281 31.9922H14.625L18.2969 35.6641C19.2422 36.6094 20.7734 36.6094 21.7188 35.6641L25.3906 31.9922H35.375C37.9297 31.9922 40.0078 29.9219 40.0078 27.3672V8.25781C40 5.70312 37.9297 3.625 35.3672 3.625Z" fill="#FF2147"/>
<path d="M16.9141 17.2344C18.6788 17.2344 20.1094 15.8038 20.1094 14.0391C20.1094 12.2743 18.6788 10.8438 16.9141 10.8438C15.1493 10.8438 13.7188 12.2743 13.7188 14.0391C13.7188 15.8038 15.1493 17.2344 16.9141 17.2344Z" fill="white"/>
<path d="M13.7891 18.5078H20.0312C21.5625 18.5078 22.8047 19.75 22.8125 21.2812V21.2891V23.4219C22.8125 24.1641 22.2109 24.7656 21.4687 24.7656H12.3594C11.6172 24.7656 11.0156 24.1641 11.0156 23.4219V21.2891C11.0156 19.75 12.2578 18.5078 13.7891 18.5078Z" fill="white"/>
<path d="M27.7656 14.3125H26.9141V13.4531C26.9141 12.7812 26.3672 12.2344 25.6953 12.2344C25.0234 12.2344 24.4766 12.7812 24.4766 13.4531V14.3125H23.6172C22.9453 14.3125 22.3984 14.8594 22.3984 15.5312C22.3984 16.2031 22.9453 16.75 23.6172 16.75H24.4766V17.6016C24.4766 18.2734 25.0234 18.8203 25.6953 18.8203C26.3672 18.8203 26.9141 18.2734 26.9141 17.6016V16.75H27.7734C28.4453 16.75 28.9922 16.2031 28.9922 15.5312C28.9844 14.8594 28.4375 14.3125 27.7656 14.3125Z" fill="white"/>
</g>
<defs>
<clipPath id="clip0_1123_646">
<rect width="40" height="40" fill="white"/>
</clipPath>
</defs>
</svg>
