<svg id="Layer_1" enable-background="new 0 0 511 511" height="512" viewBox="0 0 511 511" width="512" xmlns="http://www.w3.org/2000/svg"><g><g><g><path d="m481.683 316.055c.226-.873.444-1.752.66-2.632-.213.88-.437 1.756-.66 2.632z" fill="#afe6ff"/></g><g><path d="m244.634 10.866c-94.142 0-152.128 53.097-152.288 53.187-3.633 16.771-9.952 41.108-9.952 58.967 0 135.108 113.935 244.607 249.043 244.607 57.577 0 110.478-26.808 152.267-60.093.17-1.042 5.565-22.522 5.565-52.034-.001-135.108-109.527-244.634-244.635-244.634z" fill="#dd6938"/></g><g><path d="m483.703 307.534c-41.789 33.285-94.711 53.187-152.288 53.187-135.108 0-244.634-109.527-244.634-244.634 0-17.858 1.931-35.263 5.565-52.034-.006.004-.011.009-.017.014-56.26 44.82-92.329 113.91-92.329 191.433 0 135.108 109.526 244.634 244.634 244.634 114.203 0 210.099-78.266 237.049-184.079.223-.876.447-1.752.66-2.632.102-.418 1.024-4.338 1.36-5.889z" fill="#d80a61"/></g></g><g><g><g><path d="m511 255.5c0 54.831-20.346 104.91-53.9 143.099-39.751 45.242-98.039 62.43-162.996 62.43-119.789 0-206.122-89.585-206.122-209.373 0-91.122 45.416-165.275 125.038-197.388 25.049-10.103 52.417-15.664 81.084-15.664 119.788 0 216.896 97.107 216.896 216.896z" fill="#f1d333"/></g><g><path d="m399.01 122.204c-2.319 0-4.665-.645-6.76-1.995-3.326-2.144-6.771-4.193-10.238-6.092-6.056-3.315-8.276-10.912-4.961-16.967 3.315-6.057 10.915-8.277 16.967-4.961 3.988 2.184 7.95 4.54 11.775 7.006 5.803 3.739 7.476 11.475 3.735 17.278-2.39 3.709-6.412 5.731-10.518 5.731z" fill="#f9ef63"/></g><g><path d="m349.402 98.496c-1.284.001-2.589-.199-3.876-.618-16.544-5.394-33.846-8.128-51.423-8.128-12.889 0-25.721 1.482-38.141 4.406-6.719 1.587-13.449-2.583-15.031-9.303s2.582-13.449 9.303-15.031c14.294-3.366 29.054-5.072 43.869-5.072 20.213 0 40.121 3.148 59.171 9.358 6.563 2.14 10.15 9.195 8.011 15.759-1.721 5.277-6.618 8.629-11.883 8.629z" fill="#f9ef63"/></g><g><path d="m376.012 414.268c-119.789 0-216.896-97.108-216.896-216.896 0-54.831 20.356-104.902 53.91-143.091-79.622 32.113-135.819 110.098-135.819 201.219 0 119.789 97.108 216.896 216.896 216.896 64.957 0 123.236-28.563 162.987-73.806-25.049 10.104-52.411 15.678-81.078 15.678z" fill="#eab14d"/></g></g><g><g><ellipse cx="294.544" cy="212.025" fill="#eab14d" rx="26.422" ry="31.778"/></g><g><circle cx="294.414" cy="204.024" fill="#783c28" r="23.778"/></g></g><g><g><ellipse cx="402.801" cy="212.025" fill="#eab14d" rx="26.357" ry="31.778"/></g><g><circle cx="402.558" cy="204.024" fill="#783c28" r="23.778"/></g></g><g><path d="m272.318 356.218c-3.238 0-6.415-1.57-8.341-4.471-3.054-4.602-1.8-10.808 2.802-13.862 4.06-2.694 100.166-65.501 163.843-21.892 4.557 3.121 5.721 9.345 2.601 13.901-3.121 4.558-9.346 5.719-13.901 2.601-14.891-10.198-42.505-18.98-89.514-2.914-29.25 9.997-51.744 24.819-51.968 24.968-1.702 1.129-3.622 1.669-5.522 1.669z" fill="#783c28"/></g><g><path d="m227.437 164.597c-2.957 0-5.76-1.76-6.946-4.667-1.565-3.835.273-8.213 4.108-9.778l52.848-21.578c3.832-1.566 8.213.272 9.778 4.108 1.565 3.835-.273 8.213-4.108 9.778l-52.848 21.578c-.927.379-1.887.559-2.832.559z" fill="#eab14d"/></g><g><path d="m467.291 164.597c-.944 0-1.904-.18-2.832-.559l-52.848-21.578c-3.835-1.565-5.674-5.943-4.108-9.778 1.564-3.835 5.943-5.676 9.778-4.108l52.848 21.578c3.835 1.565 5.674 5.943 4.108 9.778-1.186 2.906-3.989 4.667-6.946 4.667z" fill="#eab14d"/></g></g></g></svg>