<svg width="40" height="40" viewBox="0 0 40 40" fill="none" xmlns="http://www.w3.org/2000/svg">
<g clip-path="url(#clip0_1195_940)">
<path d="M40 19.9996C40 27.2254 36.1681 33.5562 30.4255 37.0707C30.3877 37.0938 9.61227 37.0938 9.57453 37.0707C3.83188 33.5562 0 27.2254 0 19.9996C0 11.8501 4.8743 4.83898 11.8666 1.72266C17.259 4.50266 23.651 4.66742 29.1619 2.2168C35.5991 5.54008 40 12.2559 40 19.9996Z" fill="#00AAF2"/>
<path d="M35.7913 20.8996C35.7913 29.5836 28.7516 36.6234 20.0675 36.6234C11.3834 36.6234 4.34375 29.5836 4.34375 20.8996C4.34375 12.2156 11.3835 5.17578 20.0676 5.17578C28.7516 5.17578 35.7913 12.2155 35.7913 20.8996Z" fill="#00C1FB"/>
<path d="M39.6613 15.7731C39.1957 16.6169 38.2974 17.1883 37.2656 17.1883C35.7601 17.1883 34.5312 15.9595 34.5313 14.454C34.5313 13.4222 35.1027 12.5239 35.9465 12.0583C35.9827 12.0383 36.0233 12.0754 36.0067 12.1134C35.8609 12.4479 35.78 12.8171 35.78 13.2052C35.78 14.7165 37.0031 15.9396 38.5143 15.9396C38.9024 15.9396 39.2717 15.8587 39.6062 15.7129C39.6442 15.6963 39.6813 15.7369 39.6613 15.7731Z" fill="#FF7117"/>
<path d="M40.0016 14.4531C40.0016 14.9315 39.8788 15.3812 39.6629 15.7723C39.2717 15.9881 38.822 16.1109 38.3438 16.1109C36.8336 16.1109 35.6094 14.8867 35.6094 13.3766C35.6094 12.8982 35.7322 12.4485 35.948 12.0574C36.3391 11.8416 36.7888 11.7188 37.2672 11.7188C38.7773 11.7188 40.0016 12.943 40.0016 14.4531Z" fill="#FF8835"/>
<path d="M5.13 30.4118C4.66445 31.2555 3.76617 31.827 2.73438 31.827C1.22883 31.827 -7.81213e-05 30.5982 3.72476e-09 29.0926C3.72476e-09 28.0608 0.571484 27.1626 1.41523 26.697C1.45148 26.677 1.49203 26.7141 1.47547 26.7521C1.32969 27.0865 1.24875 27.4558 1.24875 27.8439C1.24875 29.3551 2.47188 30.5783 3.98305 30.5783C4.37117 30.5783 4.74047 30.4974 5.07492 30.3515C5.11289 30.335 5.15 30.3755 5.13 30.4118Z" fill="#00D1FC"/>
<path d="M5.47031 29.0918C5.47031 29.5702 5.3475 30.0198 5.13164 30.4109C4.74047 30.6268 4.29078 30.7496 3.8125 30.7496C2.30234 30.7496 1.07812 29.5254 1.07812 28.0152C1.07812 27.5369 1.20094 27.0872 1.4168 26.6961C1.80797 26.4802 2.25758 26.3574 2.73594 26.3574C4.24609 26.3574 5.47031 27.5816 5.47031 29.0918Z" fill="#64DCFC"/>
<path d="M13.6298 20.6363C12.6056 22.4924 10.6294 23.7497 8.35945 23.7497C5.04727 23.7498 2.34375 21.0462 2.34375 17.734C2.34375 15.4641 3.60109 13.4878 5.45719 12.4635C5.53703 12.4195 5.62617 12.5012 5.58977 12.5847C5.26898 13.3204 5.09102 14.1327 5.09102 14.9866C5.09094 18.3113 7.7818 21.0023 11.1065 21.0023C11.9605 21.0023 12.7728 20.8245 13.5086 20.5036C13.5923 20.4673 13.6739 20.5564 13.6298 20.6363ZM36.0894 25.8145C35.278 27.2849 33.7123 28.2809 31.9141 28.2809C29.2902 28.2809 27.1484 26.1392 27.1484 23.5152C27.1484 21.717 28.1445 20.1513 29.6149 19.3399C29.6781 19.305 29.7488 19.3698 29.7199 19.4359C29.4658 20.0188 29.3248 20.6623 29.3248 21.3388C29.3248 23.9726 31.4565 26.1044 34.0904 26.1045C34.7669 26.1045 35.4105 25.9635 35.9934 25.7094C36.0596 25.6806 36.1243 25.7512 36.0894 25.8145Z" fill="#FFAA00"/>
<path d="M14.3738 17.7344C14.3738 18.7867 14.1036 19.776 13.6287 20.6366C12.7682 21.1114 11.779 21.3816 10.7266 21.3816C7.40422 21.3816 4.71094 18.6884 4.71094 15.366C4.71094 14.3137 4.98117 13.3244 5.45602 12.4638C6.31656 11.989 7.30586 11.7188 8.3582 11.7188C11.6805 11.7188 14.3738 14.412 14.3738 17.7344ZM31.9129 18.75C31.0792 18.75 30.2955 18.9641 29.6138 19.3403C29.2376 20.022 29.0235 20.8057 29.0235 21.6395C29.0235 24.2714 31.1572 26.4051 33.7891 26.4051C34.6228 26.4051 35.4066 26.191 36.0883 25.8148C36.4645 25.1331 36.6785 24.3495 36.6785 23.5157C36.6785 20.8837 34.5448 18.75 31.9129 18.75Z" fill="#FFC143"/>
<path d="M8.35938 22.4886C5.71008 22.4886 3.55469 20.3559 3.55469 17.7345C3.55469 15.1131 5.71008 12.9805 8.35938 12.9805C11.0087 12.9805 13.1641 15.1131 13.1641 17.7345C13.1641 20.3559 11.0087 22.4886 8.35938 22.4886ZM8.35938 14.1523C6.35625 14.1523 4.72656 15.7593 4.72656 17.7345C4.72656 19.7098 6.35625 21.3167 8.35938 21.3167C10.3625 21.3167 11.9922 19.7098 11.9922 17.7345C11.9922 15.7593 10.3625 14.1523 8.35938 14.1523ZM8.35938 20.5527C7.35234 20.5527 6.53305 19.7334 6.53305 18.7263V16.7427C6.53305 15.7355 7.35234 14.9162 8.35938 14.9162C9.36641 14.9162 10.1857 15.7355 10.1857 16.7427V18.7263C10.1857 19.7334 9.36641 20.5527 8.35938 20.5527ZM8.35938 16.0882C7.99852 16.0882 7.70492 16.3819 7.70492 16.7427V18.7264C7.70492 19.0873 7.99852 19.3809 8.35938 19.3809C8.72023 19.3809 9.01383 19.0873 9.01383 18.7264V16.7427C9.01383 16.3819 8.72023 16.0882 8.35938 16.0882ZM31.9141 27.4037C29.7481 27.4037 27.986 25.6596 27.986 23.5158C27.986 21.372 29.7481 19.6278 31.9141 19.6278C34.08 19.6278 35.8421 21.372 35.8421 23.5158C35.8421 25.6595 34.08 27.4037 31.9141 27.4037ZM31.9141 20.7997C30.3943 20.7997 29.1579 22.0181 29.1579 23.5158C29.1579 25.0134 30.3943 26.2319 31.9141 26.2319C33.4338 26.2319 34.6702 25.0134 34.6702 23.5158C34.6702 22.0181 33.4338 20.7997 31.9141 20.7997ZM32.5 24.8291V22.2025C32.5 21.8788 32.2377 21.6166 31.9141 21.6166C31.5905 21.6166 31.3281 21.8788 31.3281 22.2025V24.8291C31.3281 25.1528 31.5905 25.4151 31.9141 25.4151C32.2377 25.4151 32.5 25.1527 32.5 24.8291Z" fill="#FFE7BF"/>
<path d="M29.8396 1.28586V37.1901C29.6925 37.2734 29.5441 37.3549 29.3948 37.4345C29.3479 37.4595 29.3009 37.7113 29.2537 37.736C26.4866 39.1827 23.3388 40.0009 20 40.0009C17.8281 40.0009 15.7371 39.6547 13.7791 39.0145C13.7102 38.992 13.6415 38.3943 13.573 38.371C13.436 38.3246 13.2997 38.2766 13.1641 38.2273V1.58008C13.1641 0.932891 13.6887 0.408203 14.3359 0.408203H26.6519C27.7627 0.799844 28.8285 0.713359 29.8396 1.28586Z" fill="#FFF5F5"/>
<path d="M14.9508 0.408203C14.3036 0.408203 13.7789 0.967188 13.7789 1.65664V39.0145C12.7269 38.6705 11.7133 38.2416 10.7462 37.736C10.6804 37.7016 10.6148 37.1245 10.5495 37.0894C10.4188 37.0192 10.2891 36.9477 10.1602 36.8747V1.8593C10.437 0.926016 10.2037 0.799844 11.3146 0.408281H14.9508V0.408203Z" fill="#C9F0FF"/>
<path d="M25.758 16.1498C24.6391 18.1774 22.4804 19.5508 20.0009 19.5508C16.3828 19.5508 13.4296 16.5976 13.4297 12.9796C13.4297 10.5001 14.8031 8.3413 16.8306 7.22247C16.9178 7.17435 17.0152 7.26357 16.9754 7.3549C16.625 8.15857 16.4306 9.04591 16.4306 9.97865C16.4305 13.6104 19.3699 16.5497 23.0016 16.5498C23.9344 16.5498 24.8218 16.3554 25.6255 16.0051C25.7169 15.9652 25.8061 16.0626 25.758 16.1498Z" fill="#009A8E"/>
<path d="M26.5708 12.9812C26.5708 14.1308 26.2756 15.2114 25.7569 16.1514C24.8169 16.6701 23.7363 16.9653 22.5867 16.9653C18.9576 16.9653 16.0156 14.0233 16.0156 10.3942C16.0156 9.24469 16.3109 8.16406 16.8295 7.22406C17.7695 6.70539 18.8502 6.41016 19.9997 6.41016C23.6288 6.41016 26.5708 9.35219 26.5708 12.9812Z" fill="#00B7A0"/>
<path d="M23.7332 11.6702L19.4837 15.9195C19.3693 16.0339 19.2193 16.0911 19.0694 16.0911C18.9194 16.0911 18.7694 16.0339 18.655 15.9195L16.2693 13.5338C16.0404 13.3049 16.0404 12.934 16.2693 12.7052C16.4982 12.4764 16.8691 12.4764 17.0979 12.7052L19.0693 14.6766L22.9044 10.8415C23.1333 10.6127 23.5043 10.6127 23.733 10.8415C23.9619 11.0703 23.9619 11.4412 23.7332 11.6702Z" fill="#FFF5F5"/>
<path d="M21.7578 2.89062C21.7578 3.2143 21.4955 3.47656 21.1719 3.47656H18.8281C18.5045 3.47656 18.2422 3.2143 18.2422 2.89062C18.2422 2.56695 18.5045 2.30469 18.8281 2.30469H21.1719C21.4955 2.30469 21.7578 2.56695 21.7578 2.89062ZM30.5859 5.82031C30.9095 5.82031 31.1719 5.55805 31.1719 5.23438V2.89062C31.1719 2.56695 30.9095 2.30469 30.5859 2.30469C30.5303 2.30469 30.4765 2.31242 30.4255 2.32688V1.75781C30.4255 0.788594 29.637 0 28.6677 0H11.3323C10.363 0 9.57445 0.788594 9.57445 1.75781V2.32688C9.52344 2.31242 9.46969 2.30469 9.41406 2.30469C9.09047 2.30469 8.82812 2.56695 8.82812 2.89062V5.23438C8.82812 5.55805 9.09047 5.82031 9.41406 5.82031C9.46969 5.82031 9.52352 5.81258 9.57445 5.79813V37.0711C9.9568 37.3051 10.3476 37.5266 10.7463 37.7351V1.75781C10.7463 1.43469 11.0092 1.17188 11.3323 1.17188H28.6677C28.9908 1.17188 29.2537 1.43469 29.2537 1.75781V37.7351C29.6524 37.5266 30.0432 37.3051 30.4255 37.0711V10.5638C30.4766 10.5782 30.5303 10.5859 30.5859 10.5859C30.9095 10.5859 31.1719 10.3237 31.1719 10V7.65625C31.1719 7.33258 30.9095 7.07031 30.5859 7.07031C30.5303 7.07031 30.4765 7.07805 30.4255 7.0925V5.79813C30.4765 5.81258 30.5303 5.82031 30.5859 5.82031Z" fill="#003278"/>
<path d="M15.9492 2.89062C15.9492 3.21422 15.6869 3.47656 15.3633 3.47656H13.0195C12.6959 3.47656 12.4336 3.21422 12.4336 2.89062C12.4336 2.56703 12.6959 2.30469 13.0195 2.30469H15.3633C15.6869 2.30469 15.9492 2.56703 15.9492 2.89062ZM24.602 2.30469H24.5838C24.2602 2.30469 23.9978 2.56703 23.9978 2.89062C23.9978 3.21422 24.2602 3.47656 24.5838 3.47656H24.602C24.9256 3.47656 25.188 3.21422 25.188 2.89062C25.188 2.56703 24.9256 2.30469 24.602 2.30469ZM26.9823 2.30469H26.9641C26.6405 2.30469 26.3781 2.56703 26.3781 2.89062C26.3781 3.21422 26.6405 3.47656 26.9641 3.47656H26.9823C27.3059 3.47656 27.5683 3.21422 27.5683 2.89062C27.5683 2.56703 27.3059 2.30469 26.9823 2.30469Z" fill="#9AE7FD"/>
<path d="M27.0312 27.7286H12.9688C12.753 27.7286 12.5781 27.5537 12.5781 27.338V21.7578C12.5781 21.5421 12.753 21.3672 12.9688 21.3672H27.0312C27.247 21.3672 27.4219 21.5421 27.4219 21.7578V27.338C27.4219 27.5537 27.247 27.7286 27.0312 27.7286ZM27.0312 33.1973H12.9688C12.753 33.1973 12.5781 33.0224 12.5781 32.8067V29.6817C12.5781 29.466 12.753 29.2911 12.9688 29.2911H27.0312C27.247 29.2911 27.4219 29.466 27.4219 29.6817V32.8067C27.4219 33.0224 27.247 33.1973 27.0312 33.1973Z" fill="#64DCFC"/>
<path d="M14.9509 29.6817V32.8067C14.9509 33.0224 15.1259 33.1973 15.3416 33.1973H12.9688C12.753 33.1973 12.5781 33.0224 12.5781 32.8067V29.6817C12.5781 29.466 12.753 29.2911 12.9688 29.2911H15.3416C15.1259 29.2911 14.9509 29.4659 14.9509 29.6817ZM14.9509 27.338V21.7578C14.9509 21.5421 15.1259 21.3672 15.3416 21.3672H12.9688C12.753 21.3672 12.5781 21.5421 12.5781 21.7578V27.338C12.5781 27.5537 12.753 27.7286 12.9688 27.7286H15.3416C15.1259 27.7286 14.9509 27.5537 14.9509 27.338Z" fill="#00D1FC"/>
<path d="M20.4062 26.3584H14.3789C14.0553 26.3584 13.793 26.096 13.793 25.7724C13.793 25.4488 14.0553 25.1865 14.3789 25.1865H20.4062C20.7298 25.1865 20.9921 25.4488 20.9921 25.7724C20.9921 26.096 20.7298 26.3584 20.4062 26.3584ZM26.4251 23.4082C26.4251 23.0846 26.1627 22.8223 25.8391 22.8223H14.3789C14.0553 22.8223 13.793 23.0846 13.793 23.4082C13.793 23.7318 14.0553 23.9941 14.3789 23.9941H25.8392C26.1627 23.9941 26.4251 23.7319 26.4251 23.4082ZM18.1671 31.2441C18.1671 31.5677 17.9048 31.8301 17.5812 31.8301H14.3789C14.0553 31.8301 13.793 31.5677 13.793 31.2441C13.793 30.9205 14.0553 30.6582 14.3789 30.6582H17.5812C17.9048 30.6582 18.1671 30.9205 18.1671 31.2441Z" fill="#00C1FB"/>
<path d="M26.4241 31.2441C26.4241 31.5677 26.1617 31.8301 25.8381 31.8301H23.9922C23.6686 31.8301 23.4062 31.5677 23.4062 31.2441C23.4062 30.9205 23.6686 30.6582 23.9922 30.6582H25.8381C26.1617 30.6582 26.4241 30.9205 26.4241 31.2441Z" fill="#00AAF2"/>
<path d="M18.4312 37.3555H16.4531C15.8059 37.3555 15.2812 36.8308 15.2812 36.1836C15.2812 35.5364 15.8059 35.0117 16.4531 35.0117H18.4312C19.0784 35.0117 19.603 35.5364 19.603 36.1836C19.603 36.8308 19.0784 37.3555 18.4312 37.3555Z" fill="#009A8E"/>
<path d="M23.5461 37.3555H17.9727C17.3255 37.3555 16.8008 36.8308 16.8008 36.1836C16.8008 35.5364 17.3255 35.0117 17.9727 35.0117H23.5461C24.1933 35.0117 24.718 35.5364 24.718 36.1836C24.718 36.8308 24.1933 37.3555 23.5461 37.3555Z" fill="#00B7A0"/>
</g>
<defs>
<clipPath id="clip0_1195_940">
<rect width="40" height="40" fill="white"/>
</clipPath>
</defs>
</svg>
