<?xml version="1.0" encoding="iso-8859-1"?>
<!-- Generator: Adobe Illustrator 19.0.0, SVG Export Plug-In . SVG Version: 6.00 Build 0)  -->
<svg version="1.1" id="Capa_1" xmlns="http://www.w3.org/2000/svg" xmlns:xlink="http://www.w3.org/1999/xlink" x="0px" y="0px"
	 viewBox="0 0 512 512" style="enable-background:new 0 0 512 512;" xml:space="preserve">
<g>
	<g>
		<path d="M414.424,388.373c-23.803-8.237-54.817-14.467-89.237-18.036c5.283-8.02,10.692-16.438,16.116-25.156
			c49.154-79.013,74.078-141.525,74.078-185.8C415.38,71.498,343.882,0,256,0S96.62,71.498,96.62,159.381
			c0,44.275,24.924,106.787,74.078,185.8c5.423,8.718,10.833,17.136,16.116,25.156c-34.419,3.569-65.435,9.798-89.237,18.036
			C60.46,401.217,41.64,418.399,41.64,439.439c0,23.579,23.467,42.218,69.748,55.403C150.23,505.907,201.588,512,256,512
			c54.412,0,105.77-6.094,144.613-17.159c46.281-13.184,69.747-31.824,69.747-55.403
			C470.36,418.399,451.542,401.217,414.424,388.373z M128.774,159.381c0-70.154,57.073-127.227,127.226-127.227
			s127.226,57.073,127.226,127.227c0,37.592-23.881,95.876-69.06,168.549c-22.236,35.767-44.689,66.948-58.167,85.008
			c-13.477-18.059-35.93-49.24-58.167-85.008C152.655,255.257,128.774,196.974,128.774,159.381z M391.803,463.917
			c-36.059,10.272-84.288,15.929-135.803,15.929s-99.745-5.657-135.803-15.929c-38.337-10.921-46.404-22.626-46.404-24.478
			c0-1.748,6.103-10.923,34.299-20.68c25.417-8.795,60.453-15.112,99.413-17.979c20.045,28.605,34.945,47.449,35.899,48.651
			c3.05,3.845,7.689,6.086,12.596,6.086s9.545-2.241,12.596-6.086c0.954-1.203,15.854-20.046,35.899-48.651
			c38.961,2.867,73.997,9.183,99.414,17.979c28.195,9.758,34.298,18.932,34.298,20.679
			C438.206,441.291,430.14,452.996,391.803,463.917z"/>
	</g>
</g>
<g>
	<g>
		<path d="M256,84.891c-41.074,0-74.49,33.417-74.49,74.49s33.417,74.49,74.49,74.49s74.49-33.417,74.49-74.49
			S297.074,84.891,256,84.891z M256,201.718c-23.344,0-42.336-18.992-42.336-42.336c0-23.345,18.992-42.336,42.336-42.336
			s42.336,18.992,42.336,42.336C298.336,182.726,279.344,201.718,256,201.718z"/>
	</g>
</g>
<g>
</g>
<g>
</g>
<g>
</g>
<g>
</g>
<g>
</g>
<g>
</g>
<g>
</g>
<g>
</g>
<g>
</g>
<g>
</g>
<g>
</g>
<g>
</g>
<g>
</g>
<g>
</g>
<g>
</g>
</svg>
