<?xml version="1.0" encoding="UTF-8" standalone="no"?>
<!-- Created with Inkscape (http://www.inkscape.org/) -->

<svg
   version="1.1"
   id="svg1803"
   xml:space="preserve"
   width="64"
   height="64"
   viewBox="0 0 682.66669 682.66669"
   xmlns="http://www.w3.org/2000/svg"
   xmlns:svg="http://www.w3.org/2000/svg"><defs
     id="defs1807"><clipPath
       clipPathUnits="userSpaceOnUse"
       id="clipPath1817"><path
         d="M 0,512 H 512 V 0 H 0 Z"
         id="path1815" /></clipPath></defs><g
     id="g1809"
     transform="matrix(1.3333333,0,0,-1.3333333,0,682.66667)"><g
       id="g1811"><g
         id="g1813"
         clipPath="url(#clipPath1817)"><g
           id="g1819"
           transform="translate(69.8672,24.417)"><path
             d="m 0,0 122.669,122.652 c 31.491,-22.453 70.051,-35.668 111.664,-35.668 106.441,0 192.8,86.391 192.8,192.8 0,106.409 -86.359,192.799 -192.8,192.799 -106.442,0 -192.8,-86.39 -192.8,-192.799 0,-41.613 13.175,-80.165 35.667,-111.687 L -45.468,45.437 C -58,32.889 -58,12.548 -45.468,0 -32.937,-12.556 -12.531,-12.556 0,0 Z m 234.333,408.316 c -70.934,0 -128.534,-57.59 -128.534,-128.532 0,-70.942 57.6,-128.533 128.534,-128.533 70.934,0 128.533,57.591 128.533,128.533 0,70.942 -57.599,128.532 -128.533,128.532 z"
             style="fill:none;stroke:currentColor;stroke-width:30;stroke-linecap:round;stroke-linejoin:round;stroke-miterlimit:10;stroke-dasharray:none;stroke-opacity:1"
             id="path1821" /></g></g></g></g></svg>
