<svg id="Layer_1" enable-background="new 0 0 513 513" height="512" viewBox="0 0 513 513" width="512" xmlns="http://www.w3.org/2000/svg"><path d="m304.802.5c-114.801 0-208.198 93.219-208.198 207.803 0 39.216 10.823 76.909 31.419 109.784l-114.19 113.94c-18.443 18.409-18.443 48.257 0 66.666s48.346 18.409 66.789 0l114.213-113.949c32.956 20.558 70.712 31.363 109.968 31.363 114.8 0 208.198-93.221 208.198-207.804-.001-114.584-93.398-207.803-208.199-207.803zm-.319 351.338c-79.145 0-143.533-64.389-143.533-143.533s64.389-143.532 143.533-143.532 143.533 64.389 143.533 143.532c0 79.144-64.389 143.533-143.533 143.533z"/><ellipse cx="304.483" cy="208.305" rx="113.533" ry="113.533" transform="matrix(.707 -.707 .707 .707 -58.113 276.313)"/></svg>