<svg fill="none" height="512" viewBox="0 0 24 24" width="512" xmlns="http://www.w3.org/2000/svg"><path d="M21.07 15.16a1.82 1.82 0 0 0-1.75-.85c-1.77.19-3.52-.2-5.22-1.15a7.33 7.33 0 0 1-3.02-3.17c-.86-1.75-1.13-3.53-.79-5.29.13-.69-.14-1.37-.69-1.79-.57-.43-1.32-.5-1.96-.18-4.9 2.46-6.93 8.23-4.72 13.42a9.29 9.29 0 0 0 4.94 4.92c1.48.62 2.99.93 4.46.93 3.53 0 6.81-1.73 8.76-4.87.38-.61.37-1.36 0-1.96zM8.64 19.23a7.36 7.36 0 0 1-3.88-3.86c-2.01-4.71.22-8.89 3.52-10.71-.33 2.09.02 4.18 1.02 6.22a9.341 9.341 0 0 0 3.83 4.02c1.97 1.1 4.01 1.59 6.08 1.43-1.9 2.81-5.93 4.86-10.57 2.9z"/></svg>