<svg fill="none" height="512" viewBox="0 0 24 24" width="512" xmlns="http://www.w3.org/2000/svg"><path d="M12 6c-3.31 0-6 2.69-6 6s2.69 6 6 6 6-2.69 6-6-2.69-6-6-6zm0 10c-2.21 0-4-1.79-4-4s1.79-4 4-4 4 1.79 4 4-1.79 4-4 4zM12 5c.55 0 1-.45 1-1V3c0-.55-.45-1-1-1s-1 .45-1 1v1c0 .55.45 1 1 1zM12 19c-.55 0-1 .45-1 1v1c0 .55.45 1 1 1s1-.45 1-1v-1c0-.55-.45-1-1-1zM5 12c0-.55-.45-1-1-1H3c-.55 0-1 .45-1 1s.45 1 1 1h1c.55 0 1-.45 1-1zM21 11h-1c-.55 0-1 .45-1 1s.45 1 1 1h1c.55 0 1-.45 1-1s-.45-1-1-1zM5.64 16.95l-.71.71a.996.996 0 0 0 .71 1.7c.26 0 .51-.1.71-.29l.71-.71a.996.996 0 1 0-1.41-1.41zM17.66 7.34c.26 0 .51-.1.71-.29l.71-.71a.996.996 0 1 0-1.41-1.41l-.71.71a.996.996 0 0 0 .71 1.7zM18.36 16.95a.996.996 0 1 0-1.41 1.41l.71.71c.2.2.45.29.71.29s.51-.1.71-.29a.996.996 0 0 0 0-1.41l-.71-.71zM5.64 7.05c.2.2.45.29.71.29s.51-.1.71-.29a.996.996 0 0 0 0-1.41l-.71-.71a.996.996 0 1 0-1.41 1.41l.71.71z"/></svg>