<svg id="Layer_1" height="512" viewBox="0 0 48 48" width="512" xmlns="http://www.w3.org/2000/svg" data-name="Layer 1"><path d="m.75 11.43h27.92v35.78h-27.92z" fill="#ffb044"/><path d="m28.67 11.43v33.42h-18.87a4.842 4.842 0 0 1 -4.84-4.842v-28.578z" fill="#ffc261"/><path d="m13.91 21.06h33.34v26.15h-33.34z" fill="#ee6148"/><path d="m47.25 21.06v23.79h-24.3a4.842 4.842 0 0 1 -4.842-4.842v-18.948z" fill="#ff6e56"/><g fill="#51454e"><path d="m22 14.321h-.377v-7.363a6.914 6.914 0 1 0 -13.828 0v7.363h-.38a.75.75 0 0 0 0 1.5h2.255a.75.75 0 0 0 0-1.5h-.37v-7.363a5.414 5.414 0 1 1 10.828 0v7.363h-.377a.75.75 0 0 0 0 1.5h2.249a.75.75 0 0 0 0-1.5z"/><path d="m37.625 24.327h-2.179a.75.75 0 0 0 0 1.5h.34v1.378a5.207 5.207 0 0 1 -10.413 0v-1.378h.339a.75.75 0 0 0 0-1.5h-2.178a.75.75 0 0 0 0 1.5h.339v1.378a6.707 6.707 0 0 0 13.413 0v-1.378h.339a.75.75 0 0 0 0-1.5z"/></g></svg>