<?xml version="1.0" encoding="iso-8859-1"?>
<!-- Generator: Adobe Illustrator 19.0.0, SVG Export Plug-In . SVG Version: 6.00 Build 0)  -->
<svg version="1.1" id="Capa_1" xmlns="http://www.w3.org/2000/svg" xmlns:xlink="http://www.w3.org/1999/xlink" x="0px" y="0px"
	 viewBox="0 0 512 512" style="enable-background:new 0 0 512 512;" xml:space="preserve">
<polygon style="fill:#FFD93B;" points="512,221.392 227.728,154.464 227.728,138.72 512,71.792 "/>
<polygon style="fill:#F4C534;" points="512,174.208 227.728,154.464 227.728,138.72 512,118.976 "/>
<polygon style="fill:#CBD6E0;" points="95.712,220.576 55.84,467.776 279.552,467.776 239.68,220.576 "/>
<g>
	<polygon style="fill:#E24B4B;" points="57.648,456.576 268.88,401.664 256.96,327.776 70.08,379.504 	"/>
	<polygon style="fill:#E24B4B;" points="95.712,220.576 84.32,291.28 243.488,244.192 239.68,220.576 	"/>
</g>
<path style="fill:#DAE5EF;" d="M267.04,197.936l-11.728,25.6c-1.072,2.432-3.504,3.968-6.24,3.968H86.336
	c-2.736,0-5.184-1.52-6.24-3.968l-11.728-25.6c-2.128-4.576,1.216-9.744,6.24-9.744H260.8
	C265.824,188.192,269.168,193.376,267.04,197.936z"/>
<g>
	<path style="fill:#3E4347;" d="M183.392,301.776v30.96H152v-30.96c0-8.8,7.008-15.808,15.696-15.808
		C176.384,285.984,183.392,292.992,183.392,301.776z"/>
	<path style="fill:#3E4347;" d="M197.152,409.36v58.416H138.24V409.36c0-16.496,13.152-29.664,29.456-29.664
		C183.984,379.696,197.152,392.864,197.152,409.36z"/>
</g>
<path style="fill:#DAE5EF;" d="M335.392,512c-1.936-24.704-22.384-44.224-47.456-44.224H47.456C22.944,467.776,2.032,486.272,0,512
	H335.392z"/>
<polygon style="fill:#D03F3F;" points="80.24,91.664 255.152,91.664 167.696,0 "/>
<polygon style="fill:#E24B4B;" points="80.24,91.584 167.696,0.016 131.424,91.584 "/>
<polygon style="fill:#BF3333;" points="255.152,91.584 203.952,91.584 167.696,0.016 "/>
<path style="fill:#DAE5EF;" d="M263.536,96.608c0,4.576-3.808,8.384-8.384,8.384H80.24c-4.576,0-8.384-3.808-8.384-8.384
	c0-4.72,3.808-8.384,8.384-8.384h174.912C259.728,88.24,263.536,91.888,263.536,96.608z"/>
<rect x="98.72" y="104.992" style="fill:#3E4347;" width="137.952" height="83.2"/>
<g>
	<path style="fill:#FFD93B;" d="M129.92,125.408h26.784c2.704,0,4.896,2.192,4.896,4.896v32.576c0,2.704-2.192,4.896-4.896,4.896
		H129.92c-2.704,0-4.896-2.192-4.896-4.896v-32.576C125.024,127.6,127.216,125.408,129.92,125.408z"/>
	<path style="fill:#FFD93B;" d="M210.352,130.304v32.576c0,2.704-2.192,4.896-4.896,4.896h-26.784c-2.704,0-4.896-2.192-4.896-4.896
		v-32.576c0-2.704,2.192-4.896,4.896-4.896h26.784C208.16,125.408,210.352,127.6,210.352,130.304z"/>
</g>
<g>
</g>
<g>
</g>
<g>
</g>
<g>
</g>
<g>
</g>
<g>
</g>
<g>
</g>
<g>
</g>
<g>
</g>
<g>
</g>
<g>
</g>
<g>
</g>
<g>
</g>
<g>
</g>
<g>
</g>
</svg>
