<svg id="Capa_1" enable-background="new 0 0 512 512" height="512" viewBox="0 0 512 512" width="512" xmlns="http://www.w3.org/2000/svg"><g><path d="m368 352.543v-17.095c0-8.534-6.918-15.453-15.453-15.453l-90.311-.001c-11.689 0-19.146-12.476-13.61-22.771l18.971-35.28c9.226-17.158-3.202-37.952-22.683-37.952h-8.891c-3.681 0-7.064 2.022-8.807 5.264l-51.428 95.628c-8.98 16.697-26.406 27.112-45.365 27.112h-2.969c-8.534 0-15.453 6.918-15.453 15.453v97.095c0 8.534 6.918 15.453 15.453 15.453h10.94c5.351 0 10.341 2.757 13.132 7.323 9.049 14.802 25.36 24.681 43.979 24.681h108.499v-.004h32.545c8.534 0 15.453-6.918 15.453-15.453v-17.095c0-8.534-6.918-15.453-15.453-15.453h16c8.534 0 15.453-6.918 15.453-15.453v-17.095c0-8.534-6.918-15.453-15.453-15.453 8.534 0 15.453-6.918 15.453-15.453v-17.095c0-8.534-6.918-15.453-15.453-15.453 8.533.003 15.451-6.915 15.451-15.45z" fill="#ffcebf"/><path d="m368 352.543v-17.095c0-8.534-6.918-15.453-15.453-15.453l-41.755-.001v91.703c0 44.014-35.68 79.695-79.694 79.696l-76.802.002h-.003c9.398 12.512 24.359 20.605 41.211 20.605h108.499v-.004h32.545c8.534 0 15.453-6.918 15.453-15.453v-17.095c0-8.534-6.918-15.453-15.453-15.453h16c8.534 0 15.453-6.918 15.453-15.453v-17.095c0-8.534-6.918-15.453-15.453-15.453 8.534 0 15.453-6.918 15.453-15.453v-17.095c0-8.534-6.918-15.453-15.453-15.453 8.534.003 15.452-6.915 15.452-15.45z" fill="#ffb09e"/><path d="m269.5 7.934 18.652 33.491c2.184 3.922 5.966 6.7 10.361 7.612l38.733 8.037c11.958 2.481 16.448 17.199 7.911 25.932l-26.337 26.943c-3.304 3.38-4.879 8.085-4.276 12.773l5.059 39.33c1.578 12.269-11.181 21.326-22.243 15.79l-34.441-17.239c-4.354-2.179-9.48-2.179-13.833 0l-34.442 17.239c-11.062 5.537-23.821-3.521-22.243-15.79l5.059-39.33c.603-4.688-.973-9.393-4.276-12.773l-26.337-26.943c-8.537-8.733-4.047-23.451 7.911-25.932l38.733-8.037c4.395-.912 8.177-3.69 10.361-7.612l18.648-33.491c5.891-10.579 21.109-10.579 27 0z" fill="#fed402"/><path d="m345.156 83.006c8.537-8.733 4.047-23.451-7.911-25.932l-34.81-7.223c1.638 6.581.132 13.965-5.316 19.538l-17.698 18.105c-4.447 4.549-6.567 10.883-5.756 17.192l3.448 26.808c2.124 16.513-15.05 28.704-29.938 21.252l-23.074-11.549c-5.86-2.933-12.759-2.933-18.619 0l-11.118 5.565-1.967 15.291c-1.578 12.269 11.181 21.326 22.243 15.79l34.441-17.239c4.354-2.179 9.48-2.179 13.833 0l34.441 17.239c11.062 5.537 23.821-3.521 22.243-15.79l-5.058-39.33c-.603-4.688.973-9.393 4.276-12.773z" fill="#fac600"/><path d="m91.277 87.934 13.49 24.222c2.184 3.922 5.966 6.7 10.361 7.612l28.1 5.831c11.958 2.481 16.448 17.199 7.911 25.932l-18.895 19.33c-3.304 3.38-4.879 8.085-4.276 12.773l3.65 28.376c1.578 12.269-11.181 21.326-22.243 15.79l-24.68-12.353c-4.354-2.179-9.48-2.179-13.833 0l-24.68 12.353c-11.062 5.537-23.821-3.521-22.243-15.79l3.65-28.376c.603-4.688-.973-9.393-4.276-12.773l-18.895-19.33c-8.537-8.733-4.047-23.451 7.911-25.932l28.1-5.831c4.395-.912 8.177-3.69 10.361-7.612l13.49-24.222c5.888-10.579 21.106-10.579 26.997 0z" fill="#fed402"/><path d="m420.723 87.934-13.49 24.222c-2.184 3.922-5.966 6.7-10.361 7.612l-28.1 5.831c-11.958 2.481-16.448 17.199-7.911 25.932l18.895 19.33c3.304 3.38 4.879 8.085 4.276 12.773l-3.65 28.376c-1.578 12.269 11.182 21.326 22.243 15.79l24.68-12.353c4.354-2.179 9.48-2.179 13.833 0l24.68 12.353c11.062 5.537 23.821-3.521 22.243-15.79l-3.65-28.376c-.603-4.688.973-9.393 4.276-12.773l18.895-19.33c8.537-8.733 4.047-23.451-7.911-25.932l-28.1-5.831c-4.395-.912-8.177-3.69-10.361-7.612l-13.49-24.222c-5.888-10.579-21.106-10.579-26.997 0z" fill="#fed402"/><path d="m143.228 125.599-28.1-5.831c-.526-.109-1.044-.245-1.55-.407.344 4.367-1.062 8.923-4.572 12.514l-17.724 18.131c-3.459 3.538-5.108 8.465-4.477 13.372l3.431 26.677c1.652 12.845-11.706 22.327-23.287 16.53l-23.138-11.582c-4.558-2.281-9.924-2.281-14.482 0l-3.425 1.714-1.967 15.291c-1.578 12.269 11.181 21.326 22.243 15.79l24.68-12.353c4.354-2.179 9.48-2.179 13.833 0l24.68 12.353c11.062 5.537 23.821-3.521 22.243-15.79l-3.65-28.376c-.603-4.688.973-9.393 4.276-12.773l18.895-19.33c8.539-8.731 4.049-23.449-7.909-25.93z" fill="#fac600"/><path d="m499.674 125.599-28.1-5.831c-.526-.109-1.043-.245-1.55-.407.344 4.367-1.062 8.923-4.572 12.514l-17.724 18.131c-3.459 3.538-5.108 8.465-4.477 13.372l3.431 26.677c1.652 12.845-11.706 22.327-23.287 16.53l-23.138-11.582c-4.558-2.281-9.924-2.281-14.482 0l-3.425 1.714-1.967 15.291c-1.578 12.269 11.181 21.326 22.243 15.79l24.68-12.353c4.354-2.179 9.48-2.179 13.833 0l24.68 12.353c11.062 5.537 23.821-3.521 22.243-15.79l-3.65-28.376c-.603-4.688.973-9.393 4.276-12.773l18.895-19.33c8.538-8.731 4.049-23.449-7.909-25.93z" fill="#fac600"/><g fill="#ffb09e"><path d="m352.547 415.996h-48.547c-4.142 0-7.5 3.358-7.5 7.5s3.358 7.5 7.5 7.5h63.993c-.239-8.325-7.063-15-15.446-15z"/><path d="m296.5 471.496c0 4.142 3.358 7.5 7.5 7.5h47.993c-.239-8.322-7.058-14.995-15.436-15h-32.557c-4.142 0-7.5 3.358-7.5 7.5z"/><path d="m296.5 375.496c0 4.142 3.358 7.5 7.5 7.5h63.993c-.24-8.325-7.063-15-15.446-15h-48.547c-4.142 0-7.5 3.358-7.5 7.5z"/></g><g fill="#ffa78f"><path d="m296.5 471.496c0 4.142 3.358 7.5 7.5 7.5h47.993c-.239-8.322-7.058-14.995-15.436-15h-32.557c-4.142 0-7.5 3.358-7.5 7.5z"/><path d="m310.793 382.996h57.201c-.24-8.325-7.063-15-15.446-15h-41.755z"/><path d="m352.547 415.996h-41.869c-.273 5.145-1.035 10.16-2.238 15h59.553c-.239-8.325-7.063-15-15.446-15z"/></g><path d="m216.5 312.496c0 4.142 3.358 7.5 7.5 7.5l38.236-.001c-8.814 0-15.222-7.095-15.466-14.999h-22.77c-4.142 0-7.5 3.358-7.5 7.5z" fill="#ffb09e"/></g></svg>