<svg width="40" height="40" viewBox="0 0 40 40" fill="none" xmlns="http://www.w3.org/2000/svg">
<g clip-path="url(#clip0_1196_940)">
<path d="M20 40C31.0457 40 40 31.0457 40 20C40 8.9543 31.0457 0 20 0C8.9543 0 0 8.9543 0 20C0 31.0457 8.9543 40 20 40Z" fill="#1976D2"/>
<path fill-rule="evenodd" clip-rule="evenodd" d="M32.2207 27.3398L32.1993 27.3936C31.998 27.9075 31.7957 28.4209 31.5837 28.9309C31.4016 29.3691 31.2132 29.8091 31.005 30.2355C30.8805 30.4902 30.6834 30.8925 30.4834 31.0925C30.2798 31.2964 30.0549 31.4779 29.8125 31.6337C28.4171 32.5268 26.6729 32.4009 25.1396 31.9898C18.5532 30.2253 9.77449 21.4466 8.00988 14.8603C7.59894 13.3265 7.47332 11.5818 8.36723 10.1865C8.52248 9.94423 8.7036 9.71955 8.90738 9.51641C9.10715 9.31641 9.50988 9.11937 9.76433 8.99492C10.1913 8.78672 10.6315 8.59828 11.0698 8.41617C11.5796 8.20523 12.0932 8.00211 12.6068 7.80055L12.6603 7.77992C12.9294 7.67336 13.2278 7.66726 13.501 7.76273C13.7742 7.85821 14.0039 8.04888 14.1481 8.29984L16.6944 12.7112C16.8536 12.989 16.8964 13.3185 16.8136 13.6277C16.7308 13.937 16.529 14.2009 16.2522 14.3619C15.3515 14.8823 14.6329 15.6918 14.4207 16.7299C14.3139 17.2243 14.316 17.7361 14.4269 18.2296C14.5378 18.7231 14.7548 19.1866 15.0629 19.5878C15.832 20.5919 16.6705 21.541 17.5722 22.428C18.4595 23.3299 19.4088 24.1685 20.4131 24.9378C20.8143 25.246 21.2778 25.4631 21.7713 25.574C22.2649 25.6849 22.7767 25.687 23.2712 25.5801C24.3084 25.368 25.1189 24.649 25.6389 23.7483C25.7997 23.4715 26.0636 23.2697 26.3727 23.1868C26.6819 23.104 27.0113 23.1469 27.289 23.3061L31.7 25.853C31.9509 25.9969 32.1416 26.2264 32.2372 26.4994C32.3328 26.7725 32.327 27.0708 32.2207 27.3398Z" fill="white"/>
</g>
<defs>
<clipPath id="clip0_1196_940">
<rect width="40" height="40" fill="white"/>
</clipPath>
</defs>
</svg>
