<svg id="Capa_1" enable-background="new 0 0 512 512" height="512" viewBox="0 0 512 512" width="512" xmlns="http://www.w3.org/2000/svg"><g fill="rgb(0,0,0)"><path d="m328.026 139.052c-3.821-6.948-11.181-11.204-19.11-11.048-7.927.156-15.117 4.696-18.662 11.789l-88.486 176.971-39.074-71.044c-3.75-6.818-10.913-11.053-18.693-11.053h-37.333c-11.782 0-21.333 9.551-21.333 21.333s9.551 21.333 21.333 21.333h24.72l52.588 95.614c3.822 6.948 11.182 11.204 19.111 11.049 7.929-.156 15.117-4.695 18.662-11.789l88.486-176.97 39.074 71.044c3.748 6.818 10.912 11.053 18.692 11.053h37.333c11.782 0 21.333-9.551 21.333-21.333s-9.551-21.333-21.333-21.333h-24.719z"/><path clip-rule="evenodd" d="m0 256c0 210.816 45.184 256 256 256s256-45.184 256-256-45.184-256-256-256-256 45.184-256 256zm42.667 0c0 51.731 2.828 90.387 9.338 119.682 6.403 28.809 15.786 45.882 27.109 57.203 11.323 11.324 28.395 20.708 57.205 27.11 29.294 6.511 67.951 9.338 119.681 9.338 51.731 0 90.387-2.827 119.682-9.338 28.809-6.402 45.882-15.787 57.203-27.11 11.324-11.322 20.708-28.395 27.11-57.203 6.511-29.295 9.338-67.951 9.338-119.682 0-51.73-2.827-90.388-9.338-119.681-6.402-28.809-15.787-45.881-27.11-57.205-11.322-11.323-28.395-20.707-57.203-27.109-29.295-6.51-67.951-9.338-119.682-9.338-51.73 0-90.388 2.828-119.681 9.338-28.809 6.403-45.881 15.786-57.205 27.109s-20.707 28.395-27.109 57.205c-6.511 29.293-9.338 67.951-9.338 119.681z" fill-rule="evenodd"/></g></svg>