<svg fill="none" height="512" viewBox="0 0 24 24" width="512" xmlns="http://www.w3.org/2000/svg"><path d="m19.707 14.707c.1398-.1399.235-.318.2736-.512.0386-.1939.0187-.395-.0569-.5777-.0757-.1827-.2038-.3388-.3682-.4487-.1645-.1099-.3577-.1686-.5555-.1686h-7v2h4.586l-4.293 4.293c-.1398.1399-.235.318-.2736.512-.0386.1939-.0187.395.0569.5777.0757.1827.2038.3388.3682.4487.1645.1099.3577.1686.5555.1686h7v-2h-4.586zm-12.707-10.717h-2v12h-3l4 4 4-4h-3zm10-.99h-2c-.417 0-.79.259-.937.649l-2.75 7.333h2.137l.743-1.982h3.613l.743 1.981h2.137l-2.75-7.333c-.0716-.19039-.1996-.35441-.3668-.47019s-.3658-.17781-.5692-.17781zm-2.057 4 .75-2h.613l.75 2z" fill="rgb(0,0,0)"/></svg>