<svg fill="none" height="512" viewBox="0 0 24 24" width="512" xmlns="http://www.w3.org/2000/svg"><g fill="#000"><path d="m16.21 18.25h-8.41996c-1.6576 0-3.24731-.6585-4.41941-1.8306-1.17211-1.1721-1.83059-2.7618-1.83059-4.4194s.65848-3.24731 1.83059-4.41942c1.1721-1.1721 2.76181-1.83058 4.41941-1.83058h8.41996c1.6576 0 3.2473.65848 4.4194 1.83058 1.1721 1.17211 1.8306 2.76182 1.8306 4.41942s-.6585 3.2473-1.8306 4.4194-2.7618 1.8306-4.4194 1.8306zm-8.41996-11c-1.25978 0-2.46796.50045-3.35875 1.39124-.8908.8908-1.39125 2.09896-1.39125 3.35876s.50045 2.468 1.39125 3.3588c.89079.8908 2.09897 1.3912 3.35875 1.3912h8.41996c1.2598 0 2.468-.5004 3.3588-1.3912s1.3912-2.099 1.3912-3.3588-.5004-2.46796-1.3912-3.35876c-.8908-.89079-2.099-1.39124-3.3588-1.39124z"/><path d="m6.69004 14.33c-.19892 0-.38968-.079-.53033-.2197-.14066-.1406-.21967-.3314-.21967-.5303v-3.16c0-.1989.07901-.3897.21967-.53033.14065-.14065.33141-.21967.53033-.21967.19891 0 .38968.07902.53033.21967.14065.14063.21967.33143.21967.53033v3.16c-.00259.1981-.08244.3874-.22254.5275-.14009.1401-.32936.2199-.52746.2225z"/><path d="m10 14.33c-.19806-.0026-.38732-.0824-.52742-.2225-.14009-.1401-.21994-.3294-.22253-.5275v-3.16c0-.1989.07902-.3897.21967-.53033.14065-.14065.33142-.21967.53028-.21967.1989 0 .3897.07902.5303.21967.1407.14063.2197.33143.2197.53033v3.16c-.0026.1981-.0824.3874-.2225.5275s-.3294.2199-.5275.2225z"/></g></svg>