<svg id="Capa_1" enable-background="new 0 0 459.598 459.598" height="512" viewBox="0 0 459.598 459.598" width="512" xmlns="http://www.w3.org/2000/svg"><g><g><path d="m229.8 459.598c-30.331 0-59.919-5.887-87.941-17.493-28.022-11.607-53.105-28.367-74.552-49.814-21.448-21.446-38.207-46.529-49.814-74.551-11.607-28.021-17.493-57.609-17.493-87.94s5.886-59.918 17.493-87.941c11.607-28.022 28.366-53.105 49.814-74.552s46.53-38.207 74.552-49.814 57.609-17.492 87.941-17.492c30.33 0 59.916 5.886 87.939 17.492 28.022 11.608 53.106 28.367 74.553 49.814 21.447 21.448 38.207 46.531 49.814 74.553 11.606 28.022 17.493 57.609 17.493 87.941s-5.887 59.919-17.493 87.94c-11.607 28.022-28.367 53.106-49.814 74.551-21.448 21.447-46.531 38.207-74.553 49.814-28.023 11.605-57.61 17.492-87.939 17.492zm-145.245-342.545c-25.028 32.109-38.595 71.386-38.595 112.747 0 49.106 19.122 95.272 53.845 129.993 34.723 34.722 80.889 53.845 129.995 53.845 41.36 0 80.636-13.568 112.745-38.595zm32.498-32.498 257.99 257.989c25.027-32.107 38.595-71.383 38.595-112.745 0-49.106-19.123-95.272-53.845-129.995-34.723-34.721-80.889-53.844-129.993-53.844-41.362 0-80.639 13.567-112.747 38.595z" fill="rgb(0,0,0)"/></g></g></svg>