<svg fill="none" height="512" viewBox="0 0 24 24" width="512" xmlns="http://www.w3.org/2000/svg"><g clip-rule="evenodd" fill="rgb(0,0,0)" fill-rule="evenodd"><path d="m6.3271 4.85641c.56861-1.70582 2.16497-2.85641 3.9631-2.85641h3.4196c1.7981 0 3.3945 1.15059 3.9631 2.85641.0636.19095.2204.33615.4157.38497l.8052.2013c1.8256.45638 3.1062 2.0966 3.1062 3.97829v7.57903c0 2.7614-2.2386 5-5 5h-10c-2.76142 0-5-2.2386-5-5v-7.57903c0-1.88169 1.28064-3.52191 3.10615-3.97828l.80524-.20131c.19527-.04882.35206-.19402.41571-.38497zm3.9631-.85641c-.93727 0-1.76935.59973-2.06573 1.48886-.27989.83967-.96936 1.47814-1.82801 1.6928l-.80523.20131c-.93518.23379-1.59123 1.07405-1.59123 2.038v7.57903c0 1.6569 1.34315 3 3 3h10c1.6569 0 3-1.3431 3-3v-7.57903c0-.96395-.6561-1.80421-1.5912-2.038l-.8053-.20131c-.8586-.21466-1.5481-.85313-1.828-1.6928-.2964-.88913-1.1284-1.48886-2.0657-1.48886z"/><path d="m12 11c-1.1046 0-2 .8954-2 2s.8954 2 2 2 2-.8954 2-2-.8954-2-2-2zm-4 2c0-2.2091 1.79086-4 4-4 2.2091 0 4 1.7909 4 4s-1.7909 4-4 4c-2.20914 0-4-1.7909-4-4z"/></g></svg>