<svg id="Capa_1" enable-background="new 0 0 512 512" height="512" viewBox="0 0 512 512" width="512" xmlns="http://www.w3.org/2000/svg"><g><path d="m45 376v60c0 8.291 6.709 15 15 15h75c8.291 0 15-6.709 15-15v-60z" fill="#47568c"/><path d="m362 376v60c0 8.291 6.709 15 15 15h75c8.291 0 15-6.709 15-15v-60z" fill="#29376d"/><path d="m450.5 186.4h-389l23.1-91.5c5.1-19.801 23.101-33.9 43.801-33.9h255.198c20.7 0 38.701 14.099 43.801 33.9z" fill="#f53"/><path d="m450.5 186.4h-194.5v-125.4h127.599c20.7 0 38.701 14.099 43.801 33.9z" fill="#e62e2e"/><path d="m421.399 193.9h-330.798l23.099-91.5c1.8-6.601 7.8-11.4 14.702-11.4h255.198c6.901 0 12.902 4.799 14.702 11.4z" fill="#47568c"/><path d="m421.399 193.9h-165.399v-102.9h127.599c6.901 0 12.902 4.799 14.702 11.4z" fill="#29376d"/><path d="m512 226v120c0 24.899-20.099 45-45 45h-135l-30-30h-92l-30 30h-135c-24.901 0-45-20.101-45-45v-120c0-24.901 20.099-45 45-45h422c24.901 0 45 20.099 45 45z" fill="#f53"/><path d="m512 226v120c0 24.899-20.099 45-45 45h-135l-30-30h-46v-180h211c24.901 0 45 20.099 45 45z" fill="#e62e2e"/><path d="m105 331c-24.814 0-45-20.186-45-45s20.186-45 45-45 45 20.186 45 45-20.186 45-45 45z" fill="#ffe666"/><path d="m407 331c-24.814 0-45-20.186-45-45s20.186-45 45-45 45 20.186 45 45-20.186 45-45 45z" fill="#ffc34d"/><path d="m332 256v135h-152v-135c0-8.401 6.599-15 15-15h122c8.401 0 15 6.599 15 15z" fill="#61729b"/><g fill="#47568c"><path d="m332 256v135h-76v-150h61c8.401 0 15 6.599 15 15z"/><path d="m210 271h92v30h-92z"/><path d="m210 331h92v30h-92z"/></g><path d="m256 271h46v30h-46z" fill="#29376d"/><path d="m256 331h46v30h-46z" fill="#29376d"/></g></svg>