<svg id="Capa_1" enable-background="new 0 0 512 512" height="512" viewBox="0 0 512 512" width="512" xmlns="http://www.w3.org/2000/svg"><g fill="rgb(0,0,0)"><g clip-rule="evenodd" fill-rule="evenodd"><path d="m117.333 234.667c-96.624 0-117.333-20.709-117.333-117.334 0-96.624 20.709-117.333 117.333-117.333 96.625 0 117.333 20.709 117.333 117.333.001 96.625-20.708 117.334-117.333 117.334zm-70.937-67.493c-2.432-10.941-3.729-26.658-3.729-49.84s1.298-38.899 3.729-49.84c2.324-10.456 5.079-13.764 6.206-14.891s4.434-3.882 14.891-6.206c10.941-2.432 26.658-3.729 49.84-3.729s38.899 1.298 49.84 3.729c10.456 2.324 13.764 5.079 14.891 6.206s3.882 4.434 6.206 14.891c2.432 10.941 3.729 26.658 3.729 49.84s-1.298 38.899-3.729 49.84c-2.324 10.456-5.079 13.764-6.206 14.891s-4.434 3.882-14.891 6.206c-10.941 2.432-26.658 3.729-49.84 3.729s-38.899-1.298-49.84-3.729c-10.457-2.324-13.764-5.079-14.891-6.206-1.126-1.128-3.882-4.435-6.206-14.891z"/><path d="m117.333 512c-96.624 0-117.333-20.71-117.333-117.333 0-96.625 20.709-117.333 117.333-117.333 96.625 0 117.333 20.708 117.333 117.333.001 96.623-20.708 117.333-117.333 117.333zm-70.937-67.492c-2.432-10.942-3.729-26.658-3.729-49.841s1.298-38.899 3.729-49.841c2.324-10.455 5.079-13.762 6.206-14.891 1.127-1.126 4.434-3.883 14.891-6.206 10.941-2.432 26.658-3.729 49.84-3.729s38.899 1.297 49.84 3.729c10.456 2.323 13.764 5.079 14.891 6.206 1.127 1.129 3.882 4.435 6.206 14.891 2.432 10.942 3.729 26.658 3.729 49.841s-1.298 38.899-3.729 49.841c-2.324 10.455-5.079 13.762-6.206 14.891-1.127 1.126-4.434 3.883-14.891 6.206-10.941 2.432-26.658 3.729-49.84 3.729s-38.899-1.297-49.84-3.729c-10.457-2.323-13.764-5.079-14.891-6.206-1.126-1.129-3.882-4.436-6.206-14.891z"/><path d="m277.333 394.667c0 96.623 20.709 117.333 117.334 117.333s117.333-20.71 117.333-117.333c0-96.625-20.708-117.333-117.333-117.333s-117.334 20.708-117.334 117.333zm42.667 0c0 23.183 1.297 38.899 3.729 49.841 2.323 10.455 5.079 13.762 6.206 14.891 1.129 1.126 4.435 3.883 14.891 6.206 10.942 2.432 26.658 3.729 49.841 3.729s38.899-1.297 49.841-3.729c10.455-2.323 13.762-5.079 14.891-6.206 1.126-1.129 3.883-4.435 6.206-14.891 2.432-10.942 3.729-26.658 3.729-49.841s-1.297-38.899-3.729-49.841c-2.323-10.455-5.079-13.762-6.206-14.891-1.129-1.126-4.435-3.883-14.891-6.206-10.942-2.432-26.658-3.729-49.841-3.729s-38.899 1.297-49.841 3.729c-10.455 2.323-13.762 5.079-14.891 6.206-1.126 1.129-3.883 4.435-6.206 14.891-2.432 10.941-3.729 26.658-3.729 49.841z"/></g><path d="m416 42.667c0-11.782-9.551-21.333-21.333-21.333s-21.333 9.551-21.333 21.333v53.333h-53.334c-11.782 0-21.333 9.551-21.333 21.333s9.551 21.333 21.333 21.333h53.333v53.334c0 11.782 9.551 21.333 21.333 21.333s21.333-9.551 21.333-21.333v-53.333h53.333c11.782 0 21.333-9.551 21.333-21.333s-9.549-21.334-21.332-21.334h-53.333z"/></g></svg>