<svg id="Capa_1" enable-background="new 0 0 491.519 491.519" height="512" viewBox="0 0 491.519 491.519" width="512" xmlns="http://www.w3.org/2000/svg"><g fill="rgb(0,0,0)"><path clip-rule="evenodd" d="m.001 286.719c0 168.653 36.147 204.8 204.8 204.8s204.8-36.147 204.8-204.8c0-168.652-36.147-204.799-204.8-204.799s-204.8 36.147-204.8 204.799zm40.96 0c0 41.228 2.263 71.563 7.308 94.265 4.942 22.235 11.992 34.558 19.851 42.416 7.859 7.86 20.182 14.909 42.418 19.851 22.701 5.046 53.036 7.307 94.264 7.307s71.563-2.261 94.263-7.307c22.237-4.942 34.56-11.991 42.418-19.851 7.858-7.858 14.909-20.181 19.851-42.416 5.044-22.702 7.307-53.037 7.307-94.265s-2.263-71.563-7.307-94.264c-4.942-22.236-11.993-34.559-19.851-42.417-7.858-7.859-20.181-14.909-42.418-19.851-22.7-5.045-53.035-7.308-94.263-7.308s-71.563 2.262-94.264 7.308c-22.236 4.942-34.559 11.992-42.418 19.851s-14.909 20.182-19.851 42.417c-5.046 22.701-7.308 53.036-7.308 94.264z" fill-rule="evenodd"/><path d="m408.874 324.282c-.692 16.247-1.909 30.992-3.779 44.368 68.901-18.199 86.424-66.783 86.424-179.603 0-151.238-37.809-189.047-189.047-189.047-112.821 0-161.405 17.524-179.604 86.426 13.375-1.869 28.122-3.086 44.368-3.778 3.419-8.064 7.285-13.53 11.296-17.541 6.7-6.7 17.46-12.997 37.61-17.476 20.615-4.582 48.345-6.671 86.329-6.671 75.911 0 106.942 10.481 122.274 25.812s25.813 46.363 25.813 122.274c0 37.986-2.089 65.714-6.67 86.329-4.479 20.152-10.775 30.91-17.476 37.612-4.009 4.01-9.475 7.876-17.538 11.295z"/></g></svg>