<?xml version="1.0" encoding="iso-8859-1"?>
<!-- Generator: Adobe Illustrator 19.0.0, SVG Export Plug-In . SVG Version: 6.00 Build 0)  -->
<svg version="1.1" id="Capa_1" xmlns="http://www.w3.org/2000/svg" xmlns:xlink="http://www.w3.org/1999/xlink" x="0px" y="0px"
	 viewBox="0 0 511.999 511.999" style="enable-background:new 0 0 511.999 511.999;" xml:space="preserve">
<path style="fill:#FFE154;" d="M507.78,245.57l-52.54-54.309l10.586-74.816c1.133-8.012-4.291-15.478-12.26-16.876L379.14,86.513
	l-35.415-66.748c-3.792-7.147-12.568-10.001-19.838-6.446L256,46.503l-67.888-33.184c-7.269-3.552-16.046-0.7-19.838,6.446
	l-35.415,66.748L58.434,99.569c-7.97,1.398-13.395,8.864-12.261,16.876l10.584,74.816L4.219,245.57
	c-5.625,5.815-5.625,15.044,0,20.859l52.538,54.308l-10.584,74.818c-1.134,8.012,4.292,15.479,12.261,16.876l74.426,13.055
	l35.415,66.748c3.792,7.147,12.569,9.998,19.838,6.446L256,465.497l67.887,33.184c2.118,1.035,4.363,1.526,6.577,1.526
	c5.383,0,10.573-2.908,13.261-7.973l35.415-66.748l74.426-13.055c7.97-1.397,13.394-8.864,12.261-16.876l-10.586-74.818
	l52.54-54.308C513.406,260.614,513.406,251.385,507.78,245.57z"/>
<path style="fill:#FFBB00;" d="M507.78,245.57l-52.54-54.309l10.586-74.816c1.133-8.012-4.291-15.478-12.26-16.876L379.14,86.513
	l-35.415-66.748c-3.792-7.147-12.568-10.001-19.838-6.446L256,46.503l-0.002-0.001v418.994H256l67.887,33.184
	c2.118,1.035,4.363,1.526,6.577,1.526c5.383,0,10.573-2.908,13.261-7.973l35.415-66.748l74.426-13.055
	c7.97-1.397,13.394-8.864,12.261-16.876l-10.586-74.818l52.54-54.308C513.406,260.614,513.406,251.385,507.78,245.57z"/>
<g>
	<path style="fill:#21699F;" d="M207.801,319.2c-3.84,0-7.678-1.465-10.608-4.394c-5.857-5.857-5.857-15.355,0-21.213l96.399-96.399
		c5.857-5.857,15.355-5.857,21.213,0s5.858,15.355,0,21.213l-96.398,96.399C215.479,317.735,211.639,319.2,207.801,319.2z"/>
	<path style="fill:#21699F;" d="M207.798,222.804c-3.95,0-7.809-1.6-10.6-4.4c-2.799-2.79-4.4-6.649-4.4-10.6
		c0-3.95,1.601-7.82,4.4-10.61c2.791-2.79,6.65-4.39,10.6-4.39s7.819,1.6,10.61,4.39c2.789,2.79,4.39,6.66,4.39,10.61
		s-1.6,7.809-4.39,10.6C215.607,221.205,211.748,222.804,207.798,222.804z"/>
</g>
<g>
	<path style="fill:#0A3A5E;" d="M304.197,319.205c-3.949,0-7.81-1.61-10.609-4.4c-2.79-2.79-4.391-6.66-4.391-10.61
		c0-3.939,1.6-7.81,4.391-10.6c2.8-2.79,6.66-4.39,10.609-4.39c3.951,0,7.82,1.6,10.611,4.39c2.789,2.79,4.389,6.66,4.389,10.6
		c0,3.95-1.6,7.82-4.389,10.61C312.018,317.594,308.148,319.205,304.197,319.205z"/>
	<path style="fill:#0A3A5E;" d="M314.805,197.194c-5.857-5.857-15.355-5.857-21.213,0l-37.596,37.596v42.426l58.809-58.809
		C320.664,212.549,320.664,203.051,314.805,197.194z"/>
</g>
<g>
</g>
<g>
</g>
<g>
</g>
<g>
</g>
<g>
</g>
<g>
</g>
<g>
</g>
<g>
</g>
<g>
</g>
<g>
</g>
<g>
</g>
<g>
</g>
<g>
</g>
<g>
</g>
<g>
</g>
</svg>
