<svg fill="none" height="512" viewBox="0 0 24 24" width="512" xmlns="http://www.w3.org/2000/svg"><g clip-rule="evenodd" fill="rgb(0,0,0)" fill-rule="evenodd"><path d="m7 4c-1.65685 0-3 1.34315-3 3v10c0 1.6569 1.34315 3 3 3h10c1.6569 0 3-1.3431 3-3v-6c0-.5523.4477-1 1-1s1 .4477 1 1v6c0 2.7614-2.2386 5-5 5h-10c-2.76142 0-5-2.2386-5-5v-10c0-2.76142 2.23858-5 5-5h6c.5523 0 1 .44772 1 1s-.4477 1-1 1z"/><path d="m17.2156 2.82088c.5256-.5256 1.2385-.82088 1.9818-.82088s1.4561.29528 1.9817.82088.8209 1.23846.8209 1.98177-.2953 1.45618-.8209 1.98178l-.7831.78314c-.3905.39053-1.0237.39053-1.4142 0l-2.5494-2.54933c-.3905-.39053-.3905-1.02369 0-1.41422zm-2.1974 3.61157c-.3905-.39053-1.0237-.39053-1.4142 0l-4.46131 4.46135c-.12816.1281-.21907.2887-.26303.4645l-.84978 3.3992c-.0852.3407.01465.7012.26303.9496s.60887.3482.94965.263l3.39914-.8497c.1758-.044.3364-.1349.4645-.2631l4.4614-4.4613c.3905-.3905.3905-1.02369 0-1.41421z"/></g></svg>