<svg clip-rule="evenodd" fill-rule="evenodd" stroke-linejoin="round" stroke-miterlimit="2" viewBox="0 0 64 64" xmlns="http://www.w3.org/2000/svg" xmlns:serif="http://www.serif.com/"><g transform="translate(-1768 -8)"><g transform="translate(1760 5.89)"><path d="m70 25.271c0-4.049-3.025-7.459-7.045-7.942-.003-.001-.007-.001-.01-.002-15.193-1.747-30.489-1.783-45.893.002-.003.001-.006.001-.009.002-4.016.484-7.037 3.891-7.037 7.936-.006 7.661-.006 21.799-.006 29.462 0 4.05 3.025 7.46 7.046 7.943.003.001.006.001.009.001 15.361 1.77 30.659 1.769 45.896-.001.003-.001.007-.001.01-.001 4.014-.486 7.033-3.893 7.033-7.937.006-7.66.006-21.798.006-29.462z" fill="#05a0d3"/></g><g transform="translate(80 5.893)"><g><path d="m1690.65 22.116 25.85 21.384c2.07 1.402 4.84 1.402 6.91 0l25.94-21.387c-1.09-2.552-3.48-4.438-6.4-4.788 0 0 0-.001-.01-.001-15.19-1.748-30.48-1.783-45.89.002 0 0 0 .001-.01.001-2.91.351-5.29 2.237-6.39 4.789z" fill="#0787b1"/></g><g><path d="m1720 16c-7.62-.001-15.27.436-22.95 1.326 0 0 0 .001-.01.001-4.01.484-7.03 3.892-7.03 7.937-.01 7.66-.01 21.798-.01 29.462 0 4.049 3.03 7.46 7.05 7.943l.01.001c7.66.883 15.31 1.325 22.94 1.326z" fill="#08aee5"/></g><g><path d="m1720 16c-7.62-.001-15.27.436-22.95 1.326 0 0 0 .001-.01.001-2.91.351-5.29 2.237-6.39 4.789l25.85 21.384c1.05.71 2.28 1.06 3.5 1.051z" fill="#0890bc"/></g><g><path d="m1748.65 59.163-28.65-20.163-28.66 20.165c1.26 1.886 3.31 3.216 5.71 3.504l.01.001c15.36 1.769 30.65 1.768 45.89-.002l.01-.001c2.4-.29 4.44-1.619 5.69-3.504z" fill="#1b82c5"/></g><g><path d="m1720 39.001-28.66 20.164c1.26 1.886 3.31 3.216 5.71 3.504l.01.001c7.66.883 15.31 1.325 22.94 1.326z" fill="#1e8ad0"/></g><g><path d="m1690.58 22.295 25.97 18.276c2.07 1.457 4.83 1.457 6.9 0l25.98-18.279c-1.06-2.642-3.5-4.609-6.48-4.967 0 0 0-.001-.01-.001-15.19-1.748-30.48-1.783-45.89.002 0 0 0 .001-.01.001-2.97.359-5.41 2.326-6.46 4.968z" fill="#3eb8e9"/></g><g><path d="m1720 16c-7.62-.001-15.27.436-22.95 1.326 0 0 0 .001-.01.001-2.97.359-5.41 2.326-6.46 4.968l25.97 18.276c1.03.728 2.24 1.092 3.45 1.093z" fill="#57c0ea"/></g></g><circle cx="1800" cy="24" fill="#29c036" r="14"/><path d="m1800 10c-7.73 0-14 6.273-14 14s6.27 14 14 14z" fill="#27cb35"/><g transform="matrix(.714 0 0 .714 514.286 6.857)"><circle cx="1800" cy="24" fill="#e9eff4" r="14"/></g><g transform="matrix(.714 0 0 .714 514.286 6.857)"><path d="m1800 10c-7.73 0-14 6.273-14 14s6.27 14 14 14z" fill="#f3f6f9"/></g><g transform="translate(1680 2)"><path d="m113.606 24.408 2.974 3c.375.378.885.591 1.417.592.533.001 1.044-.211 1.42-.588l6.974-7c.779-.782.776-2.05-.006-2.829s-2.049-.777-2.828.005l-5.553 5.575-1.557-1.571c-.777-.784-2.045-.79-2.829-.012-.784.777-.789 2.044-.012 2.828z" fill="#29c036"/></g><path d="m1800 28.826v-5.667l-2 2.004-1.55-1.571c-.78-.784-2.05-.79-2.83-.012-.79.777-.79 2.044-.01 2.828l2.97 3c.37.378.89.591 1.42.592s1.04-.211 1.42-.588z" fill="#27cb35"/></g></svg>