<svg id="Capa_1" enable-background="new 0 0 512 512" height="512" viewBox="0 0 512 512" width="512" xmlns="http://www.w3.org/2000/svg"><path d="m331.17 18.352c-23.841-24.335-63.093-24.33-87.736-.807l-4.392 4.192c-2.842 2.713-7.314 2.713-10.156 0l-4.392-4.192c-24.642-23.523-63.894-23.529-87.735.807-24.224 24.726-23.497 64.404 1.465 88.232 1.455 1.389 47.978 45.799 75.684 72.247l42.277-2.066c27.896-26.629 72.102-68.828 73.52-70.181 24.962-23.829 25.688-63.506 1.465-88.232z" fill="#ff656f"/><path d="m175.562 106.583c-24.962-23.828-25.688-63.505-1.465-88.232 7.291-7.442 16.026-12.596 25.341-15.509-21.559-6.657-45.923-1.595-62.679 15.509-24.224 24.726-23.497 64.404 1.465 88.232 1.455 1.389 47.978 45.799 75.684 72.247l35.52-1.736c-27.874-26.607-72.443-69.152-73.866-70.511z" fill="#ff4756"/><path d="m213.908 113.679v143.285c0 1.935-2.669 2.481-3.419.715-8.424-19.777-22.227-36.792-39.835-49.114-8.738-6.115-20.788-5.4-28.165 2.303-6.73 7.029-7.813 17.468-3.038 25.611 5.901 10.062 14.446 26.071 21.553 45.075 2.466 6.595 5.685 12.888 9.665 18.697 4.439 6.479 9.772 12.285 15.784 17.338 4.457 3.746 8.828 7.732 13.011 11.954 12.124 12.238 18.916 28.779 18.916 46.006v21.172h146.953v-12.581c0-12.263 3.038-24.335 8.842-35.138 5.804-10.803 8.842-22.874 8.842-35.137v-107.551c0-11.382-8.747-21.176-20.117-21.712-12.139-.572-22.16 9.101-22.16 21.114v-9.029c0-11.382-8.747-21.176-20.117-21.711-12.139-.571-22.16 9.101-22.16 21.114v-9.029c0-11.382-8.747-21.176-20.116-21.711-12.139-.572-22.16 9.101-22.16 21.114 0-7.048 0-63.631 0-72.786 0-11.674-9.464-21.138-21.139-21.138-11.676.001-21.14 9.465-21.14 21.139z" fill="#fed2a4"/><path d="m222.385 329.544c-4.183-4.222-8.554-8.208-13.011-11.954-6.012-5.054-11.345-10.859-15.784-17.338-3.979-5.809-7.199-12.102-9.665-18.697-7.107-19.004-15.652-35.013-21.553-45.075-4.775-8.143-3.691-18.582 3.038-25.611 1.187-1.24 2.506-2.279 3.902-3.158-8.597-5.159-19.816-4.16-26.822 3.158-6.73 7.029-7.814 17.469-3.038 25.611 5.901 10.062 14.446 26.071 21.553 45.075 2.466 6.595 5.685 12.888 9.665 18.697 4.439 6.479 9.772 12.285 15.784 17.338 4.457 3.746 8.828 7.732 13.011 11.954 12.125 12.238 18.916 28.779 18.916 46.006v21.172h22.921v-21.172c-.001-17.227-6.793-33.768-18.917-46.006z" fill="#ffbd86"/><path d="m202.526 403.113v37.105h174.392v-37.105c0-4.63-3.754-8.384-8.384-8.384h-157.624c-4.63 0-8.384 3.753-8.384 8.384z" fill="#dfebfa"/><path d="m246.039 394.728h-35.129c-4.631 0-8.384 3.754-8.384 8.384v37.105h35.129v-37.105c0-4.63 3.753-8.384 8.384-8.384z" fill="#b1dbfc"/><path d="m186.482 450.21v49.804c0 6.62 5.366 11.986 11.986 11.986h182.51c6.619 0 11.986-5.366 11.986-11.986v-49.804c0-6.619-5.366-11.986-11.986-11.986h-182.51c-6.62.001-11.986 5.367-11.986 11.986z" fill="#60b8fe"/><path d="m221.611 500.014v-49.804c0-6.619 5.366-11.986 11.985-11.986h-35.129c-6.619 0-11.985 5.366-11.985 11.986v49.804c0 6.62 5.366 11.986 11.985 11.986h35.129c-6.619 0-11.985-5.366-11.985-11.986z" fill="#23a8fe"/><g fill="#ffbd86"><path d="m348.383 261.551c4.128 0 7.474-3.346 7.474-7.474v-68.622c-7.926 2.352-13.903 9.222-14.948 17.628v50.994c-.001 4.128 3.346 7.474 7.474 7.474z"/><path d="m306.105 261.55c4.128 0 7.474-3.346 7.474-7.474v-78.246c-7.926 2.352-13.904 9.223-14.948 17.63v60.616c0 4.128 3.346 7.474 7.474 7.474z"/><path d="m256.354 254.076c0 4.128 3.346 7.474 7.474 7.474s7.474-3.346 7.474-7.474v-87.872c-7.927 2.352-13.904 9.224-14.948 17.631z"/><path d="m224.071 259.443c5.782-2.408 5.782-8.803 5.782-11.045 0-44.834 0-123.293 0-134.719 0-8.852 5.446-16.422 13.166-19.571-2.461-1.004-5.15-1.568-7.972-1.568-11.674 0-21.138 9.464-21.138 21.138v143.286c-.001.001 4.38 4.887 10.162 2.479z"/></g></svg>