<svg fill="none" height="512" viewBox="0 0 24 24" width="512" xmlns="http://www.w3.org/2000/svg"><path clip-rule="evenodd" d="m3 5.78584c0-1.53858 1.24726-2.78584 2.78584-2.78584h12.42836c1.5385 0 2.7858 1.24726 2.7858 2.78584 0 .8071-.2887 1.58759-.814 2.2004l-2.8341 3.30646c-1.0875 1.2687-1.6852 2.8846-1.6852 4.5556v2.1517c0 1.6569-1.3432 3-3 3h-1.3334c-1.65682 0-2.99997-1.3431-2.99997-3v-2.1517c0-1.671-.59774-3.2869-1.6852-4.5556l-2.83415-3.30646c-.52526-.61281-.81398-1.39329-.81398-2.2004zm2.78584-.78584c-.43401 0-.78584.35183-.78584.78584 0 .32968.11794.64849.33249.89881l2.83415 3.30651c1.39816 1.63114 2.16666 3.70874 2.16666 5.85714v2.1517c0 .5523.4477 1 1 1h1.3334c.5523 0 1-.4477 1-1v-2.1517c0-2.1484.7685-4.226 2.1667-5.85714l2.8341-3.30651c.2146-.25032.3325-.56913.3325-.89881 0-.43401-.3518-.78584-.7858-.78584z" fill="rgb(0,0,0)" fill-rule="evenodd"/></svg>