<?xml version="1.0" encoding="UTF-8" standalone="no"?>
<!-- Created with Inkscape (http://www.inkscape.org/) -->

<svg
   version="1.1"
   id="svg654"
   xml:space="preserve"
   width="682.66669"
   height="682.66669"
   viewBox="0 0 682.66669 682.66669"
   xmlns="http://www.w3.org/2000/svg"
   xmlns:svg="http://www.w3.org/2000/svg"><defs
     id="defs658"><clipPath
       clipPathUnits="userSpaceOnUse"
       id="clipPath668"><path
         d="M 0,512 H 512 V 0 H 0 Z"
         id="path666" /></clipPath></defs><g
     id="g660"
     transform="matrix(1.3333333,0,0,-1.3333333,0,682.66667)"><g
       id="g662"><g
         id="g664"
         clip-path="url(#clipPath668)"><path
           d="M 436,46 H 76 v 270 h 360 z"
           style="fill:none;stroke:#000000;stroke-width:30;stroke-linecap:round;stroke-linejoin:round;stroke-miterlimit:10;stroke-dasharray:none;stroke-opacity:1"
           id="path670" /><g
           id="g672"
           transform="translate(76,196)"><path
             d="M 0,0 H -61 V 270 H 300 V 210"
             style="fill:none;stroke:#000000;stroke-width:30;stroke-linecap:round;stroke-linejoin:round;stroke-miterlimit:10;stroke-dasharray:none;stroke-opacity:1"
             id="path674" /></g><g
           id="g676"
           transform="translate(136,316)"><path
             d="M 0,0 V 90 H 361 V -180 H 300"
             style="fill:none;stroke:#000000;stroke-width:30;stroke-linecap:round;stroke-linejoin:round;stroke-miterlimit:10;stroke-dasharray:none;stroke-opacity:1"
             id="path678" /></g><g
           id="g680"
           transform="translate(76,46)"><path
             d="M 0,0 90,90 120,60 210,150 360,0"
             style="fill:none;stroke:#000000;stroke-width:30;stroke-linecap:round;stroke-linejoin:round;stroke-miterlimit:10;stroke-dasharray:none;stroke-opacity:1"
             id="path682" /></g><g
           id="g684"
           transform="translate(136,226)"><path
             d="M 0,0 C 0,-16.569 13.432,-30 30,-30 46.568,-30 60,-16.569 60,0 60,16.569 46.568,30 30,30 13.432,30 0,16.569 0,0 Z"
             style="fill:none;stroke:#000000;stroke-width:30;stroke-linecap:round;stroke-linejoin:round;stroke-miterlimit:10;stroke-dasharray:none;stroke-opacity:1"
             id="path686" /></g></g></g></g></svg>
