<svg fill="none" height="512" viewBox="0 0 24 24" width="512" xmlns="http://www.w3.org/2000/svg"><g fill="rgb(0,0,0)"><path d="m0 5.5c0 4.5293.97075 5.5 5.5 5.5 4.5293 0 5.5-.9707 5.5-5.5 0-4.52925-.9707-5.5-5.5-5.5-4.52925 0-5.5.97075-5.5 5.5z"/><path d="m0 18.5c0 4.5293.97075 5.5 5.5 5.5 4.5293 0 5.5-.9707 5.5-5.5s-.9707-5.5-5.5-5.5c-4.52925 0-5.5.9707-5.5 5.5z"/><path d="m13 5.5c0 4.5293.9707 5.5 5.5 5.5s5.5-.9707 5.5-5.5c0-4.52925-.9707-5.5-5.5-5.5s-5.5.97075-5.5 5.5z"/><path d="m13 18.5c0 4.5293.9707 5.5 5.5 5.5s5.5-.9707 5.5-5.5-.9707-5.5-5.5-5.5-5.5.9707-5.5 5.5z"/></g></svg>