<svg fill="none" height="512" viewBox="0 0 24 24" width="512" xmlns="http://www.w3.org/2000/svg"><path d="m15.566 11.021c1.0448-.6203 1.9105-1.50136 2.5125-2.55682.6019-1.05545.9195-2.24914.9215-3.46418v-1h1v-2h-16v2h1v1c.00203 1.21504.31957 2.40873.92153 3.46418.60197 1.05546 1.46771 1.93652 2.51247 2.55682.354.208.566.545.566.9v.158c0 .354-.212.69-.566.9-1.04476.6203-1.9105 1.5014-2.51247 2.5568-.60196 1.0555-.9195 2.2492-.92153 3.4642v1h-1v2h16v-2h-1v-1c-.0019-1.2148-.3193-2.4083-.9211-3.4636s-1.4673-1.9362-2.5119-2.5564c-.355-.21-.567-.547-.567-.901v-.158c0-.355.212-.692.566-.9zm1.434 7.979v1h-10v-1c.00131-.8674.22777-1.7195.65723-2.4731.42946-.7535 1.0472-1.3827 1.79277-1.8259.6525-.3802 1.1444-.9848 1.384-1.701h2.332c.23.691.704 1.3 1.385 1.702.7454.4431 1.3629 1.0721 1.7922 1.8255s.6556 1.6054.6568 2.4725z" fill="rgb(0,0,0)"/></svg>