<svg fill="none" height="512" viewBox="0 0 24 24" width="512" xmlns="http://www.w3.org/2000/svg"><path d="m5 2h-1v2h1v1c.0019 1.21482.31929 2.40831.92108 3.4636.6018 1.05528 1.46736 1.9362 2.51192 2.5564.355.21.567.547.567.901v.158c0 .354-.212.691-.566.9-1.04476.6203-1.9105 1.5014-2.51247 2.5568-.60196 1.0555-.9195 2.2492-.92153 3.4642v1h-1v2h16v-2h-1v-1c-.002-1.215-.3196-2.4087-.9215-3.4642-.602-1.0554-1.4677-1.9365-2.5125-2.5568-.354-.208-.566-.545-.566-.9v-.158c0-.354.212-.69.566-.9 1.0448-.6203 1.9105-1.50136 2.5125-2.55682.6019-1.05545.9195-2.24914.9215-3.46418v-1h1v-2zm12 3c-.0013.86735-.2278 1.7195-.6572 2.47307-.4295.75357-1.0472 1.38273-1.7928 1.82593-.6527.37994-1.1447.9846-1.384 1.701h-2.332c-.2399-.7166-.7321-1.32151-1.385-1.702-.74537-.44308-1.36293-1.07211-1.79222-1.82552-.42928-.7534-.6556-1.60536-.65678-2.47248v-1h10z" fill="rgb(0,0,0)"/></svg>