<svg id="Capa_1" enable-background="new 0 0 512 512" height="512" viewBox="0 0 512 512" width="512" xmlns="http://www.w3.org/2000/svg"><g><path d="m256 256-117.616 117.617c-9.292 9.292-14.513 21.638-14.513 31.028l16.23 10.809h154.099z" fill="#e1f5fb"/><path d="m388.129 478.968v-70.315c0-13.141-5.22-25.744-14.513-35.036l-117.616-117.617v222.968z" fill="#cceffa"/><path d="m133.259 55.781-9.388 10.283v37.283c0 13.141 5.22 25.744 14.513 35.036l26.778 26.778 142.504 17.461 36.706-126.841h-211.113z" fill="#e1f5fb"/><path d="m123.871 33.032v33.032h156.903c18.243 0 33.032 14.789 33.032 33.032v4.251c0 13.141-2.61 25.744-7.256 35.036l-14.779 29.559 55.067-2.78 26.778-26.778c9.292-9.292 14.513-21.895 14.513-35.037v-70.315z" fill="#cceffa"/><path d="m165.162 165.161 75.324 75.325c4.646 4.646 7.256 10.947 7.256 17.518l53.843-84.069-8.423-8.773h-128z" fill="#ffe077"/><path d="m247.742 361.351c0 6.57-2.61 12.872-7.256 17.518l-18.52 18.52c-4.646 4.646-10.948 7.256-17.519 7.256h-80.576v74.323h157.732v-67.857z" fill="#ffe077"/><path d="m388.129 404.645h-80.577c-6.57 0-12.871-2.61-17.516-7.256l-18.521-18.521c-4.646-4.646-7.257-10.948-7.257-17.519v-103.346c0-6.57 2.61-12.872 7.256-17.518l75.324-75.324h-53.677l-38.838 67.627c-4.312 7.509-6.581 16.017-6.581 24.676v104.861c0 11.538 2.686 22.918 7.846 33.238l9.081 18.163c5.16 10.32 7.846 21.7 7.846 33.238v32.003h115.613v-74.322z" fill="#ffd05b"/><path d="m346.839 0h-222.968c-9.122 0-16.516 7.395-16.516 16.516v16.516l16.516 8.64h239.484v-25.156c0-9.121-7.395-16.516-16.516-16.516z" fill="#f4aa73"/><path d="m388.129 0h-41.29v16.516c0 9.121-7.395 16.516-16.516 16.516h-222.968c0 9.121 7.395 16.516 16.516 16.516h264.258c9.121 0 16.516-7.395 16.516-16.516v-16.516c0-9.122-7.394-16.516-16.516-16.516z" fill="#e29a6c"/><path d="m346.839 462.452h-222.968c-9.122 0-16.516 7.395-16.516 16.516v16.516l16.516 8.64h239.484v-25.157c0-9.121-7.395-16.515-16.516-16.515z" fill="#f4aa73"/><path d="m388.129 462.452h-41.29v16.516c0 9.121-7.395 16.516-16.516 16.516h-222.968c0 9.121 7.395 16.516 16.516 16.516h264.258c9.121 0 16.516-7.395 16.516-16.516v-16.516c0-9.122-7.394-16.516-16.516-16.516z" fill="#e29a6c"/></g></svg>