<svg fill="none" height="512" viewBox="0 0 24 24" width="512" xmlns="http://www.w3.org/2000/svg"><g fill="rgb(0,0,0)"><path d="m1 3c0-1.10457.89543-2 2-2h2c1.10457 0 2 .89543 2 2v2c0 1.10457-.89543 2-2 2h-2c-1.10457 0-2-.89543-2-2z"/><path d="m1 11c0-1.10457.89543-2 2-2h2c1.10457 0 2 .89543 2 2v2c0 1.1046-.89543 2-2 2h-2c-1.10457 0-2-.8954-2-2z"/><path d="m1 19c0-1.1046.89543-2 2-2h2c1.10457 0 2 .8954 2 2v2c0 1.1046-.89543 2-2 2h-2c-1.10457 0-2-.8954-2-2z"/><path d="m10 3c-.55229 0-1 .44772-1 1s.44771 1 1 1h11c.5523 0 1-.44772 1-1s-.4477-1-1-1z"/><path d="m9 12c0-.5523.44771-1 1-1h11c.5523 0 1 .4477 1 1s-.4477 1-1 1h-11c-.55229 0-1-.4477-1-1z"/><path d="m10 19c-.55229 0-1 .4477-1 1s.44771 1 1 1h11c.5523 0 1-.4477 1-1s-.4477-1-1-1z"/></g></svg>