<svg fill="none" height="512" viewBox="0 0 24 24" width="512" xmlns="http://www.w3.org/2000/svg"><g clip-rule="evenodd" fill="rgb(0,0,0)" fill-rule="evenodd"><path d="m8.2332 5.67114c-.81303 1.01365-1.2332 2.41433-1.2332 3.87431 0 2.97185 1.36744 5.62825 2.8064 7.59045.7135.9729 1.4281 1.7526 1.9632 2.2877.0813.0813.1583.1568.2304.2263.0721-.0695.1491-.145.2304-.2263.5351-.5351 1.2497-1.3148 1.9632-2.2877 1.439-1.9622 2.8064-4.6186 2.8064-7.59045 0-1.45997-.4202-2.86066-1.2332-3.87431-.7899-.98478-2-1.67114-3.7668-1.67114s-2.97692.68636-3.7668 1.67114zm3.7668 15.32886c-.6332.774-.6335.7737-.6338.7735l-.0007-.0006-.0018-.0015-.0053-.0043-.0169-.0141c-.0141-.0118-.0337-.0283-.0585-.0495-.0497-.0424-.12-.1035-.2082-.1825-.1762-.1579-.424-.3878-.7194-.6832-.58988-.5899-1.37526-1.4466-2.16181-2.5192-1.56103-2.1287-3.19359-5.1995-3.19359-8.77315 0-1.81274.51733-3.68479 1.67305-5.12568 1.17887-1.46976 2.96871-2.41977 5.32695-2.41977 2.3582 0 4.1481.95001 5.3269 2.41977 1.1558 1.44089 1.6731 3.31294 1.6731 5.12568 0 3.57365-1.6326 6.64445-3.1936 8.77315-.7865 1.0726-1.5719 1.9293-2.1618 2.5192-.2954.2954-.5432.5253-.7194.6832-.0882.079-.1585.1401-.2082.1825-.0248.0212-.0444.0377-.0585.0495l-.0169.0141-.0053.0043-.0018.0015-.0007.0006c-.0003.0002-.0006.0005-.6338-.7735zm0 0 .6332.774c-.3683.3013-.8981.3013-1.2664 0z"/><path d="m12 8c-.5523 0-1 .44772-1 1s.4477 1 1 1 1-.44772 1-1-.4477-1-1-1zm-3 1c0-1.65685 1.3431-3 3-3s3 1.34315 3 3c0 1.6569-1.3431 3-3 3s-3-1.3431-3-3z"/></g></svg>