<svg fill="none" height="512" viewBox="0 0 20 20" width="512" xmlns="http://www.w3.org/2000/svg"><path d="m17.293 13.293c-1.4815.6701-3.132.8728-4.7316.5812-1.5997-.2916-3.07245-1.0637-4.22221-2.2134-1.14975-1.1498-1.92185-2.62256-2.21345-4.2222-.29159-1.59963-.08883-3.25014.58127-4.73163-1.17943.53301-2.21196 1.3442-3.00899 2.36396s-1.33478 2.21766-1.5671 3.49093c-.23232 1.27326-.15228 2.58384.23325 3.81944.38553 1.2355 1.06505 2.3591 1.98025 3.2743.91519.9152 2.03876 1.5947 3.27429 1.9802s2.54619.4656 3.81939.2333c1.2733-.2324 2.4712-.7701 3.491-1.5671 1.0197-.7971 1.8309-1.8296 2.3639-3.009z" fill="rgb(0,0,0)"/></svg>