<svg id="Layer_1" enable-background="new 0 0 512 512" height="512" viewBox="0 0 512 512" width="512" xmlns="http://www.w3.org/2000/svg"><g><g><ellipse cx="400.6" cy="400.6" fill="#ff9ece" rx="111.4" ry="111.4" transform="matrix(.383 -.924 .924 .383 -122.809 617.403)"/><path d="m400.6 289.2c61.427 0 111.4 49.974 111.4 111.4s-49.974 111.4-111.4 111.4z" fill="#fc5896"/><path d="m433.928 412.715-12.115-12.115 12.115-12.115c5.858-5.858 5.858-15.355 0-21.213s-15.355-5.858-21.213 0l-12.115 12.115-12.115-12.115c-5.858-5.858-15.355-5.858-21.213 0s-5.858 15.355 0 21.213l12.115 12.115-12.115 12.115c-5.858 5.858-5.858 15.355 0 21.213s15.355 5.858 21.213 0l12.115-12.115 12.115 12.115c5.858 5.858 15.355 5.858 21.213 0 5.858-5.857 5.858-15.355 0-21.213z" fill="#f3f9ff"/><path d="m400.6 421.813 12.115 12.115c5.858 5.858 15.355 5.858 21.213 0s5.858-15.355 0-21.213l-12.115-12.115 12.115-12.115c5.858-5.858 5.858-15.355 0-21.213s-15.355-5.858-21.213 0l-12.115 12.115z" fill="#e1eeff"/></g><g><g fill="#60c7ff"><path d="m106.228 182.673c-18.6 18.6-18.6 48.756 0 67.356s48.756 18.6 67.356 0c32.364-32.364 84.836-32.364 117.2 0 18.6 18.6 48.756 18.6 67.356 0s18.6-48.756 0-67.356c-69.564-69.563-182.349-69.563-251.912 0z"/><path d="m450.417 90.395c-120.527-120.527-315.94-120.527-436.468 0-18.6 18.6-18.6 48.756 0 67.356s48.756 18.6 67.356 0c83.328-83.328 218.429-83.328 301.756 0 18.6 18.6 48.756 18.6 67.356 0s18.6-48.756 0-67.356z"/><ellipse cx="232.184" cy="308.629" rx="47.628" ry="47.628" transform="matrix(.707 -.707 .707 .707 -150.229 254.574)"/></g><path d="m358.139 250.029c18.6-18.6 18.6-48.756 0-67.356-34.782-34.782-80.369-52.173-125.956-52.173v95.255c21.209 0 42.418 8.091 58.6 24.273 18.601 18.601 48.757 18.601 67.356.001z" fill="#2585fd"/><path d="m450.417 157.751c18.6-18.6 18.6-48.756 0-67.356-60.263-60.263-139.248-90.395-218.233-90.395v95.255c54.607 0 109.214 20.832 150.878 62.496 18.6 18.6 48.756 18.6 67.355 0z" fill="#2585fd"/><path d="m279.811 308.629c0-26.304-21.324-47.628-47.628-47.628v95.255c26.305.001 47.629-21.323 47.628-47.627z" fill="#2585fd"/></g></g></svg>