<svg fill="none" height="512" viewBox="0 0 20 24" width="512" xmlns="http://www.w3.org/2000/svg"><g fill="rgb(0,0,0)"><path d="m10.9987 1.05206c.0008-.01727.0013-.0346.0013-.05206 0-.552307-.4477-1-1-1-.55224 0-.99999.447693-.99999 1 0 .01746.00049.03485.00134.05212-3.34765.48249-6.49768 4.24738-6.00134 8.44788.25708 1.2854-.55237 1.9664-1.3949 2.6752-.796141.6698-1.6217022 1.3644-1.60485647 2.6173 0 1.7559.99975647 2.7075 2.46801647 3.1794 0 0 2.68909 1.0281 7.53183 1.0281 4.8428 0 7.5319-1.0281 7.5319-1.0281 1.4683-.4719 2.4683-1.4719 2.468-3.1794-.0001-1.2637-.8252-1.9586-1.6169-2.6253-.8388-.7063-1.64-1.3811-1.3828-2.6672.4963-4.20062-2.6539-7.96558-6.0016-8.44794z"/><path d="m6.42738 20.2c-.4419.3314-.53137.9581-.20008 1.4 1.90003 2.5334 5.7001 2.5334 7.6001 0 .3313-.4419.2418-1.0686-.2001-1.4-.4417-.3313-1.0686-.2418-1.4.2-1.1 1.4666-3.29992 1.4666-4.3999 0-.33142-.4418-.95825-.5313-1.40002-.2z"/></g></svg>