<svg fill="none" height="512" viewBox="0 0 24 24" width="512" xmlns="http://www.w3.org/2000/svg"><g clip-rule="evenodd" fill="rgb(0,0,0)" fill-rule="evenodd"><path d="m4 19c0-2.7614 2.23858-5 5-5h6c2.7614 0 5 2.2386 5 5 0 1.6569-1.3431 3-3 3h-10c-1.65685 0-3-1.3431-3-3zm5-3c-1.65685 0-3 1.3431-3 3 0 .5523.44772 1 1 1h10c.5523 0 1-.4477 1-1 0-1.6569-1.3431-3-3-3z"/><path d="m12 4c-1.6569 0-3 1.34315-3 3s1.3431 3 3 3 3-1.34315 3-3-1.3431-3-3-3zm-5 3c0-2.76142 2.23858-5 5-5 2.7614 0 5 2.23858 5 5s-2.2386 5-5 5c-2.76142 0-5-2.23858-5-5z"/></g></svg>