<svg fill="none" height="512" viewBox="0 0 60 60" width="512" xmlns="http://www.w3.org/2000/svg"><g fill="rgb(0,0,0)"><path d="m10.172 45.0001c-.53 0-1.039.211-1.414.586l-4.818 4.818c-.602.602-.94 1.417-.94 2.268s.338 1.666.939 2.268l1.121 1.121c.602.601 1.418.939 2.268.939s1.666-.338 2.268-.939l4.818-4.818c.375-.376.586-.885.586-1.415s-.211-1.039-.586-1.414l-2.828-2.828c-.375-.375-.884-.586-1.414-.586z"/><path d="m14 42.0471c0 .184.07.366.209.506l3.238 3.238c.139.139.321.209.502.209.178 0 .363-.07.502-.209l2.273-2.273c4.285 3.253 9.78 4.993 15.709 4.351 10.227-1.109 18.448-9.398 19.457-19.635 1.371-13.906-10.22-25.49604-24.126-24.12404-10.235 1.01-18.523 9.23004-19.631 19.45604-.643 5.93 1.097 11.425 4.35 15.709l-2.273 2.273c-.138.139-.21.309-.21.499zm4-16.047c0-8.837 7.164-16 16-16s16 7.163 16 16-7.164 16-16 16-16-7.163-16-16z"/></g></svg>