<svg fill="none" height="512" viewBox="0 0 20 20" width="512" xmlns="http://www.w3.org/2000/svg"><path d="m9.04897 2.92702c.3-.921 1.60303-.921 1.90203 0l1.07 3.292c.0653.20049.1924.37518.363.4991.1707.12393.3761.19074.587.1909h3.462c.969 0 1.371 1.24.588 1.81l-2.8 2.03398c-.171.124-.2983.299-.3637.4999-.0654.2008-.0655.4172-.0003.6181l1.07 3.292c.3.921-.755 1.688-1.54 1.118l-2.8-2.034c-.1708-.124-.3765-.1908-.58753-.1908-.21105 0-.4167.0668-.5875.1908l-2.8 2.034c-.784.57-1.838-.197-1.539-1.118l1.07-3.292c.06518-.2009.06506-.4173-.00033-.6181-.06539-.2009-.1927-.3759-.36367-.4999l-2.799-2.03298c-.783-.57-.38-1.81.588-1.81h3.461c.21105.00005.41671-.06666.58753-.1906s.29805-.29875.36347-.4994l1.07-3.292z" fill="rgb(0,0,0)"/></svg>