<svg id="Capa_1" enable-background="new 0 0 545.874 545.874" height="512" viewBox="0 0 545.874 545.874" width="512" xmlns="http://www.w3.org/2000/svg"><g><g><path d="m408.94 535.092c-10.813.001-21.625-3.432-31.054-10.297l-104.939-76.222-104.976 76.239c-18.82 13.7-43.181 13.711-62.043.008-18.869-13.706-26.395-36.887-19.174-59.057l40.067-123.365-104.95-76.239c-18.859-13.712-26.381-36.889-19.175-59.053 7.206-22.166 26.915-36.487 50.21-36.487h129.723l40.099-123.363c7.22-22.167 26.929-36.475 50.219-36.475h.029c23.291.011 42.986 14.333 50.176 36.483l40.097 123.378 129.721-.024c23.288 0 42.994 14.31 50.201 36.456 7.214 22.164-.3 45.349-19.14 59.066l-104.984 76.257 40.084 123.387c7.212 22.165-.317 45.348-19.184 59.048-9.421 6.841-20.214 10.26-31.007 10.26zm-272.068-52.646v.001zm272.375-.155c.001.001.001.001.001.001zm-356.345-258.848c.002.002.005.004.007.005l104.95 76.231c9.082 6.6 15.713 15.73 19.18 26.405 3.465 10.67 3.463 21.951-.005 32.624l-40.066 123.365 104.935-76.219c9.064-6.594 19.803-10.087 31.036-10.087 11.234 0 21.971 3.492 31.052 10.1l104.918 76.206-40.068-123.368c-3.466-10.668-3.467-21.949-.004-32.619 3.471-10.683 10.101-19.811 19.177-26.404l104.964-76.242c-.006-.007-.008-.016-.012-.025h-129.744c-11.226-.009-21.943-3.495-31.008-10.081-9.06-6.576-15.689-15.688-19.167-26.344l-40.108-123.411h-.001c-.001.004-.002.008-.004.012l-40.094 123.37c-3.485 10.687-10.121 19.804-19.198 26.39-9.074 6.584-19.795 10.064-31.007 10.064-.004 0-.008 0-.012 0h-129.716c0 .01-.003.019-.005.028zm440.413-.003c.001 0 .001 0 .002.001.001-.001 0-.001-.002-.001zm-.091-.208c0 .001-.001.001-.002.002.002-.001.002-.002.002-.002zm-440.583-.009s.001.001.002.002c-.001 0-.001 0-.002-.002zm220.425-159.956s0 0-.001.001c.001 0 .001-.001.001-.001z" fill="rgb(0,0,0)"/></g></g></svg>