<svg fill="none" height="512" viewBox="0 0 24 24" width="512" xmlns="http://www.w3.org/2000/svg"><g clip-rule="evenodd" fill="rgb(0,0,0)" fill-rule="evenodd"><path d="m12 18c3.3137 0 6-2.6863 6-6 0-3.31371-2.6863-6-6-6-3.31371 0-6 2.68629-6 6 0 3.3137 2.68629 6 6 6z"/><path d="m12 1c.5523 0 1 .44772 1 1v2c0 .55228-.4477 1-1 1s-1-.44772-1-1v-2c0-.55228.4477-1 1-1z"/><path d="m4.22183 4.22183c.39052-.39053 1.02368-.39053 1.41421 0l1.41421 1.41421c.39053.39052.39053 1.02369 0 1.41421-.39052.39053-1.02369.39053-1.41421 0l-1.41421-1.41421c-.39053-.39053-.39053-1.02369 0-1.41421z"/><path d="m1 12c0-.5523.44772-1 1-1h2c.55228 0 1 .4477 1 1s-.44772 1-1 1h-2c-.55228 0-1-.4477-1-1z"/><path d="m4.22183 19.7782c-.39053-.3906-.39053-1.0237 0-1.4142l1.41421-1.4143c.39052-.3905 1.02369-.3905 1.41421 0 .39053.3906.39053 1.0237 0 1.4143l-1.41421 1.4142c-.39053.3905-1.02369.3905-1.41421 0z"/><path d="m12 19c.5523 0 1 .4477 1 1v2c0 .5523-.4477 1-1 1s-1-.4477-1-1v-2c0-.5523.4477-1 1-1z"/><path d="m16.9497 16.9497c.3906-.3905 1.0237-.3905 1.4143 0l1.4142 1.4143c.3905.3905.3905 1.0237 0 1.4142s-1.0237.3905-1.4142 0l-1.4143-1.4142c-.3905-.3906-.3905-1.0237 0-1.4143z"/><path d="m19 12c0-.5523.4477-1 1-1h2c.5523 0 1 .4477 1 1s-.4477 1-1 1h-2c-.5523 0-1-.4477-1-1z"/><path d="m16.9497 7.05025c-.3905-.39052-.3905-1.02369 0-1.41421l1.4143-1.41421c.3905-.39053 1.0237-.39053 1.4142 0 .3905.39052.3905 1.02368 0 1.41421l-1.4142 1.41421c-.3906.39053-1.0237.39053-1.4143 0z"/></g></svg>