<svg height="512" viewBox="0 0 512 512" width="512" xmlns="http://www.w3.org/2000/svg"><g id="ESSENTIAL_UI" data-name="ESSENTIAL UI"><path d="m480.23 115.49c-8.94-50.62-54.91-96.59-105.53-105.49-30.7-5.15-72.52-9.94-129.61-10s-98.89 4.85-129.6 10c-50.62 8.9-96.59 54.87-105.49 105.49-5.15 30.71-9.93 72.51-10 129.6s4.85 98.91 10 129.61c8.94 50.62 54.92 96.59 105.53 105.53 30.72 5.11 72.52 9.9 129.6 10s98.89-4.85 129.61-10c50.62-8.94 96.59-54.91 105.53-105.53 5.11-30.71 9.89-72.52 10-129.61s-4.93-98.88-10.04-129.6z" fill="#4193d2"/><path d="m10.67 378.27a277.27 277.27 0 0 0 109.89 22.55c153.63 0 278.17-124.54 278.17-278.16a277.2 277.2 0 0 0 -23.73-112.66h-.25c-30.75-5.15-72.57-9.94-129.66-10s-98.89 4.85-129.6 10c-50.62 8.9-96.59 54.87-105.49 105.49-5.15 30.71-9.93 72.51-10 129.6s4.85 98.91 10 129.61c.17 1.2.42 2.38.67 3.57z" fill="#48a4df"/><path d="m124.08 118.42h242.15a28.36 28.36 0 0 1 0 56.72h-242.15a28.36 28.36 0 0 1 0-56.72zm0 175.16a28.36 28.36 0 0 1 0-56.72h142.15a28.36 28.36 0 0 1 0 56.72z" fill="#fff"/><path d="m410.08 308.16a101.92 101.92 0 1 0 101.92 101.92 101.92 101.92 0 0 0 -101.92-101.92z" fill="#dd4247"/><path d="m428.49 470.45a10.73 10.73 0 0 1 -8.27 8.26 66.37 66.37 0 0 1 -20.29 0 10.73 10.73 0 0 1 -8.26-8.26 66.37 66.37 0 0 1 0-20.29 10.73 10.73 0 0 1 8.26-8.26 66.37 66.37 0 0 1 20.29 0 10.73 10.73 0 0 1 8.27 8.26 66.37 66.37 0 0 1 0 20.29zm.78-60.81a19 19 0 0 1 -38 0v-50.13a19 19 0 0 1 38 0z" fill="#fff"/></g></svg>