<svg fill="none" height="512" viewBox="0 0 24 24" width="512" xmlns="http://www.w3.org/2000/svg"><g clip-rule="evenodd" fill="rgb(0,0,0)" fill-rule="evenodd"><path d="m6 7c-.27854 0-.54446.11618-.73372.32055s-.2847.47842-.26333.75615l.78693 10.2301c.16031 2.084 1.89807 3.6932 3.98822 3.6932h4.4438c2.0902 0 3.8279-1.6092 3.9882-3.6932l.787-10.2301c.0213-.27773-.0741-.55178-.2634-.75615-.1892-.20437-.4552-.32055-.7337-.32055z"/><path d="m16 2.99999 3 .00001c.5523 0 1 .44772 1 1s-.4477 1-1 1h-14c-.55228 0-1-.44772-1-1s.44772-1 1-1h3v-.00001h1.84479c.38731 0 .74911-.19359.96391-.51589.5667-.85006 1.8159-.85005 2.3826 0 .2148.3223.5766.51589.9639.51589z"/></g></svg>